<svg xmlns="http://www.w3.org/2000/svg" viewBox="0 0 218.36 11.8" fill="#fff" xmlns:v="https://vecta.io/nano"><path d="M1 2.4C1 1.27.9 1.2.37 1.1L.07 1A.29.29 0 0 1 .1.62h3.5a.34.34 0 0 1 0 .38l-.3.05c-.54.1-.6.2-.6 1.3v2.8c0 1.4.16 2.95 2 2.95 1.53 0 2-1.35 2-3V3.67a8.38 8.38 0 0 0-.2-2.19c-.1-.26-.37-.33-.7-.4L5.48 1a.38.38 0 0 1 0-.41h2.95a.36.36 0 0 1 0 .41l-.2.05c-.32.07-.54.14-.65.4a8.38 8.38 0 0 0-.18 2.19V5a4.15 4.15 0 0 1-.77 2.9 3.21 3.21 0 0 1-2.37.87 3.67 3.67 0 0 1-2.38-.67A3.36 3.36 0 0 1 1 5.38zm17.78 4.14v1.93a1 1 0 0 1-.71.27s-.4-.6-1-1.3L14.35 4A15 15 0 0 0 13 2.47a2.15 2.15 0 0 0-.06.77v2.33a8.43 8.43 0 0 0 .18 2.19.8.8 0 0 0 .7.38h.34a.4.4 0 0 1 0 .42H11.2a.36.36 0 0 1 0-.42h.2c.32-.06.56-.15.66-.4a8.55 8.55 0 0 0 .17-2.19V2.52a2.74 2.74 0 0 0-.09-1c-.1-.2-.26-.35-.68-.4l-.3-.1c-.08-.1-.07-.38.05-.42h1.66a9.17 9.17 0 0 0 1 0 10.39 10.39 0 0 0 2 2.74l1 1.2 1.15 1.32a1.68 1.68 0 0 0 .05-.54V3.67a8.43 8.43 0 0 0-.18-2.19c-.1-.26-.37-.34-.7-.4l-.33-.1a.38.38 0 0 1 0-.42h2.95a.38.38 0 0 1 0 .42h-.2c-.32 0-.54.14-.65.4a8.43 8.43 0 0 0-.18 2.19zm6.64.28c0 1.13.07 1.22.62 1.3l.34.06a.35.35 0 0 1 0 .42h-3.62a.36.36 0 0 1 0-.42l.34-.06c.55-.1.62-.18.62-1.3V2.4c0-1.13-.07-1.2-.62-1.3l-.36-.1a.36.36 0 0 1 0-.42h3.64a.36.36 0 0 1 0 .42l-.38.1c-.55.1-.62.18-.62 1.3zm9.2-1.22l-1.2 3.07a.81.81 0 0 1-.42.1.49.49 0 0 1-.32-.1c-.14-.32-.34-1-.5-1.37l-1.94-4.88c-.46-1.15-.52-1.17-.9-1.27l-.5-.15a.3.3 0 0 1 0-.41h3.43a.38.38 0 0 1 0 .41l-.28.1c-.22 0-.3.12-.3.23a9.42 9.42 0 0 0 .48 1.32l1.45 3.7.43-1 .46-1.12 1-2.5a1.79 1.79 0 0 0 .12-.43c0-.08-.1-.13-.4-.2L34.8 1c-.1-.1-.1-.35 0-.4h2.6a.34.34 0 0 1 0 .41l-.3.06a.88.88 0 0 0-.69.4 12.72 12.72 0 0 0-1 2zm7.75-1.82c0 .33 0 .36.34.36h.82c.63 0 .77-.1.9-.66l.06-.3c.1-.1.4-.1.45 0v2.54c-.06.1-.36.12-.45 0l-.06-.3c-.12-.58-.26-.68-.9-.68h-.82c-.33 0-.34 0-.34.38v1.45a2.22 2.22 0 0 0 .19 1.14c.16.22.4.3 1.26.3 1 0 1.45 0 2.1-1.4a.3.3 0 0 1 .45.06 6.69 6.69 0 0 1-.51 1.92h-6.4a.36.36 0 0 1 0-.42L40 8.1c.54-.1.62-.16.62-1.26V2.38c0-1.1-.08-1.17-.62-1.28l-.26-.1a.31.31 0 0 1 0-.42h5.87c0 .2.1 1.06.15 1.86 0 .13-.32.16-.44 0a2.7 2.7 0 0 0-.46-.95 1.61 1.61 0 0 0-1.17-.37h-1c-.4 0-.4 0-.4.47zm7.8-1.18c0-1.2 0-1.33-.53-1.4l-.32-.05a.28.28 0 0 1 0-.42l3-.1a5 5 0 0 1 2.35.44 2 2 0 0 1-.22 3.57c-.12.06-.12.13-.06.26a10.06 10.06 0 0 0 1.86 3 1.52 1.52 0 0 0 .81.34.23.23 0 0 1 0 .31 2.94 2.94 0 0 1-.94.11 2.46 2.46 0 0 1-2.33-1.26 14.67 14.67 0 0 1-.93-1.86.62.62 0 0 0-.64-.42c-.42 0-.44 0-.44.26v1.48c0 1.1.07 1.2.6 1.28l.32.06a.36.36 0 0 1 0 .42L51 8.58h-1.75a.33.33 0 0 1 0-.42l.32-.06c.54-.1.6-.18.6-1.28zm1.65 1.53c0 .42 0 .45.74.45a1.18 1.18 0 0 0 .91-.33A1.78 1.78 0 0 0 53.9 3a1.58 1.58 0 0 0-1.57-1.77c-.5 0-.5 0-.5.6zm10.05 4.64a4.09 4.09 0 0 1-2-.46 3.86 3.86 0 0 1-.38-1.94.29.29 0 0 1 .45 0c.2.74 1.06 1.85 2.06 1.85A1.2 1.2 0 0 0 63.26 7c0-1-.9-1.54-1.63-1.9a2.76 2.76 0 0 1-1.81-2.34c0-1.36 1-2.3 2.78-2.3a5 5 0 0 1 1.4.19 3.48 3.48 0 0 0 .41.1 6.08 6.08 0 0 1 .21 1.71.32.32 0 0 1-.46 0C63.92 1.9 63.4 1 62.54 1a1.11 1.11 0 0 0-1.22 1.11 1.74 1.74 0 0 0 1.09 1.39l.8.42a2.73 2.73 0 0 1 1.69 2.41c0 1.48-1.2 2.44-3 2.44m8.83-1.95c0 1.13.07 1.22.62 1.3l.34.06a.35.35 0 0 1 0 .42h-3.62a.36.36 0 0 1 0-.42l.34-.06c.53-.13.6-.13.6-1.3V2.4c0-1.13-.07-1.2-.62-1.3l-.33-.1a.36.36 0 0 1 0-.42h3.64a.36.36 0 0 1 0 .42l-.34.06c-.55.1-.62.18-.62 1.3zm6.82-5.26c0-.3 0-.35-.28-.35h-.75c-.87 0-1.12.48-1.48 1.36a.35.35 0 0 1-.45-.11 16.12 16.12 0 0 0 .4-2 .27.27 0 0 1 .17-.06.22.22 0 0 1 .16 0c.06.2.1.25 1 .25h4.46c.8 0 1 0 1.08-.26a.27.27 0 0 1 .16 0 .3.3 0 0 1 .18.08 8.24 8.24 0 0 0-.2 2.04c-.06.1-.4.13-.45 0-.2-.76-.37-1.33-1.27-1.33h-.72c-.28 0-.32 0-.32.35v5.32c0 1.1.07 1.2.6 1.28l.48.06a.36.36 0 0 1 0 .42H76.4a.36.36 0 0 1 0-.42l.54-.06c.54-.06.6-.17.6-1.28zm11.7 5.3c0 1.1.08 1.2.62 1.28l.48.06a.4.4 0 0 1 0 .42h-3.83a.33.33 0 0 1 0-.42l.4-.06c.54-.08.6-.17.6-1.28v-.6a2.42 2.42 0 0 0-.33-1.43l-1.4-2.95c-.24-.5-.35-.68-.77-.75L84.6 1c-.1-.1-.1-.38 0-.42h3.44c.1.05.13.33 0 .42l-.4.1c-.22.05-.3.1-.3.1a3.14 3.14 0 0 0 .31.84l.57 1.28.6 1.25a24.86 24.86 0 0 0 1-2 4.81 4.81 0 0 0 .57-1.36c0-.07-.2-.14-.48-.2h-.1c-.1-.06-.1-.36 0-.42h2.52c.14.05.14.34 0 .42l-.3.06a1.06 1.06 0 0 0-.62.29 13.84 13.84 0 0 0-1 1.7l-.75 1.37a2.67 2.67 0 0 0-.4 1.58zm14.93-1.65a4.54 4.54 0 0 1-1.27 2.73 2.3 2.3 0 0 1-1.71.82c-.77 0-1.28-.56-1.2-1.6a4.47 4.47 0 0 1 1.3-2.69 2.36 2.36 0 0 1 1.7-.78c.85 0 1.27.64 1.22 1.5M102 4.62a6.89 6.89 0 0 0-1.2 3c0 .42.14.76.5.76s.56-.1.95-.62a7.3 7.3 0 0 0 1.11-2.93c0-.37-.06-.8-.48-.8-.24 0-.52.1-.87.58m5.05-.3c-.07.2-.16.6-.3 1.12l-1.07 3.8a4.73 4.73 0 0 1-.94 1.93 2.25 2.25 0 0 1-1.44.65c-.65 0-.88-.4-.88-.6a.7.7 0 0 1 .28-.54.19.19 0 0 1 .27.05 1.45 1.45 0 0 0 .91.49c.24 0 .5-.08.77-1l1.55-5.92h-1c-.12-.1-.07-.33.1-.44h1A7.21 7.21 0 0 1 107.66 1a2.44 2.44 0 0 1 1.92-1 .88.88 0 0 1 .92.79c0 .3-.32.7-.5.7s-.16-.1-.17-.2c0-.66-.37-.87-.67-.87a1.23 1.23 0 0 0-.86.65 8.66 8.66 0 0 0-1.12 2.79h1.5a.32.32 0 0 1-.12.44zm18.76 2.24v1.93a1 1 0 0 1-.71.27s-.4-.6-1-1.3L121.4 4a16.47 16.47 0 0 0-1.31-1.54 2.15 2.15 0 0 0-.06.77v2.34a8.43 8.43 0 0 0 .18 2.19.8.8 0 0 0 .7.38h.33a.36.36 0 0 1 0 .42h-2.95a.4.4 0 0 1 0-.42h.2c.32-.06.56-.15.66-.4a8.55 8.55 0 0 0 .17-2.19V2.52a2.74 2.74 0 0 0-.09-1 .77.77 0 0 0-.68-.41l-.34-.1c-.08-.1-.07-.38.05-.42h1.65a9.26 9.26 0 0 0 1 0 10.39 10.39 0 0 0 2 2.74l1 1.2 1.15 1.32a1.68 1.68 0 0 0 0-.54V3.67a8.43 8.43 0 0 0-.18-2.19c-.1-.26-.37-.34-.7-.4l-.27-.1a.38.38 0 0 1 0-.42h2.95a.4.4 0 0 1 0 .42h-.22c-.3 0-.54.14-.64.4a8 8 0 0 0-.18 2.19zm12.52-1.96A4 4 0 0 1 134 8.77a3.92 3.92 0 0 1-4.16-4.09 4.13 4.13 0 0 1 4.29-4.21 4 4 0 0 1 4.21 4.11M134 1c-1.48 0-2.27 1.38-2.27 3.38 0 1.47.52 3.82 2.47 3.82 1.57 0 2.18-1.54 2.18-3.48S135.52 1 134 1m9.93.56c0-.3 0-.35-.3-.35h-.75c-.87 0-1.12.48-1.48 1.36a.35.35 0 0 1-.45-.11 13.18 13.18 0 0 0 .4-2 .27.27 0 0 1 .17-.06.26.26 0 0 1 .17 0c.06.2.1.25 1 .25h4.46c.8 0 1 0 1.08-.26a.27.27 0 0 1 .16 0 .28.28 0 0 1 .18.08 8.74 8.74 0 0 0-.18 2.07c-.06.1-.38.13-.44 0-.2-.76-.38-1.33-1.28-1.33H146c-.28 0-.32 0-.32.35v5.3c0 1.1.07 1.2.6 1.28l.48.06a.36.36 0 0 1 0 .42h-3.92a.36.36 0 0 1 0-.42l.54-.06c.54-.06.62-.17.62-1.28zm8.44 1.04c0-1.2 0-1.33-.52-1.4l-.33-.05a.27.27 0 0 1 0-.42l3-.1a5 5 0 0 1 2.35.44 2 2 0 0 1-.21 3.57c-.12.06-.12.13-.06.26a9.88 9.88 0 0 0 1.85 3 1.52 1.52 0 0 0 .81.34.23.23 0 0 1 .05.31 3 3 0 0 1-.95.11A2.47 2.47 0 0 1 156 7.39a14.67 14.67 0 0 1-.93-1.86.62.62 0 0 0-.64-.42c-.42 0-.44 0-.44.26v1.48c0 1.1.07 1.2.6 1.28l.32.06a.36.36 0 0 1 0 .42h-3.5a.33.33 0 0 1 0-.42l.32-.06c.54-.1.6-.18.6-1.28zM154 4.13c0 .42 0 .45.74.45a1.18 1.18 0 0 0 .91-.33A1.74 1.74 0 0 0 156.1 3a1.58 1.58 0 0 0-1.57-1.77c-.5 0-.5 0-.5.6zm10.46-.35c0 .33 0 .36.33.36h.83c.63 0 .77-.1.9-.66l.06-.3c.08-.1.38-.1.44 0v2.54a.35.35 0 0 1-.44 0l-.06-.3c-.12-.58-.26-.68-.9-.68h-.83c-.32 0-.33 0-.33.38v1.45a2.22 2.22 0 0 0 .19 1.14c.16.22.38.3 1.26.3 1 0 1.45 0 2.1-1.4a.29.29 0 0 1 .44.06 6.41 6.41 0 0 1-.5 1.92h-6.4a.33.33 0 0 1 0-.42l.56-.08c.54-.1.6-.16.6-1.26V2.38c0-1.1-.07-1.17-.6-1.28l-.3-.06c-.1-.07-.1-.34 0-.42h5.87c0 .2.1 1.06.16 1.86 0 .13-.33.16-.45 0a2.71 2.71 0 0 0-.45-.95 1.62 1.62 0 0 0-1.18-.37h-1c-.4 0-.4 0-.4.47zm13.08-1.18c0-1.14 0-1.36-.58-1.42h-.23c-.12-.06-.12-.4 0-.42l3.2-.1a8.4 8.4 0 0 1 2.8.4 3.63 3.63 0 0 1 2.46 3.45 3.83 3.83 0 0 1-2.14 3.58 6.69 6.69 0 0 1-3 .57c-.56 0-1.16-.07-1.6-.07h-1.88a.36.36 0 0 1 0-.42l.38-.06c.54-.08.6-.18.6-1.28zm1.7 3.8a2.22 2.22 0 0 0 .24 1.35 1.31 1.31 0 0 0 1 .35c2.07 0 2.78-1.85 2.78-3.48 0-2.16-1.14-3.44-3.3-3.44a.9.9 0 0 0-.62.15 1.5 1.5 0 0 0-.09.7zm11.3-.53c-.3 0-.33 0-.4.23l-.47 1.4a1.39 1.39 0 0 0-.08.43c0 .07.15.14.5.2l.36.06c.07.1.1.36 0 .42h-2.6c-.13-.07-.1-.32 0-.42h.32a.84.84 0 0 0 .73-.6l.76-1.92 1.1-2.93a4.08 4.08 0 0 0 .44-1.52 2.44 2.44 0 0 0 1.05-.72c.15 0 .23.06.27.24l.54 1.64 1.64 4.7c.25.72.36 1 .8 1.07l.45.07c.08.06.1.35 0 .42h-3.46a.27.27 0 0 1 0-.42l.4-.06c.27-.05.32-.13.32-.2a4.54 4.54 0 0 0-.23-.82l-.32-1c-.06-.2-.16-.2-.58-.2zm1.36-.64c.28 0 .34 0 .24-.35l-.3-1-.5-1.4-.52 1.47-.3.9c-.1.32 0 .36.26.36zM198.38 1c-.1-.1-.1-.38 0-.42h2.7a6.86 6.86 0 0 0 .94 2.61l.8 1.7a25.37 25.37 0 0 0 .71 1.29c.16-.28.35-.66.67-1.36l.62-1.32A15 15 0 0 0 206 .62a10.76 10.76 0 0 0 1.19 0h1.38a.31.31 0 0 1 0 .42l-.35.06c-.5.1-.73.23-.73.87l.1 5.27c0 .56.08.84.54.9h.4c.1.1.1.37 0 .42h-3.43a.27.27 0 0 1 0-.42h.36c.55-.07.55-.2.55-.94V2.7l-2.64 6a.36.36 0 0 1-.24.08.59.59 0 0 1-.31-.07c-.47-1.48-1.94-4.46-2.6-6h0c-.2.7-.2 1.28-.2 1.86v2.7c0 .7.07.77.55.84l.47.07a.34.34 0 0 1 0 .42h-2.73c-.16 0-.16-.36 0-.42h.2c.62-.1.7-.18.76-.93l.17-2.77.07-2.42c0-.65-.26-.86-.74-.95zm15.97 2.78c0 .33 0 .36.34.36h.83c.62 0 .76-.1.88-.66l.06-.3c.1-.1.4-.1.45 0v2.54c-.06.1-.36.12-.45 0l-.06-.3c-.12-.58-.26-.68-.88-.68h-.83c-.32 0-.34 0-.34.38v1.45a2.1 2.1 0 0 0 .2 1.14c.15.22.38.3 1.25.3 1 0 1.46 0 2.12-1.4a.29.29 0 0 1 .44.06 7.07 7.07 0 0 1-.5 1.92h-6.4a.36.36 0 0 1 0-.42l.57-.08c.54-.1.6-.16.6-1.26V2.38c0-1.1-.07-1.17-.6-1.28l-.3-.06a.3.3 0 0 1 0-.42h5.88c0 .2.1 1.06.15 1.86 0 .13-.32.16-.44 0a2.7 2.7 0 0 0-.46-.95 1.58 1.58 0 0 0-1.17-.37h-1c-.4 0-.4 0-.4.47z"/></svg>