<svg xmlns="http://www.w3.org/2000/svg" viewBox="0 0 210.2 49.2" fill="#fff" xmlns:v="https://vecta.io/nano"><path d="M60.5 27.9l.1 4.2c-.2.3-.5.4-.8.3L57 29.1l-5.6-6.4-2.7-3c-.1 0-.1.3-.1 1.5V26c0 1.8 0 4 .4 4.7.2.4.6.5 1.2.6l.5.1c.2.2.2.6 0 .7-.9 0-1.8-.1-2.7-.1l-2.5.1c-.2-.1-.2-.5 0-.7l.5-.1c.5-.1.9-.2 1.1-.6.3-.7.3-2.8.3-4.7v-5.7c0-1.9 0-2.3-.8-3-.3-.2-.9-.4-1.3-.5l-.4-.1c-.2-.1-.1-.6.1-.7.9.1 2.2.1 2.8.1.5 0 1.1 0 1.7-.1.4 1 3 4.1 3.9 5l2.4 2.6 3.5 3.8c.1-.1.1-.2.1-.6v-4.7c0-1.8 0-4-.5-4.7-.2-.4-.6-.5-1.2-.6H57c-.2-.2-.2-.6.1-.7l2.8.1 2.5-.1c.2.1.2.5 0 .7l-.6.1c-.5.1-.9.2-1 .6-.3.7-.3 2.8-.3 4.7v5.7zm11.9-11.2c3.8 0 5.5 4.2 5.5 7.8 0 4.8-2.2 6.9-5 6.9-4.1 0-5.5-4.5-5.5-7.8-.1-5.1 2.6-6.9 5-6.9zm.3-.9c-5.1 0-8.6 3.6-8.6 8.5 0 4.3 3.1 8.1 8.6 8.1 4.9 0 8.5-3.5 8.5-8.3-.1-4.3-3-8.3-8.5-8.3zm15.9 2.4c0-1 0-1.1-.6-1.1h-.7c-2.2 0-2.9.3-3.7 2.2-.2.1-.7.1-.8-.2.4-1.3.8-2.8.9-3.6 0-.1.1-.1.3-.1.1 0 .2 0 .2.1.1.6.5.6 2.1.6h8.5c1.2 0 1.5-.1 1.8-.6.1 0 .2-.1.3-.1s.3 0 .3.1c-.2 1-.4 3.1-.4 3.8-.1.2-.5.2-.7.1-.3-1.9-.8-2.3-3.3-2.3H92c-.6 0-.7 0-.7 1.1v10.4c0 2.5.2 2.6 1.4 2.7l.9.1c.2.2.1.6 0 .7-1.5 0-2.6-.1-3.6-.1l-3.7.1c-.2-.1-.2-.6 0-.7l1-.1c1.1-.1 1.3-.2 1.3-2.7V18.2zm15.7 0c0-1.1 0-1.2 1.3-1.2 2.1 0 3.3 1.7 3.3 3.6 0 2.3-1.1 3.4-3.4 3.4-1.2 0-1.2 0-1.2-.8v-5zm-2.8 10.4c0 2.5-.2 2.6-1.3 2.8l-.5.1c-.2.2-.1.6 0 .7l3.2-.1 3.2.1c.2-.1.2-.5.1-.7l-.5-.1c-1.1-.1-1.4-.2-1.4-2.8v-3.1c0-.5 0-.5.7-.5.8 0 1.1.1 1.5.8.6.9 1.3 2.3 1.9 3.3 1.5 2.2 2.7 3.2 5 3.2.8 0 1.3-.1 1.6-.1.1-.1.1-.4 0-.5-.3 0-1-.2-1.7-.7-1.1-.9-2.3-3-4.3-6.2-.1-.1-.1-.3 0-.4 1.2-.5 2.9-1.6 2.9-3.8 0-1.7-.9-2.9-2.1-3.5-1.1-.6-2.7-.8-4.6-.8l-5.5.2c-.2.1-.2.5 0 .7l.6.1c1.1.1 1.2.4 1.2 2.7v8.6zm17.6-9c0-2.6-.2-2.6-1.3-2.8l-.4-.1c-.2-.2-.1-.6.1-.7h7.7l3.2-.1c.1.4.2 2.3.4 3.3-.1.2-.6.2-.8.1-.4-1.4-.7-2-1.5-2.2-.6-.2-1.3-.2-1.9-.2H123c-1 0-1 0-1 1.4v4.1c0 .6 0 .7.6.7h1.1c2.1 0 2.5 0 2.7-1.1l.2-.8c.2-.2.7-.2.8 0l-.1 2.4.1 2.5c-.1.2-.6.2-.8 0l-.2-1c-.2-1-.6-1.1-2.7-1.1h-1.1c-.6 0-.6 0-.6.7V28c0 1.2 0 2.1.4 2.5.3.3.7.5 2.7.5 3.1 0 3.6-.7 4.4-2.6.2-.2.6-.1.8.1-.1 1-.7 2.8-1 3.5h-8.6l-3.6.1c-.2-.1-.2-.5 0-.7l.9-.1c1.1-.1 1.3-.2 1.3-2.7v-9zm24.4-.4c0-1.1 0-1.6.2-1.8s.9-.3 1.9-.3c4 0 6.8 2.3 6.8 7.1 0 4.1-1.9 7.1-6.2 7.1-2.6 0-2.7-1.2-2.7-3.6v-8.5zm-2.8 9.4c0 2.5-.2 2.6-1.3 2.8l-.5.1c-.2.2-.1.6.1.7l3.1-.1c.5 0 1 0 1.5.1.6 0 1.2.1 2 .1 2.2 0 4.3-.3 6-1.2 3-1.5 4.3-4.3 4.3-6.9 0-3.6-2.1-6.1-4.9-7.2-1.8-.6-3.4-.8-5.7-.8l-6 .2c-.2.1-.2.5 0 .7l.5.1c1.1.1 1.2.4 1.2 2.7v8.7zM162 25c-.6 0-.6 0-.4-.7l1-2.8.7-1.9c.1.2.3.6.7 1.9l1 2.9c.2.6.1.6-.6.6H162zm2.8 1.1c.7 0 .7 0 1 .7l1.1 3.3c.3 1 .2 1.2-.6 1.3l-.5.1c-.1.2-.1.6.1.7l2.9-.1 3.1.1c.2-.1.2-.5 0-.7l-.4-.1c-1.2-.2-1.4-.4-1.9-2l-3.5-10.1L165 16c-.1-.1-.2-.2-.4-.2-.1 0-.8 1-1.7 1.2.1.4-.1 1-.5 1.8l-3.3 8.6-1.2 2.9c-.4.8-.6 1-1.3 1.1l-.7.1c-.2.2-.1.6 0 .7l2.4-.1 2.5.1c.2-.1.2-.5 0-.7l-.7-.1c-.9-.1-1-.2-.5-1.6l1-2.9c.2-.7.2-.7.8-.7h3.4zm29.2 5.3c.2.1.2.6 0 .7-1 0-2-.1-2.9-.1l-3.2.1c-.2-.1-.3-.6-.1-.7l.7-.1c1-.1 1-.3 1-2v-9.8a25.02 25.02 0 0 0-1.4 3l-2.1 4.2-2.5 5.5c-.1.1-.5.1-.6 0-.4-1.3-1.4-3.7-2-4.9l-2.1-4.6c-.5-1-1.1-2.5-1.4-3.2h-.1l-.1 4.1-.1 5.6c0 1.6 0 2 1.1 2.1l.8.1c.2.2.2.6 0 .7-.9 0-1.6-.1-2.5-.1l-2.6.1c-.2-.1-.2-.6-.1-.7h.4c1.2-.1 1.3-.5 1.5-2s.2-3.1.4-5.6l.2-5.1c0-1.1-.4-1.6-1.3-1.8l-.8-.1c-.1-.2-.1-.6.1-.7l2.3.1 2.6-.1c.1 1.4.7 2.7 1.3 4l2.7 5.6 1.1 2.2 1.3-2.5 2.3-4.6c.8-1.6 1.5-3 1.9-4.6.7 0 1.5.1 2 .1l2.5-.1c.3.1.3.6.1.7l-.8.1c-1.1.1-1.3.6-1.3 1.8 0 3.6 0 7.1.2 10.7.1 1.6.3 1.8 1.1 1.9h.4zm5.1-11.8c0-2.6-.2-2.6-1.3-2.8l-.4-.1c-.2-.2-.1-.6 0-.7h7.7l3.2-.1c.1.4.2 2.3.4 3.3-.1.2-.6.2-.8.1-.4-1.4-.7-2-1.5-2.2-.6-.2-1.3-.2-1.9-.2h-1.6c-1 0-1 0-1 1.4v4.1c0 .6 0 .7.6.7h1.2c2.1 0 2.5 0 2.7-1.1l.2-.8a.61.61 0 0 1 .8 0l-.1 2.4.1 2.5c-.1.2-.6.2-.8 0l-.2-1c-.2-1-.6-1.1-2.7-1.1h-1.2c-.6 0-.6 0-.6.7V28c0 1.2.1 2.1.4 2.5.3.3.7.5 2.7.5 3.1 0 3.6-.7 4.4-2.6.2-.2.6-.1.8.1-.1 1-.7 2.8-1 3.5h-8.6l-3.6.1c-.2-.1-.2-.5 0-.7l.9-.1c1.1-.1 1.3-.2 1.3-2.7v-9zM46.4 2.8c0-1.5-.1-1.5-1-1.7L45 1c-.1-.1-.1-.5 0-.5l2.1.1 2.2-.1c.2.1.2.4 0 .5h-.2c-.9.2-1 .2-1 1.7v3.1c0 2.2.7 3.7 2.8 3.7 2 0 2.8-1.5 2.8-3.6v-2c0-2.2-.1-2.7-1.1-2.8l-.5-.1c-.1-.1-.1-.4 0-.5.7 0 1.2.1 1.8.1s1.1 0 1.8-.1c.3 0 .3.3.1.5h-.6c-.6.1-.7.7-.7 2.8V6c0 2.8-1.3 4.2-4.1 4.2-1.4 0-2.4-.3-3.1-.9-.7-.7-.9-1.7-.9-3.1V2.8zm23.9 1c0-2.2-.1-2.7-.9-2.8h-.7c-.2-.1-.1-.4 0-.5.8 0 1.3.1 1.9.1s1.1 0 1.8-.1c.2.1.2.4 0 .5h-.6c-.6.1-.7.7-.7 2.8v3.7l.1 2.5c-.1.1-.3.2-.5.2-.2-.3-.7-.8-2-2.2l-3.3-3.5-1.7-1.7c-.1 0-.1.2-.1.9v2.9c0 2.2.1 2.7.9 2.8l.7.1c.2.1.1.4 0 .5-.8 0-1.3-.1-1.9-.1s-1 0-1.8.1c-.2-.1-.2-.4 0-.5l.7-.1c.6-.1.7-.7.7-2.8V2.7c0-.7 0-1-.5-1.3-.2-.1-.6-.3-.8-.3l-.4-.1c-.2-.1-.2-.5 0-.5.8.1 1.4.1 1.9.1.3 0 .6 0 .9-.1.4.8 1.2 1.8 2.1 2.7l2.1 2.1c.5.5 1.7 1.9 2 2 .1 0 .1-.4.1-.9V3.8zm9.4-1c0-1.5-.1-1.6-1-1.7l-.5-.1c-.2-.1-.1-.5 0-.5l2.2.1 2.2-.1c.2.1.2.4 0 .5h-.3c-.9.2-1 .2-1 1.7v4.9c0 1.5.1 1.6 1 1.7l.4.1c.2.1.1.5 0 .5-.8 0-1.6-.1-2.2-.1l-2.2.1c-.2-.1-.2-.4 0-.5l.4-.1c.9-.2 1-.2 1-1.7V2.8zm10 0c-.7-1.4-.7-1.5-1.3-1.7l-.7-.1c-.1-.1-.2-.4 0-.5.6 0 1.3.1 2 .1l2.1-.1c.2 0 .2.3 0 .5h-.5c-.6.1-.6.4-.1 1.4l1.1 2.4 1.2 2.8 1.2-2.7c.5-1 1.1-2.5 1.3-3.1.2-.5.1-.6-.5-.7l-.3-.1c-.2-.1-.1-.4 0-.5.6 0 1.2.1 1.8.1.7 0 1.2 0 1.5-.1.2.1.3.4.1.5l-.6.1c-.7.1-.8.3-1.5 1.8l-1.7 3.6c-.7 1.4-1.3 3-1.5 3.7-.1.1-.2.1-.3.1s-.2 0-.3-.1c-.2-.6-.4-1.3-.7-1.9l-2.3-5.5zm15.1 0c0-1.5-.1-1.6-.9-1.7l-.3-.1c-.2-.1-.1-.5 0-.5h5.1c1 0 1.8 0 2-.1 0 .3.1 1.3.2 2.2-.1.2-.4.2-.6 0-.1-.6-.3-.8-.4-1-.3-.5-1.3-.5-1.8-.5h-1c-.8 0-.8 0-.8.7v2.4c0 .4 0 .4.4.4h1c1.2 0 1.3-.2 1.4-.8l.1-.4c.1-.2.4-.1.5 0v3.1c-.1.2-.4.2-.5 0l-.1-.4c-.2-.7-.3-.8-1.4-.8h-1c-.4 0-.4.1-.4.5v1.6c0 .7 0 1.3.2 1.6.2.2.6.3 1.8.3 1.4 0 2.2-.1 2.8-1.8.2-.1.5-.1.6.1-.1.9-.4 2-.7 2.4h-5.6l-2.4.1c-.2-.1-.2-.4 0-.5l.6-.1c.9-.1 1-.2 1-1.7v-5zm15.6-1.1c0-.6.2-.6 1-.6 1.5 0 2.3 1 2.3 2 0 1.5-.7 2.1-2.2 2.1-1.1 0-1.1 0-1.1-.5v-3zm-1.6 5.9c0 1.5-.1 1.5-1 1.7l-.3.1c-.2.1-.2.5 0 .5l2.1-.1 2.3.1c.2-.1.2-.4 0-.5l-.5-.1c-.9-.1-1-.2-1-1.7V6.1c0-.3 0-.3.6-.3.3 0 .7.1.9.3.5.7 1 1.7 1.6 2.4 1 1.2 1.7 1.6 3 1.6.4 0 .7 0 .9-.1.1-.1.1-.3 0-.3-.3 0-.8-.1-1.2-.5-.7-.6-1.7-1.7-2.8-3.5-.1-.1-.1-.2 0-.3.9-.3 1.9-.9 1.9-2.3 0-2.3-2.2-2.6-4.2-2.6l-3.6.1c-.2.1-.2.5 0 .5l.6.1c.5.1.5.4.5 1.9v4.5zm15.8-2.1c-1-.5-1.9-1.4-1.9-2.6 0-1.6 1.2-2.7 3.4-2.7.8 0 1.3.2 2 .3.2.4.3 1.2.3 2.1a.38.38 0 0 1-.6 0c-.2-.8-.7-1.9-2-1.9s-1.8.7-1.8 1.5.6 1.3 1.5 1.7l1.4.7c.8.4 1.8 1.3 1.8 2.8 0 1.7-1.4 2.8-3.5 2.8-1.3 0-2.2-.5-2.5-.7-.2-.3-.5-1.1-.5-2.2.1-.2.4-.2.6 0 .2.8 1.1 2.3 2.6 2.3 1.1 0 1.8-.6 1.8-1.6 0-.7-.3-1.4-1.5-2l-1.1-.5z"/><path d="M146 2.8c0-1.5-.1-1.6-1-1.7l-.4-.1c-.2-.1-.1-.5 0-.5l2.2.1 2.2-.1c.2.1.2.4 0 .5h-.3c-.9.2-1 .2-1 1.7v4.9c0 1.5.1 1.6 1 1.7l.4.1c.2.1.1.5 0 .5-.8 0-1.5-.1-2.2-.1l-2.2.1c-.2-.1-.2-.4 0-.5l.4-.1c.9-.2 1-.2 1-1.7V2.8zm12.5-1.1c0-.6 0-.6-.5-.6h-.7c-1.3 0-1.9.1-2.4 1.6-.2.1-.5.1-.5-.1L155 0c.1-.1.3-.1.4 0 0 .4.3.4 1.2.4h6.1c.8 0 1 0 1.1-.4.2-.1.3 0 .4.1-.2.6-.3 1.7-.2 2.5-.1.2-.5.2-.5 0-.2-1.4-.7-1.6-2-1.6h-.7c-.4 0-.5 0-.5.6v6c0 1.5.1 1.6 1 1.7l.6.1c.1.1.1.5 0 .5-.9 0-1.7-.1-2.4-.1l-2.4.1c-.2-.1-.2-.4 0-.5l.6-.1c.9-.1 1-.2 1-1.7V1.7zM172.9 7c0-.7-.1-.8-.6-1.9l-1.6-2.9c-.5-.9-.7-1.1-1.2-1.2h-.6c-.2-.1-.1-.5.1-.5.7 0 1.2.1 2 .1.7 0 1.2 0 1.9-.1.2.1.2.4 0 .5h-.4c-.5.1-.6.2-.2.9l.8 1.5c.3.7.6 1.2 1 1.8.3-.6.7-1.1 1-1.8l.9-1.6c.3-.6.4-.8-.2-.9l-.4.1c-.2-.1-.2-.5 0-.5.7 0 1.2.1 1.7.1s.9 0 1.5-.1c.2.1.2.4.1.5l-.5.1c-.7.1-.8.3-1.5 1.4l-1.3 2.2c-.8 1.2-.8 1.5-.8 2.1V8c0 1.3.1 1.4 1 1.5l.6.1c.1.1.1.5-.1.5-1 0-1.7-.1-2.3-.1l-2.3.1c-.2-.1-.2-.4-.1-.5l.6-.1c.9-.1 1-.2 1-1.5V7zM191.5.7c2.4 0 3.5 2.4 3.5 4.7 0 3-1.6 4.1-3.2 4.1-2.5 0-3.6-2.4-3.6-4.7 0-3 1.8-4.1 3.3-4.1zm.2-.6c-3.2 0-5.4 2.2-5.4 5.1 0 2.7 2 4.9 5.4 4.9 3.1 0 5.3-2.1 5.3-5.1 0-2.6-1.8-4.9-5.3-4.9zm10.8 2.7c0-1.5-.1-1.5-.9-1.7l-.3-.1c-.2-.1-.1-.5 0-.5h4.9l2.1-.1.1 2.2c-.1.2-.4.2-.6 0-.1-.6-.3-.8-.4-1-.4-.5-1.3-.5-1.9-.5h-.8c-.7 0-.7 0-.7.8v2.5c0 .4 0 .4.4.4h1.2c1.2 0 1.3-.2 1.4-.8l.1-.4c.1-.2.4-.1.5 0v3.1c-.1.2-.4.2-.5 0l-.1-.4c-.2-.7-.3-.8-1.4-.8h-1.2c-.4 0-.4.1-.4.5v1.6c0 1.5.1 1.7 1 1.7l.7.1c.1.1.1.5 0 .5-1.1 0-1.8-.1-2.5-.1l-2.2.1c-.2-.1-.2-.4 0-.5l.4-.1c.9-.2 1-.2 1-1.7V2.8zM6.5 6.4c-.4 0-2.4-.4-2.4-.4l1.6 1.8c-.3.3-1.6 1.8-1.6 1.8l2.4-.5c.1.4.8 2.3.8 2.3L8 9.1l2.4.5-1.6-1.8c.3-.3 1.6-1.8 1.6-1.8L8 6.4l-.7-2.3-.8 2.3zm.8-.5a15.16 15.16 0 0 1 .4 1.2l1.2-.2-.8 1 .8.9c-.5-.2-1.2-.3-1.2-.3s-.3.7-.4 1.2l-.5-1.2-1.2.2c.3-.4.8-.9.8-.9l-.8-1 1.2.2.5-1.1zm.7 30h0zm4.3-12.7c.1-.3.2-.5.3-.7.1-.1.1-.1.2-.1h.1v-.1h-.6v.1h.1c.1 0 .1 0 .1.2-.2.4-.3.8-.5 1.2 0-.1-.1-.2-.2-.4l-.2-.5c-.1-.3-.1-.4-.1-.4l.1-.1h.1v-.1h-.8v.1h.1c.1 0 .2.1.2.3l.5 1.3c.1.1.1.3.1.4h.2c.1-.2.2-.5.3-.8v-.4zm1.4.7c0 .3 0 .3.2.3h.1v.1h-.8v-.1h.1c.1 0 .2 0 .2-.3v-1.1c0-.3 0-.3-.2-.4h-.1v-.1h.8v.1h-.1c-.1 0-.2 0-.2.4v1.1z"/><path d="M14.9 22.5c0-.1 0-.1-.1-.1h-.2c-.3 0-.4 0-.5.3H14c.1-.2.1-.4.1-.5 0 .1.1.1.3.1h1.2c.1 0 .2 0 .2-.1 0 .1-.1.4 0 .5h-.1c0-.2-.1-.3-.4-.3h-.2c-.1 0-.1 0-.1.1v1.3c0 .3 0 .3.2.3h.1v.1h-.9v-.1h.1c.1 0 .2 0 .2-.3v-1.3zm2 1.1c.1 0 .1 0 .1.1l.1.4c0 .1 0 .2-.1.2h-.1v.1h.8v-.1c-.2 0-.2 0-.2-.3l-.4-1.3c0-.1-.1-.3-.1-.4 0 0-.1.1-.2.1 0 0 0 .1-.1.2l-.4 1.1c-.1.2-.1.3-.2.4 0 .1-.1.1-.2.1h-.1v.1h.6v-.1h-.1c-.1 0-.1 0-.1-.2l.1-.3c0-.1 0-.1.1-.1h.5zm-.3-.1c-.1 0-.1 0-.1-.1l.1-.4c.1-.1.1-.2.1-.2h0s0 .1.1.2l.1.4c0 .1 0 .1-.1.1h-.2zm-4.7 2.6v-.2h.2c.5 0 .8.3.8.9 0 .5-.2.9-.7.9-.3 0-.3-.2-.3-.5v-1.1zm-.3 1.2c0 .3 0 .3-.2.4h-.1v.1h.8c.3 0 .5 0 .7-.1.3-.2.5-.5.5-.9 0-.5-.2-.8-.6-.9-.2-.1-.4-.1-.7-.1h-.7v.1h.1c.1 0 .1.1.1.4v1z"/><path d="M13.7 26.1c0-.3 0-.3-.2-.4h-.1v-.1h.8v.1h-.1c-.1 0-.2 0-.2.4v.7c0 .4.1.8.5.8s.6-.3.6-.8v-.4c0-.2 0-.5-.1-.6l-.1-.1h-.1v-.1h.6v.1h-.1c-.1 0-.1 0-.1.1v1c0 .3 0 .5-.2.7s-.4.2-.6.2c-.3 0-.5-.1-.6-.2s-.2-.3-.2-.7v-.7zm2.7 0c0-.3 0-.3.2-.3h.1v-.1h-.8v.1h.1c.1 0 .2 0 .2.3v1.1c0 .3 0 .3-.2.3h-.1v.1h1.4c0-.1.1-.3.1-.4h-.1c-.1.3-.2.3-.5.3-.2 0-.3 0-.3-.1v-1.3z"/><path d="M17 26.7h0c.1-.1.2-.2.3-.2 0 0 .1 0 .2.1h0c.2.1.3.1.4.1s.3-.1.3-.3h0-.1c0 .1-.1.2-.2.2s-.1 0-.3-.1-.3-.1-.3-.1-.3 0-.3.3zm13.1-6.9v-1.6s-2.1.9-5.7.4c-3.4-.5-4.8.4-4.8.4s-1.4-.9-4.8-.4c-3.7.5-5.8-.4-5.8-.4v1.6H8V32h10s.5.6 1.6.6 1.6-.6 1.6-.6h10V19.8h-1.1zm-11 11s-1.2-.8-4.6-.4-4.7-.4-4.7-.4V19.3s1.4.6 4.9.1c3.4-.4 4.4.4 4.4.4v11zm10.2-.7s-1.2.8-4.7.3c-3.4-.4-4.6.4-4.6.4V19.9s1-.8 4.4-.4 4.9-.1 4.9-.1v10.7z"/><path d="M22.4 22.8c-.1 0-.1 0 0 0-.1-.2-.2-.4-.6-.4-.3 0-.7.3-.7.9s.4.9.7.9.5-.2.6-.4h.1c0 .2-.1.4-.1.4h-.1c-.1 0-.2.1-.4.1-.3 0-.5-.1-.7-.2-.2-.2-.4-.4-.4-.8 0-.3.1-.6.3-.8s.5-.2.7-.2a.9.9 0 0 1 .5.1h.1c-.1 0-.1.2 0 .4z"/><path d="M22.9 22.7c0-.3 0-.3-.2-.4h0v-.1H24v.4h-.1c0-.2-.1-.3-.2-.3h-.4c-.1 0-.1 0-.1.2v.6c0 .1 0 .1.1.1h.1c.3 0 .3 0 .3-.1V23h.1v.6h-.1v-.1c0-.1-.1-.1-.3-.1h-.1c-.1 0-.1 0-.1.1v.4c0 .2 0 .3.1.3 0 0 0 .1.3.1.4 0 .4-.1.5-.3h.1c0 .1-.1.4-.1.4h-1.3v-.1h.1c.1 0 .2 0 .2-.4v-1.2z"/><path d="M24.9 22.7v-.2h.1c.5 0 .8.3.8.9 0 .5-.2.9-.7.9-.3 0-.2-.2-.2-.5v-1.1zm-.3 1.2c0 .3 0 .3-.2.4h-.1v.1h.8c.3 0 .5 0 .6-.1.4-.2.5-.5.5-.9 0-.5-.2-.8-.6-.9-.2-.1-.4-.1-.6-.1h-.7v.1h.1c.1 0 .1.1.1.3v1.1zm2.9-1.6c.4 0 .6.5.6 1 0 .6-.3.9-.6.9-.5 0-.6-.6-.6-1 0-.6.3-.9.6-.9zm0-.1c-.6 0-1 .5-1 1.1 0 .5.4 1 1 1s1-.4 1-1.1c0-.5-.3-1-1-1zm-6 5.4c-.1-.1-.1-.3-.1-.5h.1c.1.2.2.5.5.5.2 0 .4-.1.4-.3s-.1-.3-.3-.4l-.1-.1c-.2-.1-.4-.3-.4-.6s.2-.6.7-.6c.2 0 .3 0 .4.1 0 .1.1.3.1.4h-.1c0-.2-.1-.4-.4-.4-.2 0-.3.2-.3.3s.1.3.3.4l.2.1c.2.1.4.3.4.6s-.3.6-.7.6c-.5.1-.7 0-.7-.1z"/><path d="M23.2 26.1c0-.3 0-.3-.1-.3H23v-.1h.7c.3 0 .5 0 .6.1.2.1.2.3.2.5 0 .5-.4.6-.7.6h-.1v-.1c.3-.1.4-.3.4-.5 0-.3-.2-.5-.4-.5-.1 0-.1 0-.1.1v1.3c0 .3 0 .3.2.3h.1v.1h-.8v-.1c.1 0 .2 0 .2-.4v-1z"/><path d="M25 27.3c0 .3 0 .3-.2.3h-.1v.1H26c0-.1.1-.3.1-.4H26c-.1.2-.1.3-.5.3-.2 0-.3 0-.3-.1s-.1-.2-.1-.3v-.3c0-.1 0-.1.1-.1h.1c.3 0 .3 0 .3.1v.1h.1v-.6h-.1v.1c0 .1-.1.1-.3.1h-.1c-.1 0-.1 0-.1-.1V26c0-.2 0-.2.1-.2h.4c.1 0 .1.1.2.3h.1v-.4h-1.4v.1c.1 0 .2 0 .2.4v1.1zm1.7.3c-.1-.1-.1-.3-.1-.5h.1c.1.2.2.5.5.5.2 0 .4-.1.4-.3s-.1-.3-.3-.4l-.1-.1c-.2-.1-.4-.3-.4-.6s.2-.6.7-.6c.2 0 .3 0 .4.1 0 .1.1.3.1.4h-.1c0-.2-.1-.4-.4-.4-.2 0-.3.2-.3.3s.1.3.3.4l.2.1c.2.1.4.3.4.6s-.3.6-.7.6c-.5.1-.6 0-.7-.1zM19.5.5H0v17.8c0 16.9 10.8 26 19.5 31 8.8-4.9 19.5-14 19.5-31V.5H19.5zm0 45.6c-1-.5-1.9-1.1-2.9-1.8.8-.3 1.5-.9 2.9-.9s2.1.5 2.9.9c-.9.6-1.9 1.2-2.9 1.8zm6.8-4.9c-.5.4-.7.6-1.2.7-.2 0-.7.1-.7.1-2 0-2.4-1.2-4.9-1.2-2.4 0-2.9 1.2-4.9 1.2 0 0-.5 0-.7-.1-.5-.1-.7-.2-1.2-.7-1-.9-1.8-1.7-2.7-2.8 1.8 0 2.3 1.1 4.6 1.1 2 0 2.4-1.2 4.9-1.2 2.4 0 2.9 1.2 4.9 1.2 2.4 0 2.8-1.1 4.6-1.1-.8 1.1-1.7 1.9-2.7 2.8zm10.1-22.7c0 7.2-2.2 12.9-5.4 17.4 0 0-.6-.2-1.6-.2-2 0-2.6 1.2-5.1 1.2-1.5 0-2.1-.7-3.3-1V33s-.4.5-1.6.5-1.6-.5-1.6-.5v2.9c-1.2.3-1.8 1-3.3 1-2.4 0-3-1.2-5.1-1.2-1 0-1.6.2-1.6.2-3.2-4.5-5.4-10.2-5.4-17.4V3.1h33.8l.2 15.4zm-15.3-3.4h6.7l2.3 1.3V11l-2.3 1.3h-6.7V7.1l1.3-2.3h-5.8L18 7.1v5.2h-6.7L9 11v5.4l2.3-1.3H18v2.7s.9.1 1.6.5c.7-.4 1.6-.5 1.6-.5l-.1-2.7z"/></svg>