<?xml version="1.0" encoding="utf-8"?>
<!-- Generator: Adobe Illustrator 25.0.1, SVG Export Plug-In . SVG Version: 6.00 Build 0)  -->
<svg version="1.1" id="Layer_1" xmlns="http://www.w3.org/2000/svg" xmlns:xlink="http://www.w3.org/1999/xlink" x="0px" y="0px"
	 width="300px" height="300px" viewBox="0 0 300 300" style="enable-background:new 0 0 300 300;" xml:space="preserve">
<style type="text/css">
	.st0{fill:#666766;}
	.st1{fill:none;}
	.st2{fill:#FFFFFF;}
</style>
<rect y="0" class="st0" width="300" height="300"/>
<path class="st1" d="M79.2,79.2h141.5v141.5H79.2V79.2z"/>
<path class="st2" d="M197.2,91h-70.8c-6.5,0-11.8,5.3-11.8,11.8v70.8c0,6.5,5.3,11.8,11.8,11.8h70.8c6.5,0,11.8-5.3,11.8-11.8v-70.8
	C209,96.3,203.7,91,197.2,91z M147.1,135.3c0,4.9-4,8.8-8.8,8.8h-5.9v11.8h-8.8v-35.4h14.7c4.9,0,8.8,4,8.8,8.8V135.3z M176.5,147.1
	c0,4.9-4,8.8-8.8,8.8h-14.7v-35.4h14.7c4.9,0,8.8,4,8.8,8.8V147.1z M200.1,129.4h-8.8v5.9h8.8v8.8h-8.8v11.8h-8.8v-35.4h17.7V129.4z
	 M132.3,135.3h5.9v-5.9h-5.9V135.3z M102.8,114.6H91v82.5c0,6.5,5.3,11.8,11.8,11.8h82.5v-11.8h-82.5V114.6z M161.8,147.1h5.9v-17.7
	h-5.9V147.1z"/>
</svg>
