<svg xmlns="http://www.w3.org/2000/svg" viewBox="0 0 218.36 11.8">
  <g style="fill: white;">
    <path d="M1,2.39C1,1.27.91,1.2.37,1.09L.07,1A.29.29,0,0,1,.1.62c.57,0,1.17,0,1.75,0S3,.65,3.6.62A.34.34,0,0,1,3.6,1l-.29.05c-.54.1-.61.19-.61,1.31V5.16c0,1.4.16,2.95,2,2.95,1.53,0,2-1.35,2-3V3.67A8.38,8.38,0,0,0,6.5,1.48c-.11-.26-.37-.33-.69-.39L5.48,1a.38.38,0,0,1,0-.41c.65,0,1.12,0,1.61,0s.89,0,1.34,0a.36.36,0,0,1,0,.41l-.21.05c-.32.07-.54.14-.65.4a8.38,8.38,0,0,0-.18,2.19V5A4.15,4.15,0,0,1,6.62,7.9a3.21,3.21,0,0,1-2.37.87A3.67,3.67,0,0,1,1.87,8.1,3.36,3.36,0,0,1,1,5.38Z"/>
    <path d="M18.78,6.54c0,.78,0,1.53,0,1.93a1,1,0,0,1-.71.27s-.4-.61-1-1.3L14.35,4A15,15,0,0,0,13,2.47a2.15,2.15,0,0,0-.06.77V5.57a8.43,8.43,0,0,0,.18,2.19.8.8,0,0,0,.7.38l.34,0a.4.4,0,0,1,0,.42l-1.61,0-1.34,0a.36.36,0,0,1,0-.42l.2,0c.32-.06.56-.15.66-.4a8.55,8.55,0,0,0,.17-2.19V2.52a2.74,2.74,0,0,0-.09-1c-.09-.2-.26-.35-.68-.41L11.17,1c-.08-.09-.07-.38.05-.42.57,0,1.16,0,1.66,0a9.17,9.17,0,0,0,1,0,10.39,10.39,0,0,0,2,2.74l1,1.19c.53.62.88,1,1.15,1.32a1.68,1.68,0,0,0,.05-.54V3.67a8.43,8.43,0,0,0-.18-2.19c-.11-.26-.37-.34-.7-.39L16.87,1a.38.38,0,0,1,0-.42c.65,0,1.12,0,1.61,0s.87,0,1.34,0a.38.38,0,0,1,0,.42l-.21,0c-.32,0-.54.14-.65.4a8.43,8.43,0,0,0-.18,2.19Z"/>
    <path d="M25.42,6.82c0,1.13.07,1.22.62,1.31l.34.06a.35.35,0,0,1,0,.42l-1.8,0-1.82,0a.36.36,0,0,1,0-.42l.34-.06c.55-.09.62-.18.62-1.31V2.41c0-1.13-.07-1.21-.62-1.31L22.74,1a.36.36,0,0,1,0-.42c.65,0,1.25,0,1.82,0s1.17,0,1.82,0a.36.36,0,0,1,0,.42L26,1.1c-.55.1-.62.18-.62,1.31Z"/>
    <path d="M34.62,5.6C34,7.05,33.7,8,33.42,8.67a.81.81,0,0,1-.42.1.49.49,0,0,1-.32-.1c-.14-.32-.34-1-.51-1.37L30.23,2.42c-.46-1.15-.52-1.17-.9-1.27L28.85,1a.3.3,0,0,1,0-.41c.61,0,1,0,1.63,0s1.07,0,1.8,0a.38.38,0,0,1,0,.41L32,1.1c-.22,0-.3.12-.3.23a9.42,9.42,0,0,0,.48,1.32l1.06,2.7.39,1c.1-.21.29-.61.43-1l.46-1.12c.3-.76.81-2.1,1-2.51a1.79,1.79,0,0,0,.12-.43c0-.08-.1-.13-.39-.2L34.81,1c-.1-.09-.1-.35,0-.41.56,0,1,0,1.47,0s.77,0,1.12,0a.34.34,0,0,1,0,.41l-.31.06a.88.88,0,0,0-.69.4,12.72,12.72,0,0,0-1,2Z"/>
    <path d="M42.37,3.78c0,.33,0,.36.34.36h.82c.63,0,.77-.09.89-.66l.06-.3c.09-.1.39-.1.45,0,0,.38,0,.82,0,1.27s0,.89,0,1.27c-.06.11-.36.12-.45,0l-.06-.3c-.12-.58-.26-.68-.89-.68h-.82c-.33,0-.34,0-.34.38V6.57a2.22,2.22,0,0,0,.19,1.14c.16.22.39.31,1.26.31,1,0,1.45,0,2.11-1.39a.3.3,0,0,1,.45.06,6.69,6.69,0,0,1-.51,1.92c-.63,0-1.78,0-2.77,0H41.54l-2.06,0a.36.36,0,0,1,0-.42L40,8.11c.54-.09.62-.16.62-1.26V2.38c0-1.1-.08-1.17-.62-1.28L39.74,1a.31.31,0,0,1,0-.42c.56,0,1.15,0,1.73,0H44c.77,0,1.45,0,1.61,0,0,.2.09,1.06.15,1.86,0,.13-.32.16-.44,0a2.7,2.7,0,0,0-.46-.95,1.61,1.61,0,0,0-1.17-.37h-1c-.4,0-.4,0-.4.47Z"/>
    <path d="M50.17,2.6c0-1.2,0-1.33-.53-1.4l-.32-.05a.28.28,0,0,1,0-.42c.9-.06,1.84-.11,3-.11a5,5,0,0,1,2.35.44,2,2,0,0,1-.22,3.57c-.12.06-.12.13-.06.26a10.06,10.06,0,0,0,1.86,3,1.52,1.52,0,0,0,.81.34.23.23,0,0,1,0,.31,2.94,2.94,0,0,1-.94.11,2.46,2.46,0,0,1-2.33-1.26,14.67,14.67,0,0,1-.93-1.86.62.62,0,0,0-.64-.42c-.42,0-.44,0-.44.26V6.85c0,1.1.07,1.19.61,1.28l.32.06a.36.36,0,0,1,0,.42L51,8.58c-.6,0-1.13,0-1.75,0a.33.33,0,0,1,0-.42l.32-.06c.54-.09.61-.18.61-1.28Zm1.65,1.53c0,.42,0,.45.74.45a1.18,1.18,0,0,0,.91-.33A1.78,1.78,0,0,0,53.9,3a1.58,1.58,0,0,0-1.57-1.77c-.49,0-.51,0-.51.61Z"/>
    <path d="M61.87,8.77a4.09,4.09,0,0,1-2-.46,3.86,3.86,0,0,1-.38-1.94.29.29,0,0,1,.45,0C60.14,7.11,61,8.22,62,8.22A1.2,1.2,0,0,0,63.26,7c0-1-.91-1.54-1.63-1.9a2.76,2.76,0,0,1-1.81-2.34c0-1.36,1-2.29,2.78-2.29A5,5,0,0,1,64,.66a3.48,3.48,0,0,0,.41.1,6.08,6.08,0,0,1,.21,1.71.32.32,0,0,1-.46,0C63.92,1.9,63.41,1,62.54,1a1.11,1.11,0,0,0-1.22,1.11A1.74,1.74,0,0,0,62.41,3.5l.79.42a2.73,2.73,0,0,1,1.69,2.41c0,1.48-1.21,2.44-3,2.44"/>
    <path d="M70.73,6.82c0,1.13.07,1.22.62,1.31l.34.06a.35.35,0,0,1,0,.42l-1.79,0-1.83,0a.36.36,0,0,1,0-.42l.34-.06C68.94,8,69,8,69,6.82V2.41c0-1.13-.07-1.21-.62-1.31L68.05,1a.36.36,0,0,1,0-.42c.65,0,1.25,0,1.83,0s1.16,0,1.81,0a.36.36,0,0,1,0,.42l-.34.06c-.55.1-.62.18-.62,1.31Z"/>
    <path d="M77.55,1.56c0-.29,0-.35-.28-.35h-.75c-.87,0-1.12.48-1.48,1.36a.35.35,0,0,1-.45-.11,16.12,16.12,0,0,0,.4-2,.27.27,0,0,1,.17-.06.22.22,0,0,1,.16,0c.06.2.1.25,1,.25h4.46c.79,0,1,0,1.08-.26a.27.27,0,0,1,.16,0,.3.3,0,0,1,.18.08A8.24,8.24,0,0,0,82,2.51c-.06.1-.39.13-.45,0-.2-.76-.37-1.33-1.27-1.33h-.72c-.28,0-.32,0-.32.35V6.85c0,1.11.07,1.21.61,1.28l.48.06a.36.36,0,0,1,0,.42l-1.92,0-2,0a.36.36,0,0,1,0-.42l.54-.06c.54-.06.61-.17.61-1.28Z"/>
    <path d="M89.25,6.85c0,1.11.08,1.21.62,1.28l.48.06a.4.4,0,0,1,0,.42l-1.95,0-1.88,0a.33.33,0,0,1,0-.42l.41-.06c.54-.08.61-.17.61-1.28v-.6a2.42,2.42,0,0,0-.33-1.43L85.79,1.87c-.24-.49-.35-.68-.77-.75L84.61,1c-.11-.09-.09-.38,0-.42.54,0,1,0,1.69,0s1.34,0,1.75,0c.11.05.13.33,0,.42l-.41.1c-.22.05-.29.1-.29.11a3.14,3.14,0,0,0,.31.84l.57,1.28c.18.4.45,1,.6,1.25.34-.59.72-1.37,1-2a4.81,4.81,0,0,0,.57-1.36c0-.07-.19-.14-.48-.19L89.81,1c-.1-.06-.11-.36,0-.42.48,0,.91,0,1.34,0s.83,0,1.18,0c.14.05.14.34,0,.42l-.31.06a1.06,1.06,0,0,0-.62.29,13.84,13.84,0,0,0-1,1.7l-.75,1.37A2.67,2.67,0,0,0,89.25,6Z"/>
    <path d="M104.18,5.19a4.54,4.54,0,0,1-1.27,2.73,2.3,2.3,0,0,1-1.71.82c-.77,0-1.28-.56-1.2-1.59a4.47,4.47,0,0,1,1.3-2.69A2.36,2.36,0,0,1,103,3.68c.85,0,1.27.64,1.22,1.51M102,4.62a6.89,6.89,0,0,0-1.2,3c0,.42.14.76.49.76s.56-.1.95-.62a7.3,7.3,0,0,0,1.11-2.93c0-.37-.06-.79-.48-.79-.24,0-.52.11-.87.58"/>
    <path d="M107.06,4.29c-.07.21-.16.59-.31,1.12-.36,1.34-.68,2.49-1.07,3.81a4.73,4.73,0,0,1-.94,1.93,2.25,2.25,0,0,1-1.44.65c-.65,0-.88-.41-.88-.59a.7.7,0,0,1,.28-.54.19.19,0,0,1,.27.05,1.45,1.45,0,0,0,.91.49c.24,0,.5-.08.77-1,.55-1.9,1-4,1.55-5.92h-1c-.12-.1-.07-.33.09-.44h1A7.21,7.21,0,0,1,107.66,1a2.44,2.44,0,0,1,1.92-1,.88.88,0,0,1,.92.79c0,.31-.32.69-.51.69s-.16-.11-.17-.2c0-.66-.37-.87-.67-.87a1.23,1.23,0,0,0-.86.65,8.66,8.66,0,0,0-1.12,2.79h1.5a.32.32,0,0,1-.12.44Z"/>
    <path d="M125.82,6.54c0,.78,0,1.53,0,1.93a1,1,0,0,1-.71.27s-.41-.61-1-1.3L121.39,4a16.47,16.47,0,0,0-1.31-1.54,2.15,2.15,0,0,0-.06.77V5.57a8.43,8.43,0,0,0,.18,2.19.8.8,0,0,0,.7.38l.33,0a.36.36,0,0,1,0,.42l-1.6,0-1.35,0a.4.4,0,0,1,0-.42l.21,0c.32-.06.56-.15.66-.4a8.55,8.55,0,0,0,.17-2.19V2.52a2.74,2.74,0,0,0-.09-1,.77.77,0,0,0-.68-.41L118.21,1c-.08-.09-.07-.38.05-.42.56,0,1.16,0,1.65,0a9.26,9.26,0,0,0,1,0,10.39,10.39,0,0,0,2,2.74l1,1.19c.53.62.87,1,1.15,1.32a1.68,1.68,0,0,0,0-.54V3.67a8.43,8.43,0,0,0-.18-2.19c-.11-.26-.37-.34-.7-.39L123.91,1a.38.38,0,0,1,0-.42c.65,0,1.11,0,1.61,0s.87,0,1.34,0a.4.4,0,0,1,0,.42l-.22,0c-.31,0-.54.14-.64.4a8,8,0,0,0-.18,2.19Z"/>
    <path d="M138.34,4.58A4,4,0,0,1,134,8.77a3.92,3.92,0,0,1-4.16-4.09A4.13,4.13,0,0,1,134.13.47a4,4,0,0,1,4.21,4.11M134,1c-1.48,0-2.27,1.38-2.27,3.38,0,1.47.52,3.82,2.47,3.82,1.57,0,2.18-1.54,2.18-3.48S135.52,1,134,1"/>
    <path d="M143.93,1.56c0-.29,0-.35-.29-.35h-.75c-.87,0-1.12.48-1.48,1.36a.35.35,0,0,1-.45-.11,13.18,13.18,0,0,0,.4-2,.27.27,0,0,1,.17-.06.26.26,0,0,1,.17,0c.06.2.09.25,1,.25h4.46c.8,0,1,0,1.08-.26a.27.27,0,0,1,.16,0,.28.28,0,0,1,.18.08,8.74,8.74,0,0,0-.18,2.07c-.06.1-.38.13-.44,0-.21-.76-.38-1.33-1.28-1.33H146c-.28,0-.32,0-.32.35V6.85c0,1.11.07,1.21.61,1.28l.48.06a.36.36,0,0,1,0,.42l-1.92,0-2,0a.36.36,0,0,1,0-.42l.54-.06c.54-.06.62-.17.62-1.28Z"/>
    <path d="M152.37,2.6c0-1.2,0-1.33-.52-1.4l-.33-.05a.27.27,0,0,1,0-.42c.9-.06,1.83-.11,3-.11a5,5,0,0,1,2.35.44,2,2,0,0,1-.21,3.57c-.12.06-.12.13-.06.26a9.88,9.88,0,0,0,1.85,3,1.52,1.52,0,0,0,.81.34.23.23,0,0,1,.05.31,3,3,0,0,1-.95.11A2.47,2.47,0,0,1,156,7.39a14.67,14.67,0,0,1-.93-1.86.62.62,0,0,0-.64-.42c-.42,0-.44,0-.44.26V6.85c0,1.1.07,1.19.61,1.28l.32.06a.36.36,0,0,1,0,.42l-1.76,0c-.6,0-1.13,0-1.75,0a.33.33,0,0,1,0-.42l.32-.06c.54-.09.61-.18.61-1.28ZM154,4.13c0,.42,0,.45.74.45a1.18,1.18,0,0,0,.91-.33A1.74,1.74,0,0,0,156.1,3a1.58,1.58,0,0,0-1.57-1.77c-.49,0-.51,0-.51.61Z"/>
    <path d="M164.46,3.78c0,.33,0,.36.33.36h.83c.63,0,.77-.09.89-.66l.06-.3c.08-.1.38-.1.44,0,0,.38,0,.82,0,1.27s0,.89,0,1.27a.35.35,0,0,1-.44,0l-.06-.3c-.12-.58-.26-.68-.89-.68h-.83c-.32,0-.33,0-.33.38V6.57a2.22,2.22,0,0,0,.19,1.14c.16.22.38.31,1.26.31,1,0,1.45,0,2.11-1.39a.29.29,0,0,1,.44.06,6.41,6.41,0,0,1-.5,1.92c-.64,0-1.79,0-2.77,0h-1.56l-2.06,0a.33.33,0,0,1,0-.42l.56-.08c.54-.09.61-.16.61-1.26V2.38c0-1.1-.07-1.17-.61-1.28l-.3-.06c-.11-.07-.09-.34,0-.42.56,0,1.15,0,1.72,0h2.55c.76,0,1.45,0,1.6,0,0,.2.1,1.06.16,1.86,0,.13-.33.16-.45,0a2.71,2.71,0,0,0-.45-.95,1.62,1.62,0,0,0-1.18-.37h-1c-.39,0-.39,0-.39.47Z"/>
    <path d="M177.54,2.6c0-1.14,0-1.36-.58-1.42l-.23,0c-.12-.06-.12-.41,0-.42,1-.06,1.94-.11,3.21-.11a8.4,8.4,0,0,1,2.8.4A3.63,3.63,0,0,1,185.2,4.5a3.83,3.83,0,0,1-2.14,3.58,6.69,6.69,0,0,1-3,.57c-.56,0-1.16-.07-1.59-.07l-1.88,0a.36.36,0,0,1,0-.42l.38-.06c.54-.08.61-.18.61-1.28Zm1.71,3.8a2.22,2.22,0,0,0,.24,1.35,1.31,1.31,0,0,0,1,.35c2.07,0,2.78-1.85,2.78-3.48,0-2.16-1.14-3.44-3.31-3.44a.9.9,0,0,0-.62.15,1.5,1.5,0,0,0-.09.7Z"/>
    <path d="M190.55,5.87c-.29,0-.33,0-.4.23l-.47,1.4a1.39,1.39,0,0,0-.08.43c0,.07.15.14.49.2l.36.06c.07.09.1.36,0,.42-.42,0-.86,0-1.36,0s-.68,0-1.24,0c-.13-.07-.11-.32,0-.42l.32,0a.84.84,0,0,0,.73-.6c.21-.48.44-1.06.76-1.92l1.09-2.93a4.08,4.08,0,0,0,.44-1.52,2.44,2.44,0,0,0,1.05-.72c.15,0,.23.06.27.24.1.35.24.79.54,1.64l1.64,4.7c.25.72.36,1,.8,1.07l.45.07c.08.06.1.35,0,.42-.57,0-1.22,0-1.84,0s-1.07,0-1.62,0a.27.27,0,0,1,0-.42l.39-.06c.27-.05.32-.13.32-.2a4.54,4.54,0,0,0-.23-.82l-.32-1c-.06-.19-.16-.21-.58-.21Zm1.36-.64c.28,0,.34,0,.24-.35l-.31-1c-.17-.52-.38-1.16-.49-1.41-.1.27-.34.92-.52,1.47l-.3.9c-.1.32,0,.36.26.36Z"/>
    <path d="M198.38,1c-.09-.09-.09-.38,0-.42.41,0,.92,0,1.51,0,.4,0,.74,0,1.18,0a6.86,6.86,0,0,0,.94,2.61l.79,1.69c.11.24.54,1,.71,1.29.16-.28.35-.66.67-1.36l.62-1.32A15,15,0,0,0,206,.62a10.76,10.76,0,0,0,1.19,0c.4,0,1,0,1.38,0a.31.31,0,0,1,0,.42l-.35.06c-.49.09-.73.23-.73.87,0,2.47,0,3.76.09,5.27,0,.56.08.84.54.9l.39,0c.09.1.09.37,0,.42-.55,0-1.06,0-1.65,0s-1.2,0-1.78,0a.27.27,0,0,1,0-.42l.36,0c.55-.07.55-.21.55-.94l0-3.12V2.71h0c-.89,1.92-1.85,3.92-2.64,6a.36.36,0,0,1-.24.08.59.59,0,0,1-.31-.07c-.47-1.48-1.94-4.46-2.61-6h0C200,3.43,200,4,200,4.58c0,.78,0,2,0,2.7s.07.77.55.84l.47.07a.34.34,0,0,1,0,.42c-.44,0-1,0-1.41,0l-1.32,0c-.16,0-.16-.36,0-.42l.21,0c.62-.11.69-.18.76-.93.06-.58.1-1.63.17-2.77.05-.8.07-1.77.07-2.42s-.26-.86-.74-.95Z"/>
    <path d="M214.35,3.78c0,.33,0,.36.34.36h.83c.62,0,.76-.09.88-.66l.06-.3c.09-.1.39-.1.45,0,0,.38,0,.82,0,1.27s0,.89,0,1.27c-.06.11-.36.12-.45,0l-.06-.3c-.12-.58-.26-.68-.88-.68h-.83c-.32,0-.34,0-.34.38V6.57a2.1,2.1,0,0,0,.2,1.14c.15.22.38.31,1.25.31,1,0,1.46,0,2.12-1.39a.29.29,0,0,1,.44.06,7.07,7.07,0,0,1-.5,1.92c-.64,0-1.79,0-2.78,0h-1.55l-2.07,0a.36.36,0,0,1,0-.42l.57-.08c.54-.09.61-.16.61-1.26V2.38c0-1.1-.07-1.17-.61-1.28l-.3-.06a.3.3,0,0,1,0-.42c.56,0,1.15,0,1.73,0H216c.77,0,1.45,0,1.61,0,0,.2.09,1.06.15,1.86,0,.13-.32.16-.44,0a2.7,2.7,0,0,0-.46-.95,1.58,1.58,0,0,0-1.17-.37h-1c-.4,0-.4,0-.4.47Z"/>
  </g>
</svg>
