<svg xmlns="http://www.w3.org/2000/svg" xmlns:xlink="http://www.w3.org/1999/xlink" viewBox="0 0 274.2 29.3" xmlns:v="https://vecta.io/nano"><linearGradient  gradientUnits="userSpaceOnUse" x1="-42.917" y1="194.661" x2="-42.21" y2="193.954"><stop offset="0" stop-color="#20ac4b"/><stop offset=".983" stop-color="#19361a"/></linearGradient><g fill="#fff"><path d="M35.8 16.7v2.5c-.1.2-.3.2-.5.2-.2-.3-.6-.8-1.7-2l-3.3-3.8-1.6-1.8v3.7c0 1.1 0 2.4.3 2.8.1.2.4.3.7.4h.3c.1.1.1.4 0 .4h-3.1c-.1-.1-.1-.3 0-.4l.3-.1c.3 0 .5-.1.6-.3.2-.4.2-1.7.2-2.8v-3.4c0-1.1 0-1.3-.5-1.8-.2-.1-.6-.2-.8-.3h-.2c-.1-.1-.1-.4.1-.4.5.1 1.3 0 1.7 0h1c.2.6 1.8 2.4 2.3 3l1.4 1.5 2.1 2.3v-3.1c0-1.1 0-2.4-.3-2.8-.1-.2-.4-.3-.7-.4h-.3c-.1-.1-.1-.4 0-.4h3.1c.1.1.1.3 0 .4l-.3.1c-.3 0-.5.1-.6.3-.2.4-.2 1.7-.2 2.8v3.4zm7.1-6.6c2.3 0 3.2 2.5 3.2 4.6 0 2.9-1.3 4.1-2.9 4.1-2.4 0-3.3-2.7-3.3-4.6 0-3.1 1.6-4.1 3-4.1zm.2-.6c-3 0-5.1 2.2-5.1 5.1 0 2.5 1.9 4.8 5.1 4.8 2.9 0 5-2.1 5-4.9 0-2.6-1.7-5-5-5zm9.4 1.4c0-.6 0-.6-.4-.6h-.4c-1.3 0-1.7.2-2.2 1.3-.1.1-.4 0-.5-.1l.6-2.2s.1-.1.2-.1.1 0 .1.1c.1.4.3.4 1.2.4h5.1c.7 0 .9 0 1.1-.4.1 0 .1-.1.2-.1s.2 0 .2.1c-.1.6-.3 1.8-.2 2.3-.1.1-.3.1-.4 0-.2-1.1-.5-1.4-2-1.4h-.4c-.4 0-.4 0-.4.6V17c0 1.5.1 1.6.8 1.6l.5.1c.1.1.1.4 0 .4h-4.3c-.1-.1-.1-.3 0-.4l.6-.1c.7-.1.8-.1.8-1.6v-6.1zm9.3.1c0-.7 0-.7.8-.7 1.2 0 2 1 2 2.1 0 1.4-.6 2-2 2-.7 0-.7 0-.7-.5V11zm-1.7 6.1c0 1.5-.1 1.6-.8 1.6H59c-.1.1-.1.4 0 .4h3.8c.1-.1.1-.3 0-.4h-.3c-.7-.1-.8-.1-.8-1.6v-1.8c0-.3 0-.3.4-.3.5 0 .6.1.9.5.3.6.7 1.3 1.1 1.9.9 1.3 1.6 1.9 3 1.9.5 0 .8 0 .9-.1v-.3c-.2 0-.6-.1-1-.4-.7-.6-1.4-1.8-2.5-3.7-.1-.1-.1-.2 0-.2.7-.3 1.7-.9 1.7-2.3 0-1-.5-1.7-1.3-2.1-.6-.3-1.6-.5-2.7-.5l-3.3.1c-.1.1-.1.3 0 .4h.4c.7.1.7.2.7 1.6v5.3zm10.5-5.3c0-1.5-.1-1.6-.8-1.7h-.2c-.1-.1-.1-.4 0-.4h6.5c.1.2.1 1.4.2 2-.1.1-.3.1-.5.1-.2-.8-.4-1.2-.9-1.3-.3-.1-.8-.1-1.1-.1h-1c-.6 0-.6 0-.6.8v2.4c0 .4 0 .4.3.4h.7c1.2 0 1.5 0 1.6-.6l.1-.5c.1-.1.4-.1.5 0v2.9c-.1.1-.3.1-.5 0l-.1-.6c-.1-.6-.3-.6-1.6-.6h-.7c-.3 0-.3 0-.3.4v1.8c0 .7 0 1.2.2 1.5.2.2.4.3 1.6.3 1.8 0 2.1-.4 2.6-1.5.1-.1.4-.1.5.1-.1.6-.4 1.7-.6 2.1h-7.3c-.1-.1-.1-.3 0-.4l.5-.1c.7-.1.8-.1.8-1.6v-5.4zm14.4-.3c0-.7 0-1 .1-1.1s.6-.2 1.2-.2c2.4 0 4 1.4 4 4.2 0 2.4-1.1 4.2-3.7 4.2-1.5 0-1.6-.7-1.6-2.1v-5zm-1.7 5.6c0 1.5-.1 1.6-.8 1.6h-.3c-.1.1-.1.4 0 .4h3.9c1.3 0 2.5-.2 3.5-.7 1.8-.9 2.6-2.5 2.6-4.1 0-2.1-1.2-3.6-2.9-4.3-1-.4-2-.5-3.4-.5l-3.6.1c-.1.1-.1.3 0 .4h.3c.7.1.7.3.7 1.6v5.5zM96 15c-.3 0-.4 0-.2-.4l.6-1.7c.3-.7.4-1 .4-1.1h0c.1.1.2.4.4 1.1l.6 1.7c.1.3.1.4-.3.4H96zm1.6.7c.4 0 .4 0 .6.4l.7 1.9c.2.6.1.7-.4.8h-.3c-.1.1-.1.3 0 .4h3.6c.1-.1.1-.3 0-.4h-.2c-.7-.1-.8-.2-1.1-1.2l-2.1-6-.6-2c-.1-.1-.1-.1-.2-.1 0 0-.5.6-1 .7 0 .2-.1.6-.3 1l-2 5.1-.7 1.7c-.2.5-.4.6-.8.7l-.4.1c-.1.1-.1.3 0 .4h2.9c.1-.1.1-.3 0-.4l-.3-.1c-.5-.1-.6-.1-.3-1l.6-1.7c.1-.4.1-.4.5-.4h1.8zm17.3 3.1c.1.1.1.4 0 .4h-3.6c-.1-.1-.2-.3 0-.4l.4-.1c.6-.1.6-.2.6-1.2v-5.8l-.9 1.8-1.2 2.5-1.5 3.2c-.1.1-.3.1-.4 0-.2-.8-.9-2.2-1.2-2.9l-1.3-2.7c-.3-.6-.7-1.5-.8-1.9h0l-.1 2.4-.1 3.3c0 .9 0 1.2.6 1.3l.5.1c.1.1.1.4 0 .4h-3c-.1-.1-.1-.3 0-.4h.2c.7-.1.8-.3.9-1.2s.1-1.8.2-3.3c.1-1 .1-2.2.1-3 0-.7-.2-1-.8-1.1l-.5-.1c-.1-.1-.1-.4.1-.4h2.8c.1.9.4 1.6.8 2.4l1.6 3.3.7 1.3.7-1.5 1.3-2.7a15.95 15.95 0 0 0 1.2-2.7h2.7c.2.1.2.3 0 .4l-.5.1c-.6.1-.8.3-.8 1.1l.1 6.3c0 1 .2 1.1.7 1.1h.5zm3.1-7c0-1.5-.1-1.6-.8-1.7h-.2c-.1-.1-.1-.4 0-.4h6.5c.1.2.1 1.4.2 2-.1.1-.3.1-.5.1-.2-.8-.4-1.2-.9-1.3-.3-.1-.8-.1-1.1-.1h-1c-.6 0-.6 0-.6.8v2.4c0 .4 0 .4.3.4h.7c1.2 0 1.5 0 1.6-.6l.1-.5c.1-.1.4-.1.5 0v2.9c-.1.1-.3.1-.5 0l-.1-.6c-.1-.6-.3-.6-1.6-.6h-.6c-.3 0-.3 0-.3.4v1.8c0 .7 0 1.2.2 1.5.2.2.4.3 1.6.3 1.8 0 2.1-.4 2.6-1.5.1-.1.4-.1.5.1-.1.6-.4 1.7-.6 2.1h-7.3c-.1-.1-.1-.3 0-.4l.5-.1c.7-.1.8-.1.8-1.6v-5.4zm-90.5-10c0-.9-.1-.9-.6-1h-.2c-.1-.1-.1-.3 0-.3h2.6c.1 0 .1.3 0 .3h-.2c-.6.1-.6.1-.6 1v1.8c0 1.3.4 2.2 1.7 2.2 1.2 0 1.7-.9 1.7-2.2V2.4c0-1.3-.1-1.6-.6-1.7H31c-.1-.1-.1-.3 0-.3h2.2c.1.1.1.3 0 .3h-.4c-.3 0-.4.4-.4 1.7v1.3c0 1.7-.8 2.5-2.4 2.5-.8 0-1.4-.2-1.8-.5-.4-.4-.6-1-.6-1.8V1.8zm14.1.6c0-1.3-.1-1.6-.6-1.7h-.4c-.1-.1-.1-.3 0-.3h2.3c.1.1.1.3 0 .3h-.4c-.3 0-.4.4-.4 1.7v3.7c0 .1-.2.1-.3.1-.1-.2-.4-.4-1.2-1.3l-2-2.1c-.5-.5-.8-.9-1-1-.1 0-.1.1-.1.5V4c0 1.3.1 1.6.6 1.7h.4c.1.1.1.3 0 .3h-2.2c-.1-.1-.1-.3 0-.3h.4c.3 0 .4-.4.4-1.7V1.8c0-.4 0-.6-.3-.8-.1-.1-.3-.2-.5-.2h-.2c-.1-.1-.1-.3 0-.3h1.6c.3.5.7 1 1.3 1.6l1.2 1.3 1.2 1.2c.1 0 .1-.2.1-.5V2.4zm5.6-.6c0-.9-.1-.9-.6-1h-.2c-.1-.1-.1-.3 0-.3H49c.1 0 .1.3 0 .3h-.2c-.6.1-.6.1-.6 1v2.9c0 .9.1.9.6 1h.2c.1.1.1.3 0 .3h-2.6c-.1 0-.1-.3 0-.3h.2c.6-.1.6-.1.6-1V1.8zm5.9 0c-.4-.9-.4-.9-.7-1L52 .7c-.1-.1-.1-.3 0-.3h2.5c.1 0 .1.3 0 .3h-.3c-.3.1-.3.2-.1.9l.6 1.4.7 1.6c.3-.5.5-1.1.7-1.6.3-.6.6-1.5.8-1.9.1-.2.1-.2-.3-.3h-.2c-.1-.1-.1-.2 0-.3h2c.1 0 .2.3.1.3l-.4.1c-.4.1-.5.2-.9 1.1l-1 2.1c-.4.8-.8 1.8-.9 2.2h-.4c-.1-.3-.3-.7-.4-1.1l-1.4-3.4zm9 0c0-.9-.1-.9-.5-1h-.2c-.1-.1-.1-.3 0-.3h4.2c0 .2.1.8.1 1.3-.1.1-.3.1-.3 0-.1-.3-.2-.5-.2-.6-.2-.3-.8-.3-1.1-.3h-.6c-.5 0-.5 0-.5.4v1.4c0 .2 0 .3.2.3h.6c.7 0 .7-.1.9-.5l.1-.2c.1-.1.3-.1.3 0v1.8c-.1.1-.3.1-.3 0l-.1-.2c-.1-.4-.2-.5-.9-.5h-.6c-.2 0-.2 0-.2.3v.9c0 .4 0 .8.1.9s.3.2 1.1.2 1.3 0 1.7-1.1c.1-.1.3-.1.3.1-.1.5-.2 1.2-.4 1.4h-4.7c-.1 0-.1-.3 0-.3h.3c.6-.1.6-.1.6-1v-3zm9.3-.6c0-.3.1-.4.6-.4.9 0 1.4.6 1.4 1.2 0 .9-.4 1.2-1.3 1.2-.6 0-.7 0-.7-.3V1.2zm-1 3.5c0 .9 0 .9-.6 1h-.2c-.1.1-.1.3 0 .3h2.7c.1 0 .1-.3 0-.3H72c-.6-.1-.6-.1-.6-1v-.9c0-.2 0-.2.4-.2.2 0 .4 0 .5.2.3.4.6 1 .9 1.4.6.7 1 1 1.8 1 .2 0 .4 0 .5-.1.1 0 .1-.2 0-.2-.2 0-.4-.1-.7-.3-.4-.3-1-1-1.6-2.1 0-.1-.1-.1 0-.2.5-.2 1.1-.6 1.1-1.4C74.3.5 73 .4 71.8.4l-2.1.1c-.1 0-.1.3 0 .3l.4.1c.3 0 .3.3.3 1.1v2.7zm9.4-1.3c-.6-.3-1.2-.8-1.2-1.5 0-.9.7-1.6 2-1.6.4 0 .8.1 1.2.2.2.2.2.7.2 1.2 0 .1-.3.1-.3 0-.1-.5-.4-1.1-1.2-1.1s-1.1.4-1.1.9.4.7.9 1l.8.5c.5.2 1 .8 1 1.6 0 1-.8 1.6-2.1 1.6-.8 0-1.3-.3-1.5-.4-.1-.2-.3-.6-.3-1.3.1-.1.2-.1.3 0 .1.5.7 1.4 1.5 1.4.7 0 1.1-.3 1.1-.9 0-.4-.2-.8-.9-1.2l-.4-.4z"/><path d="M86.5 1.8c0-.9-.1-.9-.6-1h-.2c-.1-.1-.1-.3 0-.3h2.6c.1 0 .1.3 0 .3h-.2c-.6.1-.6.1-.6 1v2.9c0 .9.1.9.6 1h.2c.1.1.1.3 0 .3h-2.6c-.1 0-.1-.3 0-.3h.2c.6-.1.6-.1.6-1V1.8zm7.4-.6c0-.3 0-.3-.3-.3h-.4c-.8 0-1.1.1-1.4 1-.1.1-.3 0-.3-.1l.3-1.5c.1-.1.2-.1.2 0 0 .3.2.2.7.2h3.6c.5 0 .6 0 .7-.2.1-.1.2 0 .2 0-.1.3-.2 1-.1 1.5 0 .1-.3.1-.3 0-.1-.8-.4-.9-1.2-.9h-.4c-.2 0-.3 0-.3.3v3.5c0 .9.1 1 .6 1h.3c.1.1.1.3 0 .3H93c-.1 0-.1-.3 0-.3h.3c.6-.1.6-.1.6-1V1.2zm8.5 3.1c0-.4 0-.5-.4-1.1l-.9-1.7c-.3-.5-.4-.6-.7-.7l-.3-.1c-.1-.1-.1-.3 0-.3h2.3c.1 0 .1.3 0 .3h-.2c-.3.1-.3.1-.1.5l.5.9.6 1.1c.2-.3.4-.7.6-1.1l.5-.9c.2-.4.2-.5-.1-.5h-.3c-.1-.1-.1-.3 0-.3h1.9c.1 0 .1.3 0 .3l-.3.1c-.4.1-.5.2-.9.8l-.8 1.3c-.5.7-.5.9-.5 1.2v.7c0 .8.1.8.6.9h.3c.1.1.1.3 0 .3h-2.8c-.1 0-.1-.3 0-.3h.3c.6-.1.6-.1.6-.9v-.5zM113.5.6c1.4 0 2.1 1.4 2.1 2.8 0 1.8-.9 2.4-1.9 2.4-1.5 0-2.1-1.4-2.1-2.8-.1-1.8 1-2.4 1.9-2.4zm.1-.4c-1.9 0-3.2 1.3-3.2 3 0 1.6 1.2 2.9 3.2 2.9 1.8 0 3.1-1.3 3.1-3 0-1.5-1-2.9-3.1-2.9zm6.4 1.6c0-.9-.1-.9-.5-1h-.2c-.1-.1-.1-.3 0-.3h4.2c0 .2 0 .8.1 1.3-.1.1-.3.1-.3 0-.1-.3-.2-.5-.2-.6-.2-.3-.8-.3-1.1-.3h-.5c-.4 0-.4 0-.4.4v1.5c0 .2 0 .3.2.3h.7c.7 0 .8-.1.9-.5l.1-.2c.1-.1.3-.1.3 0v1.8c-.1.1-.3.1-.3 0l-.1-.2c-.1-.4-.2-.5-.9-.5h-.7c-.2 0-.2 0-.2.3v1c0 .9 0 1 .6 1h.4c.1.1.1.3 0 .3h-2.8c-.1 0-.1-.3 0-.3h.2c.6-.1.6-.1.6-1v-3zM3.8 4c-.2 0-1.4-.3-1.4-.3l.9 1.1c-.1.2-.9 1.1-.9 1.1l1.4-.3c.1.2.5 1.4.5 1.4l.5-1.4c.2 0 1.4.3 1.4.3l-1-1.1c.1-.2.9-1.1.9-1.1L4.8 4c-.1-.2-.5-1.4-.5-1.4L3.8 4zm.5-.3l.2.7.8-.2c-.2.2-.5.6-.5.6s.3.3.5.6c-.3-.1-.8-.2-.8-.2l-.2.7-.2-.7s-.5.1-.8.1c.2-.2.5-.6.5-.6l-.5-.5a2.64 2.64 0 0 0 .7.1l.3-.6zm.5 17.7zm2.5-7.5c.1-.2.1-.3.2-.4 0-.1.1-.1.1-.1h0-.3c.1 0 .1 0 0 .1-.1.2-.2.5-.3.7V14l-.1-.3-.1-.2h.1-.4c.1 0 .1 0 .1.2l.3.8c0 .1.1.2.1.2 0-.1.1-.3.2-.5l.1-.3zm.8.4c0 .2 0 .2.1.2h0v.1h-.4v-.1c.1 0 .1 0 .1-.2v-.7c0-.2 0-.2-.1-.2h.4c-.1 0-.1 0-.1.2v.7z"/><path d="M8.8 13.5s0-.1 0 0l-.1-.1c-.2 0-.2 0-.3.2h-.1c0-.1.1-.2.1-.3h1v.3h-.1c0-.1-.1-.2-.2-.2h0v.9c0 .2 0 .2.1.2h.1v.1h-.6v-.1h.1c.1 0 .1 0 .1-.2v-.8zm1.2.7h0l.2.3v.2h.4v-.1c-.1 0-.1 0-.1-.1l-.3-.8c0-.1-.1-.2-.1-.2l-.1.1v.1l-.2.6c0 .1-.1.2-.1.2 0 .1 0 .1-.1.1h-.1v.1h.4v-.1h-.1c-.1 0-.1 0 0-.1l.1-.2h.1zm-.2-.1v-.3c0-.1 0-.1.1-.1h0l.1.1.1.2v.1h-.3zm-2.7 1.5v-.1h.1a.47.47 0 0 1 .5.5c0 .3-.1.5-.4.5-.2 0-.2-.1-.2-.3v-.6zm-.2.7c0 .2 0 .2-.1.2h0v.1h.4c.1 0 .3 0 .4-.1a.55.55 0 0 0 .3-.5c0-.3-.1-.5-.3-.5-.1 0-.2-.1-.4-.1h-.4c.1 0 .1 0 .1.2v.7z"/><path d="M8.1 15.7c0-.2 0-.2-.1-.2h.4c-.1 0-.1 0-.1.2v.4c0 .2.1.5.3.5s.3-.2.3-.5v-.6h-.1v-.1h.4v.1h-.1v.6c0 .2 0 .3-.1.4s-.2.1-.3.1c-.2 0-.3 0-.4-.1s-.1-.2-.1-.4v-.4zm1.6 0c0-.2 0-.2.1-.2h0v-.1h-.4v.1c.1 0 .1 0 .1.2v.7c0 .2 0 .2-.1.2h-.1v.1h.9s.1-.2.1-.3h-.1c-.1.2-.1.2-.3.2h-.2v-.9z"/><path d="M10.1 16h0c.1 0 .1-.1.2-.1h.1c.1.1.2.1.2.1.1 0 .2-.1.2-.2h0-.1c0 .1-.1.1-.1.1l-.2-.1c-.1-.1-.2-.1-.2-.1 0 .1-.1.1-.1.3zm7.7-4.1v-1s-1.2.5-3.4.2c-2-.3-2.9.3-2.9.3s-.8-.6-2.9-.3c-2 .4-3.3-.1-3.3-.1v1h-.5v7.2h5.9a1.16 1.16 0 0 0 .9.4c.6 0 .9-.4.9-.4h5.9V12h-.6zm-6.5 6.5s-.7-.5-2.7-.2-2.8-.2-2.8-.2v-6.3s.9.3 2.9.1c2-.3 2.6.2 2.6.2v6.4zm6-.4s-.7.5-2.8.2c-2-.3-2.7.2-2.7.2v-6.5s.6-.5 2.6-.2 2.9-.1 2.9-.1V18zm-4.1-4.3c-.1-.1-.1-.2-.4-.2-.2 0-.4.2-.4.5 0 .4.2.5.4.5s.3-.1.3-.3c0 .1-.1.2-.1.3h-.3c-.2 0-.3 0-.4-.1s-.2-.3-.2-.5.1-.4.2-.5.3-.1.4-.1h.3c.2.2.2.3.2.4z"/><path d="M13.6 13.6c0-.2 0-.2-.1-.2h.7v.2h-.1c0-.1-.1-.1-.1-.2h-.2c-.1 0-.1 0-.1.1v.3h.1c.2 0 .2 0 .2-.1v-.1h.1v.4H14v-.1c0-.1 0-.1-.2-.1h-.1v.4h.2c.2 0 .2-.1.3-.2h.1c0 .1 0 .2-.1.3h-.8v-.1h.1c.1 0 .1 0 .1-.2v-.4z"/><path d="M14.8 13.6v-.1h.1a.47.47 0 0 1 .5.5c0 .3-.1.5-.4.5-.2 0-.1-.1-.1-.3v-.6zm-.2.7c0 .2 0 .2-.1.2h0v.1h.4c.2 0 .3 0 .4-.1a.55.55 0 0 0 .3-.5c0-.3-.1-.5-.3-.5-.1 0-.2-.1-.4-.1h-.4v.1c.1 0 .1 0 .1.2v.6zm1.7-.9c.3 0 .4.3.4.6 0 .4-.1.5-.3.5-.3 0-.4-.3-.4-.6s.1-.5.3-.5zm0-.1a.65.65 0 0 0-.6.6c0 .3.2.6.6.6a.65.65 0 0 0 .6-.6c0-.3-.2-.6-.6-.6zm-3.6 3.2s-.1-.2-.1-.3h.1c0 .1.1.3.3.3.1 0 .2-.1.2-.2s0-.2-.2-.3h-.1c-.1-.1-.2-.2-.2-.3 0-.2.1-.3.4-.3h.2v.2h-.1c0-.1-.1-.2-.2-.2s-.2.1-.2.2.1.2.2.2l.1.1c.1.1.2.2.2.4s-.2.4-.4.4c0-.1-.1-.1-.2-.2z"/><path d="M13.8 15.7c0-.2 0-.2-.1-.2h-.1.4c.2 0 .3 0 .4.1s.1.2.1.3c0 .3-.3.3-.4.3.2 0 .2-.2.2-.3s-.1-.3-.3-.3c-.1 0-.1 0-.1.1v.8c0 .2 0 .2.1.2h.1v.1h-.5v-.1c.1 0 .1 0 .1-.2v-.8zm1 .6c0 .2 0 .2-.1.2h-.1v.1h.9s.1-.2.1-.3h-.1c-.1.1-.1.2-.3.2H15v-.4h.1c.2 0 .2 0 .2.1v.1h.1v-.4h-.1v.1c0 .1 0 .1-.2.1H15v-.3c0-.1 0-.1.1-.1h.2c.1 0 .1.1.1.2h.1v-.3h-.7v.1c.1 0 .1 0 .1.2v.4z"/><path d="M15.8 16.5s-.1-.2-.1-.3h.1c0 .1.1.3.3.3.1 0 .2-.1.2-.2s0-.2-.2-.3H16c-.1-.1-.2-.2-.2-.3 0-.2.1-.3.4-.3h.2v.2h-.1c0-.1-.1-.2-.2-.2s-.2.1-.2.2.1.2.2.2l.1.1c.1.1.2.2.2.4s-.2.4-.4.4l-.2-.2zM11.6.4H0V11c0 10 6.4 15.4 11.6 18.3C16.8 26.4 23.2 21 23.2 11V.5H11.6zm0 27.1c-.6-.3-1.1-.7-1.7-1.1.5-.2.9-.5 1.7-.5s1.3.3 1.7.5l-1.7 1.1zm4-2.9c-.3.3-.4.3-.7.4h-.4c-1.2 0-1.4-.7-2.9-.7-1.4 0-1.7.7-2.9.7h-.4c-.3-.1-.4-.1-.7-.4-.6-.5-1.1-1-1.6-1.6 1.1 0 1.4.7 2.8.7 1.2 0 1.4-.7 2.9-.7 1.4 0 1.7.7 2.9.7 1.4 0 1.7-.7 2.8-.7-.7.6-1.2 1.1-1.8 1.6zm6-13.5c0 4.3-1.3 7.6-3.2 10.3 0 0-.4-.1-.9-.1-1.2 0-1.6.7-3 .7-.9 0-1.2-.4-2-.6v-1.7s-.2.3-.9.3-.9-.3-.9-.3v1.7c-.7.2-1.1.6-2 .6-1.4 0-1.8-.7-3-.7-.6 0-.9.1-.9.1-1.9-2.7-3.2-6-3.2-10.3V2h20v9.1zm-9.1-2h4l1.3.8V6.7l-1.3.8h-4V4.4l.8-1.4H9.9l.8 1.4v3.1h-4l-1.4-.8v3.2l1.3-.8h4v1.6s.5.1.9.3c.4-.2.9-.3.9-.3l.1-1.6zM153 6v13.3h-1.1V13h-4.5v6.3h-1.1V6h1.1v5.9h4.5V6h1.1zm7.3 0v1h-4.2v4.9h3.6v1h-3.6v5.3h4.5v1H155V6h5.3z"/><use xlink:href="#C"/><path d="M170.2 19.2V6h3.9c1.8 0 2.7.7 2.7 3.4 0 2-.7 2.7-1.4 3 .8.2 1.7.9 1.7 3.4 0 2.7-1 3.5-2.8 3.5h-4.1zM171.3 7v4.9h2.6c1 0 1.6-.8 1.6-2.5 0-2-.5-2.4-1.7-2.4h-2.5zm2.6 11.2c1.2 0 1.9-.4 1.9-2.5 0-2.3-.9-2.8-1.9-2.8h-2.7v5.3h2.7zm4.8-2.3V6h1.1v9.9c0 1.7.2 2.5 2.2 2.5s2.2-.8 2.2-2.5V6h1.1v9.9c0 2.3-.6 3.5-3.3 3.5s-3.3-1.2-3.3-3.5z"/><use xlink:href="#D"/><path d="M198.5 5.8c2.6 0 3.2 1.2 3.2 3.6l-1.1.2c0-2-.4-2.8-2.1-2.8-2.1 0-2.7 1.7-2.7 5.8s.3 5.8 2.5 5.8c1 0 1.7-.2 2.2-.4v-4.6h-1.8v-1h2.8v6.2c-1 .5-1.9.7-3.3.7-2.9 0-3.7-1.9-3.7-6.8.2-4.8 1.1-6.7 4-6.7zm11.8.2v13.3h-1.1V13h-4.5v6.3h-1.1V6h1.1v5.9h4.5V6h1.1zm6.2 12.2h4v1h-5.1V6h1.1v12.2zm6.5 1h-1.1V6h1.1v13.2zm2 0V6h3.9c1.8 0 2.7.7 2.7 3.4 0 2-.7 2.7-1.4 3 .8.2 1.7.9 1.7 3.4 0 2.7-1 3.5-2.8 3.5H225zM226.2 7v4.9h2.6c1 0 1.6-.8 1.6-2.5 0-2-.5-2.4-1.7-2.4h-2.5zm2.6 11.2c1.2 0 1.9-.4 1.9-2.5 0-2.3-.9-2.8-1.9-2.8h-2.7v5.3h2.7z"/><use xlink:href="#D" x="46.3"/><path d="M245.3 5.8l2.8 13.4H247l-.6-2.9h-3.8l-.6 2.9h-1.1l2.8-13.4h1.6zm-2.6 9.6h3.5l-1.7-8.6-1.8 8.6z"/><use xlink:href="#D" x="62.2"/><path d="M258.5 19.2h-1.1V6h1.1v13.2zM265.9 6v1h-4.2v4.9h3.6v1h-3.6v5.3h4.5v1h-5.6V6h5.3z"/><use xlink:href="#C" x="105.6"/><path d="M134.6 0h.6v29.3h-.6z"/></g><defs ><path id="C" d="M167.4 15.8c0-1.9-.5-2.3-2.3-2.8-1.6-.5-2.9-1-2.9-3.6 0-2.4.8-3.6 3.2-3.6 2.7 0 2.9 1.6 2.9 3.6l-1.1.2c0-1.6-.1-2.7-1.9-2.7-1.4 0-2.1.7-2.1 2.6 0 1.6.5 2.1 2.1 2.5 1.8.5 3.1 1.1 3.1 3.9 0 2.6-1.2 3.7-3.6 3.7-2.6 0-3.1-1.4-3.1-3.7l1.1-.2c0 1.8.3 2.8 2 2.8 1.9-.1 2.6-.8 2.6-2.7z"/><path id="D" d="M188.5 19.2h-1.1V6h2.9c1.8 0 3 .6 3 3.8 0 2.5-.7 3.4-1.9 3.7l2.1 5.8h-1.3l-2-5.7h-1.8v5.6zm1.6-6.7c1.3 0 2-.5 2-2.8s-.7-2.8-2-2.8h-1.7v5.6h1.7z"/></defs></svg>