<?xml version="1.0" encoding="utf-8"?>
<!-- Generator: Adobe Illustrator 24.2.3, SVG Export Plug-In . SVG Version: 6.00 Build 0)  -->
<svg version="1.1" id="Layer_1" xmlns="http://www.w3.org/2000/svg" xmlns:xlink="http://www.w3.org/1999/xlink" x="0px" y="0px"
	 viewBox="0 0 210.2 49.2" style="enable-background:new 0 0 210.2 49.2;" xml:space="preserve">
<style type="text/css">
	.st0{fill:#FFFFFF;}
	.st1{fill:#D39F10;}
</style>
<g>
	<g>
		<path class="st0" d="M60.5,27.9c0,0.7,0,3.7,0.1,4.2c-0.2,0.3-0.5,0.4-0.8,0.3c-0.4-0.5-1.1-1.3-2.8-3.3l-5.6-6.4
			c-1.6-1.8-2.3-2.7-2.7-3c-0.1,0-0.1,0.3-0.1,1.5V26c0,1.8,0,4,0.4,4.7c0.2,0.4,0.6,0.5,1.2,0.6l0.5,0.1c0.2,0.2,0.2,0.6,0,0.7
			c-0.9,0-1.8-0.1-2.7-0.1c-1,0-1.7,0-2.5,0.1c-0.2-0.1-0.2-0.5,0-0.7l0.5-0.1c0.5-0.1,0.9-0.2,1.1-0.6c0.3-0.7,0.3-2.8,0.3-4.7
			v-5.7c0-1.9,0-2.3-0.8-3c-0.3-0.2-0.9-0.4-1.3-0.5l-0.4-0.1c-0.2-0.1-0.1-0.6,0.1-0.7c0.9,0.1,2.2,0.1,2.8,0.1
			c0.5,0,1.1,0,1.7-0.1c0.4,1,3,4.1,3.9,5l2.4,2.6c1,1.1,3.2,3.7,3.5,3.8c0.1-0.1,0.1-0.2,0.1-0.6v-4.7c0-1.8,0-4-0.5-4.7
			c-0.2-0.4-0.6-0.5-1.2-0.6L57,16.8c-0.2-0.2-0.2-0.6,0.1-0.7c0.9,0,1.8,0.1,2.8,0.1c1,0,1.7,0,2.5-0.1c0.2,0.1,0.2,0.5,0,0.7
			l-0.6,0.1c-0.5,0.1-0.9,0.2-1,0.6c-0.3,0.7-0.3,2.8-0.3,4.7V27.9z"/>
		<path class="st0" d="M72.4,16.7c3.8,0,5.5,4.2,5.5,7.8c0,4.8-2.2,6.9-5,6.9c-4.1,0-5.5-4.5-5.5-7.8C67.3,18.5,70,16.7,72.4,16.7z
			 M72.7,15.8c-5.1,0-8.6,3.6-8.6,8.5c0,4.3,3.1,8.1,8.6,8.1c4.9,0,8.5-3.5,8.5-8.3C81.1,19.8,78.2,15.8,72.7,15.8z"/>
		<path class="st0" d="M88.6,18.2c0-1,0-1.1-0.6-1.1h-0.7c-2.2,0-2.9,0.3-3.7,2.2c-0.2,0.1-0.7,0.1-0.8-0.2c0.4-1.3,0.8-2.8,0.9-3.6
			c0-0.1,0.1-0.1,0.3-0.1c0.1,0,0.2,0,0.2,0.1c0.1,0.6,0.5,0.6,2.1,0.6h8.5c1.2,0,1.5-0.1,1.8-0.6c0.1,0,0.2-0.1,0.3-0.1
			c0.1,0,0.3,0,0.3,0.1c-0.2,1-0.4,3.1-0.4,3.8c-0.1,0.2-0.5,0.2-0.7,0.1c-0.3-1.9-0.8-2.3-3.3-2.3H92c-0.6,0-0.7,0-0.7,1.1v10.4
			c0,2.5,0.2,2.6,1.4,2.7l0.9,0.1c0.2,0.2,0.1,0.6,0,0.7C92.1,32.1,91,32,90,32c-1.1,0-2.2,0-3.7,0.1c-0.2-0.1-0.2-0.6,0-0.7l1-0.1
			c1.1-0.1,1.3-0.2,1.3-2.7V18.2z"/>
		<path class="st0" d="M104.3,18.2c0-1.1,0-1.2,1.3-1.2c2.1,0,3.3,1.7,3.3,3.6c0,2.3-1.1,3.4-3.4,3.4c-1.2,0-1.2,0-1.2-0.8V18.2z
			 M101.5,28.6c0,2.5-0.2,2.6-1.3,2.8l-0.5,0.1c-0.2,0.2-0.1,0.6,0,0.7c1.1,0,2.2-0.1,3.2-0.1c1.1,0,2.1,0,3.2,0.1
			c0.2-0.1,0.2-0.5,0.1-0.7l-0.5-0.1c-1.1-0.1-1.4-0.2-1.4-2.8v-3.1c0-0.5,0-0.5,0.7-0.5c0.8,0,1.1,0.1,1.5,0.8
			c0.6,0.9,1.3,2.3,1.9,3.3c1.5,2.2,2.7,3.2,5,3.2c0.8,0,1.3-0.1,1.6-0.1c0.1-0.1,0.1-0.4,0-0.5c-0.3,0-1-0.2-1.7-0.7
			c-1.1-0.9-2.3-3-4.3-6.2c-0.1-0.1-0.1-0.3,0-0.4c1.2-0.5,2.9-1.6,2.9-3.8c0-1.7-0.9-2.9-2.1-3.5c-1.1-0.6-2.7-0.8-4.6-0.8
			c-2,0-4,0.1-5.5,0.2c-0.2,0.1-0.2,0.5,0,0.7l0.6,0.1c1.1,0.1,1.2,0.4,1.2,2.7V28.6z"/>
		<path class="st0" d="M119.1,19.6c0-2.6-0.2-2.6-1.3-2.8l-0.4-0.1c-0.2-0.2-0.1-0.6,0.1-0.7c0.5,0,1,0,1.5,0c0.5,0,1.1,0,1.6,0h4.6
			c1.5,0,2.9,0,3.2-0.1c0.1,0.4,0.2,2.3,0.4,3.3c-0.1,0.2-0.6,0.2-0.8,0.1c-0.4-1.4-0.7-2-1.5-2.2c-0.6-0.2-1.3-0.2-1.9-0.2H123
			c-1,0-1,0-1,1.4v4.1c0,0.6,0,0.7,0.6,0.7h1.1c2.1,0,2.5,0,2.7-1.1l0.2-0.8c0.2-0.2,0.7-0.2,0.8,0c0,0.6-0.1,1.5-0.1,2.4
			c0,0.9,0,1.8,0.1,2.5c-0.1,0.2-0.6,0.2-0.8,0l-0.2-1c-0.2-1-0.6-1.1-2.7-1.1h-1.1c-0.6,0-0.6,0-0.6,0.7V28c0,1.2,0,2.1,0.4,2.5
			c0.3,0.3,0.7,0.5,2.7,0.5c3.1,0,3.6-0.7,4.4-2.6c0.2-0.2,0.6-0.1,0.8,0.1c-0.1,1-0.7,2.8-1,3.5c-0.5,0-1.3,0-2.3,0
			c-1,0-2.2,0-3.6,0h-2.7c-1.1,0-2.5,0-3.6,0.1c-0.2-0.1-0.2-0.5,0-0.7l0.9-0.1c1.1-0.1,1.3-0.2,1.3-2.7V19.6z"/>
		<path class="st0" d="M143.5,19.2c0-1.1,0-1.6,0.2-1.8c0.2-0.2,0.9-0.3,1.9-0.3c4,0,6.8,2.3,6.8,7.1c0,4.1-1.9,7.1-6.2,7.1
			c-2.6,0-2.7-1.2-2.7-3.6V19.2z M140.7,28.6c0,2.5-0.2,2.6-1.3,2.8l-0.5,0.1c-0.2,0.2-0.1,0.6,0.1,0.7c1.1,0,2.1-0.1,3.1-0.1
			c0.5,0,1,0,1.5,0.1c0.6,0,1.2,0.1,2,0.1c2.2,0,4.3-0.3,6-1.2c3-1.5,4.3-4.3,4.3-6.9c0-3.6-2.1-6.1-4.9-7.2
			c-1.8-0.6-3.4-0.8-5.7-0.8c-2.4,0-4.3,0.1-6,0.2c-0.2,0.1-0.2,0.5,0,0.7l0.5,0.1c1.1,0.1,1.2,0.4,1.2,2.7V28.6z"/>
		<path class="st0" d="M162,25c-0.6,0-0.6,0-0.4-0.7l1-2.8c0.4-1.1,0.6-1.7,0.7-1.9h0c0.1,0.2,0.3,0.6,0.7,1.9l1,2.9
			c0.2,0.6,0.1,0.6-0.6,0.6H162z M164.8,26.1c0.7,0,0.7,0,1,0.7l1.1,3.3c0.3,1,0.2,1.2-0.6,1.3l-0.5,0.1c-0.1,0.2-0.1,0.6,0.1,0.7
			c0.8,0,1.9-0.1,2.9-0.1c1.3,0,2.1,0,3.1,0.1c0.2-0.1,0.2-0.5,0-0.7l-0.4-0.1c-1.2-0.2-1.4-0.4-1.9-2l-3.5-10.1
			c-0.4-1.1-0.7-2.2-1.1-3.3c-0.1-0.1-0.2-0.2-0.4-0.2c-0.1,0-0.8,1-1.7,1.2c0.1,0.4-0.1,1-0.5,1.8l-3.3,8.6
			c-0.5,1.3-0.9,2.3-1.2,2.9c-0.4,0.8-0.6,1-1.3,1.1l-0.7,0.1c-0.2,0.2-0.1,0.6,0,0.7c0.8,0,1.6-0.1,2.4-0.1c1,0,1.8,0,2.5,0.1
			c0.2-0.1,0.2-0.5,0-0.7l-0.7-0.1c-0.9-0.1-1-0.2-0.5-1.6l1-2.9c0.2-0.7,0.2-0.7,0.8-0.7H164.8z"/>
		<path class="st0" d="M194,31.4c0.2,0.1,0.2,0.6,0,0.7c-1,0-2-0.1-2.9-0.1c-1.1,0-2.2,0-3.2,0.1c-0.2-0.1-0.3-0.6-0.1-0.7l0.7-0.1
			c1-0.1,1-0.3,1-2v-7.6v-2.2h0c-0.7,1.3-1,2-1.4,3l-2.1,4.2c-0.8,1.7-2,4.4-2.5,5.5c-0.1,0.1-0.5,0.1-0.6,0c-0.4-1.3-1.4-3.7-2-4.9
			l-2.1-4.6c-0.5-1-1.1-2.5-1.4-3.2h-0.1c0,1.2-0.1,3.1-0.1,4.1c-0.1,1.5-0.1,3.6-0.1,5.6c0,1.6,0,2,1.1,2.1l0.8,0.1
			c0.2,0.2,0.2,0.6,0,0.7c-0.9,0-1.6-0.1-2.5-0.1c-0.8,0-1.6,0-2.6,0.1c-0.2-0.1-0.2-0.6-0.1-0.7l0.4,0c1.2-0.1,1.3-0.5,1.5-2
			c0.2-1.5,0.2-3.1,0.4-5.6c0.1-1.6,0.2-3.6,0.2-5.1c0-1.1-0.4-1.6-1.3-1.8l-0.8-0.1c-0.1-0.2-0.1-0.6,0.1-0.7
			c0.7,0,1.4,0.1,2.3,0.1c0.8,0,1.7,0,2.6-0.1c0.1,1.4,0.7,2.7,1.3,4l2.7,5.6c0.2,0.4,0.8,1.6,1.1,2.2c0.4-0.7,0.7-1.4,1.3-2.5
			l2.3-4.6c0.8-1.6,1.5-3,1.9-4.6c0.7,0,1.5,0.1,2,0.1c1,0,1.9,0,2.5-0.1c0.3,0.1,0.3,0.6,0.1,0.7l-0.8,0.1
			c-1.1,0.1-1.3,0.6-1.3,1.8c0,3.6,0,7.1,0.2,10.7c0.1,1.6,0.3,1.8,1.1,1.9L194,31.4z"/>
		<path class="st0" d="M199.1,19.6c0-2.6-0.2-2.6-1.3-2.8l-0.4-0.1c-0.2-0.2-0.1-0.6,0-0.7c0.5,0,1,0,1.5,0c0.5,0,1.1,0,1.6,0h4.6
			c1.5,0,2.9,0,3.2-0.1c0.1,0.4,0.2,2.3,0.4,3.3c-0.1,0.2-0.6,0.2-0.8,0.1c-0.4-1.4-0.7-2-1.5-2.2c-0.6-0.2-1.3-0.2-1.9-0.2h-1.6
			c-1,0-1,0-1,1.4v4.1c0,0.6,0,0.7,0.6,0.7h1.2c2.1,0,2.5,0,2.7-1.1l0.2-0.8c0.2-0.2,0.6-0.2,0.8,0c0,0.6-0.1,1.5-0.1,2.4
			c0,0.9,0,1.8,0.1,2.5c-0.1,0.2-0.6,0.2-0.8,0l-0.2-1c-0.2-1-0.6-1.1-2.7-1.1h-1.2c-0.6,0-0.6,0-0.6,0.7V28c0,1.2,0.1,2.1,0.4,2.5
			c0.3,0.3,0.7,0.5,2.7,0.5c3.1,0,3.6-0.7,4.4-2.6c0.2-0.2,0.6-0.1,0.8,0.1c-0.1,1-0.7,2.8-1,3.5c-0.5,0-1.3,0-2.3,0
			c-1,0-2.2,0-3.6,0h-2.7c-1.1,0-2.5,0-3.6,0.1c-0.2-0.1-0.2-0.5,0-0.7l0.9-0.1c1.1-0.1,1.3-0.2,1.3-2.7V19.6z"/>
		<path class="st0" d="M46.4,2.8c0-1.5-0.1-1.5-1-1.7L45,1c-0.1-0.1-0.1-0.5,0-0.5c0.7,0,1.4,0.1,2.1,0.1c0.7,0,1.4,0,2.2-0.1
			c0.2,0.1,0.2,0.4,0,0.5L49.1,1c-0.9,0.2-1,0.2-1,1.7v3.1c0,2.2,0.7,3.7,2.8,3.7c2,0,2.8-1.5,2.8-3.6v-2c0-2.2-0.1-2.7-1.1-2.8
			L52.1,1c-0.1-0.1-0.1-0.4,0-0.5c0.7,0,1.2,0.1,1.8,0.1c0.6,0,1.1,0,1.8-0.1C56,0.5,56,0.8,55.8,1L55.2,1c-0.6,0.1-0.7,0.7-0.7,2.8
			V6c0,2.8-1.3,4.2-4.1,4.2c-1.4,0-2.4-0.3-3.1-0.9c-0.7-0.7-0.9-1.7-0.9-3.1V2.8z"/>
		<path class="st0" d="M70.3,3.8c0-2.2-0.1-2.7-0.9-2.8L68.7,1c-0.2-0.1-0.1-0.4,0-0.5c0.8,0,1.3,0.1,1.9,0.1c0.6,0,1.1,0,1.8-0.1
			c0.2,0.1,0.2,0.4,0,0.5L71.8,1c-0.6,0.1-0.7,0.7-0.7,2.8v3.7c0,0.4,0,2.2,0.1,2.5c-0.1,0.1-0.3,0.2-0.5,0.2
			c-0.2-0.3-0.7-0.8-2-2.2l-3.3-3.5C64.5,3.6,64,3,63.7,2.8c-0.1,0-0.1,0.2-0.1,0.9v2.9c0,2.2,0.1,2.7,0.9,2.8l0.7,0.1
			c0.2,0.1,0.1,0.4,0,0.5c-0.8,0-1.3-0.1-1.9-0.1c-0.6,0-1,0-1.8,0.1c-0.2-0.1-0.2-0.4,0-0.5l0.7-0.1c0.6-0.1,0.7-0.7,0.7-2.8V2.7
			c0-0.7,0-1-0.5-1.3c-0.2-0.1-0.6-0.3-0.8-0.3L61.2,1c-0.2-0.1-0.2-0.5,0-0.5c0.8,0.1,1.4,0.1,1.9,0.1c0.3,0,0.6,0,0.9-0.1
			c0.4,0.8,1.2,1.8,2.1,2.7l2.1,2.1c0.5,0.5,1.7,1.9,2,2c0.1,0,0.1-0.4,0.1-0.9V3.8z"/>
		<path class="st0" d="M79.7,2.8c0-1.5-0.1-1.6-1-1.7L78.2,1c-0.2-0.1-0.1-0.5,0-0.5c0.8,0,1.5,0.1,2.2,0.1c0.7,0,1.4,0,2.2-0.1
			c0.2,0.1,0.2,0.4,0,0.5L82.3,1c-0.9,0.2-1,0.2-1,1.7v4.9c0,1.5,0.1,1.6,1,1.7l0.4,0.1c0.2,0.1,0.1,0.5,0,0.5
			c-0.8,0-1.6-0.1-2.2-0.1c-0.7,0-1.4,0-2.2,0.1c-0.2-0.1-0.2-0.4,0-0.5l0.4-0.1c0.9-0.2,1-0.2,1-1.7V2.8z"/>
		<path class="st0" d="M89.7,2.8C89,1.4,89,1.3,88.4,1.1L87.7,1c-0.1-0.1-0.2-0.4,0-0.5c0.6,0,1.3,0.1,2,0.1c0.8,0,1.4,0,2.1-0.1
			C92,0.5,92,0.8,91.8,1L91.3,1c-0.6,0.1-0.6,0.4-0.1,1.4l1.1,2.4c0.5,1.2,0.9,2.1,1.2,2.8c0.4-0.9,0.8-1.8,1.2-2.7
			c0.5-1,1.1-2.5,1.3-3.1c0.2-0.5,0.1-0.6-0.5-0.7L95.2,1c-0.2-0.1-0.1-0.4,0-0.5c0.6,0,1.2,0.1,1.8,0.1c0.7,0,1.2,0,1.5-0.1
			c0.2,0.1,0.3,0.4,0.1,0.5l-0.6,0.1c-0.7,0.1-0.8,0.3-1.5,1.8l-1.7,3.6c-0.7,1.4-1.3,3-1.5,3.7c-0.1,0.1-0.2,0.1-0.3,0.1
			c-0.1,0-0.2,0-0.3-0.1c-0.2-0.6-0.4-1.3-0.7-1.9L89.7,2.8z"/>
		<path class="st0" d="M104.8,2.8c0-1.5-0.1-1.6-0.9-1.7L103.6,1c-0.2-0.1-0.1-0.5,0-0.5c0.3,0,0.7,0,1,0c0.3,0,0.7,0,1,0h3.1
			c1,0,1.8,0,2-0.1c0,0.3,0.1,1.3,0.2,2.2c-0.1,0.2-0.4,0.2-0.6,0c-0.1-0.6-0.3-0.8-0.4-1c-0.3-0.5-1.3-0.5-1.8-0.5h-1
			c-0.8,0-0.8,0-0.8,0.7v2.4c0,0.4,0,0.4,0.4,0.4h1c1.2,0,1.3-0.2,1.4-0.8l0.1-0.4c0.1-0.2,0.4-0.1,0.5,0c0,0.6,0,1,0,1.5
			c0,0.5,0,0.9,0,1.6c-0.1,0.2-0.4,0.2-0.5,0l-0.1-0.4c-0.2-0.7-0.3-0.8-1.4-0.8h-1c-0.4,0-0.4,0.1-0.4,0.5v1.6c0,0.7,0,1.3,0.2,1.6
			c0.2,0.2,0.6,0.3,1.8,0.3c1.4,0,2.2-0.1,2.8-1.8c0.2-0.1,0.5-0.1,0.6,0.1c-0.1,0.9-0.4,2-0.7,2.4c-0.7,0-1.3,0-1.9,0
			c-0.6,0-1.2,0-1.8,0h-1.9c-0.7,0-1.4,0-2.4,0.1c-0.2-0.1-0.2-0.4,0-0.5l0.6-0.1c0.9-0.1,1-0.2,1-1.7V2.8z"/>
		<path class="st0" d="M120.4,1.7c0-0.6,0.2-0.6,1-0.6c1.5,0,2.3,1,2.3,2c0,1.5-0.7,2.1-2.2,2.1c-1.1,0-1.1,0-1.1-0.5V1.7z
			 M118.8,7.6c0,1.5-0.1,1.5-1,1.7l-0.3,0.1c-0.2,0.1-0.2,0.5,0,0.5c0.8,0,1.4-0.1,2.1-0.1c0.7,0,1.4,0,2.3,0.1
			c0.2-0.1,0.2-0.4,0-0.5l-0.5-0.1c-0.9-0.1-1-0.2-1-1.7V6.1c0-0.3,0-0.3,0.6-0.3c0.3,0,0.7,0.1,0.9,0.3c0.5,0.7,1,1.7,1.6,2.4
			c1,1.2,1.7,1.6,3,1.6c0.4,0,0.7,0,0.9-0.1c0.1-0.1,0.1-0.3,0-0.3c-0.3,0-0.8-0.1-1.2-0.5c-0.7-0.6-1.7-1.7-2.8-3.5
			c-0.1-0.1-0.1-0.2,0-0.3c0.9-0.3,1.9-0.9,1.9-2.3c0-2.3-2.2-2.6-4.2-2.6c-1.2,0-2.4,0-3.6,0.1c-0.2,0.1-0.2,0.5,0,0.5l0.6,0.1
			c0.5,0.1,0.5,0.4,0.5,1.9V7.6z"/>
		<path class="st0" d="M134.6,5.5c-1-0.5-1.9-1.4-1.9-2.6c0-1.6,1.2-2.7,3.4-2.7c0.8,0,1.3,0.2,2,0.3c0.2,0.4,0.3,1.2,0.3,2.1
			c-0.1,0.2-0.5,0.2-0.6,0c-0.2-0.8-0.7-1.9-2-1.9c-1.3,0-1.8,0.7-1.8,1.5c0,0.8,0.6,1.3,1.5,1.7l1.4,0.7c0.8,0.4,1.8,1.3,1.8,2.8
			c0,1.7-1.4,2.8-3.5,2.8c-1.3,0-2.2-0.5-2.5-0.7c-0.2-0.3-0.5-1.1-0.5-2.2c0.1-0.2,0.4-0.2,0.6,0c0.2,0.8,1.1,2.3,2.6,2.3
			c1.1,0,1.8-0.6,1.8-1.6c0-0.7-0.3-1.4-1.5-2L134.6,5.5z"/>
		<path class="st0" d="M146,2.8c0-1.5-0.1-1.6-1-1.7L144.6,1c-0.2-0.1-0.1-0.5,0-0.5c0.9,0,1.5,0.1,2.2,0.1c0.7,0,1.4,0,2.2-0.1
			c0.2,0.1,0.2,0.4,0,0.5L148.7,1c-0.9,0.2-1,0.2-1,1.7v4.9c0,1.5,0.1,1.6,1,1.7l0.4,0.1c0.2,0.1,0.1,0.5,0,0.5
			c-0.8,0-1.5-0.1-2.2-0.1c-0.7,0-1.4,0-2.2,0.1c-0.2-0.1-0.2-0.4,0-0.5l0.4-0.1c0.9-0.2,1-0.2,1-1.7V2.8z"/>
		<path class="st0" d="M158.5,1.7c0-0.6,0-0.6-0.5-0.6h-0.7c-1.3,0-1.9,0.1-2.4,1.6c-0.2,0.1-0.5,0.1-0.5-0.1c0.2-0.9,0.5-2,0.6-2.6
			c0.1-0.1,0.3-0.1,0.4,0c0,0.4,0.3,0.4,1.2,0.4h6.1c0.8,0,1,0,1.1-0.4c0.2-0.1,0.3,0,0.4,0.1c-0.2,0.6-0.3,1.7-0.2,2.5
			c-0.1,0.2-0.5,0.2-0.5,0c-0.2-1.4-0.7-1.6-2-1.6h-0.7c-0.4,0-0.5,0-0.5,0.6v6c0,1.5,0.1,1.6,1,1.7l0.6,0.1c0.1,0.1,0.1,0.5,0,0.5
			c-0.9,0-1.7-0.1-2.4-0.1c-0.7,0-1.5,0-2.4,0.1c-0.2-0.1-0.2-0.4,0-0.5l0.6-0.1c0.9-0.1,1-0.2,1-1.7V1.7z"/>
		<path class="st0" d="M172.9,7c0-0.7-0.1-0.8-0.6-1.9l-1.6-2.9c-0.5-0.9-0.7-1.1-1.2-1.2L168.9,1c-0.2-0.1-0.1-0.5,0.1-0.5
			c0.7,0,1.2,0.1,2,0.1c0.7,0,1.2,0,1.9-0.1c0.2,0.1,0.2,0.4,0,0.5L172.5,1c-0.5,0.1-0.6,0.2-0.2,0.9l0.8,1.5c0.3,0.7,0.6,1.2,1,1.8
			c0.3-0.6,0.7-1.1,1-1.8l0.9-1.6c0.3-0.6,0.4-0.8-0.2-0.9L175.4,1c-0.2-0.1-0.2-0.5,0-0.5c0.7,0,1.2,0.1,1.7,0.1
			c0.5,0,0.9,0,1.5-0.1c0.2,0.1,0.2,0.4,0.1,0.5l-0.5,0.1c-0.7,0.1-0.8,0.3-1.5,1.4l-1.3,2.2c-0.8,1.2-0.8,1.5-0.8,2.1v1.2
			c0,1.3,0.1,1.4,1,1.5l0.6,0.1c0.1,0.1,0.1,0.5-0.1,0.5c-1,0-1.7-0.1-2.3-0.1c-0.7,0-1.4,0-2.3,0.1c-0.2-0.1-0.2-0.4-0.1-0.5
			l0.6-0.1c0.9-0.1,1-0.2,1-1.5V7z"/>
		<path class="st0" d="M191.5,0.7c2.4,0,3.5,2.4,3.5,4.7c0,3-1.6,4.1-3.2,4.1c-2.5,0-3.6-2.4-3.6-4.7C188.2,1.8,190,0.7,191.5,0.7z
			 M191.7,0.1c-3.2,0-5.4,2.2-5.4,5.1c0,2.7,2,4.9,5.4,4.9c3.1,0,5.3-2.1,5.3-5.1C197,2.4,195.2,0.1,191.7,0.1z"/>
		<path class="st0" d="M202.5,2.8c0-1.5-0.1-1.5-0.9-1.7L201.3,1c-0.2-0.1-0.1-0.5,0-0.5c0.3,0,0.6,0,0.9,0c0.3,0,0.7,0,1,0h3
			c1,0,1.8,0,2.1-0.1c0,0.3,0,1.3,0.1,2.2c-0.1,0.2-0.4,0.2-0.6,0c-0.1-0.6-0.3-0.8-0.4-1c-0.4-0.5-1.3-0.5-1.9-0.5h-0.8
			c-0.7,0-0.7,0-0.7,0.8v2.5c0,0.4,0,0.4,0.4,0.4h1.2c1.2,0,1.3-0.2,1.4-0.8l0.1-0.4c0.1-0.2,0.4-0.1,0.5,0c0,0.6,0,1,0,1.5
			c0,0.5,0,0.9,0,1.6c-0.1,0.2-0.4,0.2-0.5,0l-0.1-0.4c-0.2-0.7-0.3-0.8-1.4-0.8h-1.2c-0.4,0-0.4,0.1-0.4,0.5v1.6
			c0,1.5,0.1,1.7,1,1.7l0.7,0.1c0.1,0.1,0.1,0.5,0,0.5c-1.1,0-1.8-0.1-2.5-0.1c-0.7,0-1.4,0-2.2,0.1c-0.2-0.1-0.2-0.4,0-0.5l0.4-0.1
			c0.9-0.2,1-0.2,1-1.7V2.8z"/>
	</g>
	<g>
		<path class="st1" d="M6.5,6.4C6.1,6.4,4.1,6,4.1,6s1.4,1.6,1.6,1.8C5.4,8.1,4.1,9.6,4.1,9.6s2-0.4,2.4-0.5
			c0.1,0.4,0.8,2.3,0.8,2.3S7.9,9.5,8,9.1c0.4,0.1,2.4,0.5,2.4,0.5S9.1,8.1,8.8,7.8C9.1,7.5,10.4,6,10.4,6S8.4,6.4,8,6.4
			C7.9,6.1,7.3,4.1,7.3,4.1S6.6,6.1,6.5,6.4z M7.3,5.9c0.2,0.5,0.4,1.2,0.4,1.2s0.7-0.1,1.2-0.2c-0.3,0.4-0.8,1-0.8,1
			s0.5,0.6,0.8,0.9C8.4,8.6,7.7,8.5,7.7,8.5S7.4,9.2,7.3,9.7C7.1,9.2,6.8,8.5,6.8,8.5S6.1,8.6,5.6,8.7c0.3-0.4,0.8-0.9,0.8-0.9
			s-0.5-0.6-0.8-1c0.5,0.1,1.2,0.2,1.2,0.2S7.1,6.4,7.3,5.9z"/>
		<g>
			<g>
				<path class="st1" d="M8,35.9C8,35.9,8,35.9,8,35.9C8.1,35.9,8.1,35.9,8,35.9z"/>
			</g>
			<g>
				<g>
					<path class="st1" d="M12.3,23.2c0.1-0.3,0.2-0.5,0.3-0.7c0.1-0.1,0.1-0.1,0.2-0.1l0.1,0c0,0,0-0.1,0-0.1c-0.1,0-0.2,0-0.3,0
						c-0.1,0-0.2,0-0.3,0c0,0,0,0.1,0,0.1l0.1,0c0.1,0,0.1,0,0.1,0.2c-0.2,0.4-0.3,0.8-0.5,1.2c0-0.1-0.1-0.2-0.2-0.4l-0.2-0.5
						c-0.1-0.3-0.1-0.4-0.1-0.4c0,0,0,0,0.1-0.1l0.1,0c0,0,0-0.1,0-0.1c-0.2,0-0.3,0-0.4,0c-0.1,0-0.2,0-0.4,0c0,0,0,0.1,0,0.1
						l0.1,0c0.1,0,0.2,0.1,0.2,0.3l0.5,1.3c0.1,0.1,0.1,0.3,0.1,0.4c0,0,0,0,0.1,0c0,0,0,0,0.1,0c0.1-0.2,0.2-0.5,0.3-0.8L12.3,23.2
						z"/>
					<path class="st1" d="M13.7,23.9c0,0.3,0,0.3,0.2,0.3l0.1,0c0,0,0,0.1,0,0.1c-0.1,0-0.3,0-0.4,0c-0.1,0-0.3,0-0.4,0
						c0,0,0-0.1,0-0.1l0.1,0c0.1,0,0.2,0,0.2-0.3v-1.1c0-0.3,0-0.3-0.2-0.4l-0.1,0c0,0,0-0.1,0-0.1c0.1,0,0.3,0,0.4,0
						c0.1,0,0.3,0,0.4,0c0,0,0,0.1,0,0.1l-0.1,0c-0.1,0-0.2,0-0.2,0.4V23.9z"/>
					<path class="st1" d="M14.9,22.5c0-0.1,0-0.1-0.1-0.1h-0.2c-0.3,0-0.4,0-0.5,0.3c0,0-0.1,0-0.1,0c0.1-0.2,0.1-0.4,0.1-0.5
						c0,0,0,0,0,0c0,0,0,0,0,0c0,0.1,0.1,0.1,0.3,0.1h1.2c0.1,0,0.2,0,0.2-0.1c0,0,0,0,0,0c0,0,0,0,0,0c0,0.1-0.1,0.4,0,0.5
						c0,0-0.1,0-0.1,0c0-0.2-0.1-0.3-0.4-0.3h-0.2c-0.1,0-0.1,0-0.1,0.1v1.3c0,0.3,0,0.3,0.2,0.3l0.1,0c0,0,0,0.1,0,0.1
						c-0.2,0-0.3,0-0.4,0c-0.1,0-0.3,0-0.5,0c0,0,0-0.1,0-0.1l0.1,0c0.1,0,0.2,0,0.2-0.3V22.5z"/>
					<path class="st1" d="M16.9,23.6c0.1,0,0.1,0,0.1,0.1l0.1,0.4c0,0.1,0,0.2-0.1,0.2l-0.1,0c0,0,0,0.1,0,0.1c0.1,0,0.2,0,0.4,0
						c0.2,0,0.3,0,0.4,0c0,0,0-0.1,0-0.1l0,0c-0.2,0-0.2,0-0.2-0.3l-0.4-1.3c0-0.1-0.1-0.3-0.1-0.4c0,0,0,0,0,0c0,0-0.1,0.1-0.2,0.1
						c0,0,0,0.1-0.1,0.2l-0.4,1.1c-0.1,0.2-0.1,0.3-0.2,0.4c0,0.1-0.1,0.1-0.2,0.1l-0.1,0c0,0,0,0.1,0,0.1c0.1,0,0.2,0,0.3,0
						c0.1,0,0.2,0,0.3,0c0,0,0-0.1,0-0.1l-0.1,0c-0.1,0-0.1,0-0.1-0.2l0.1-0.3c0-0.1,0-0.1,0.1-0.1H16.9z M16.6,23.5
						c-0.1,0-0.1,0-0.1-0.1l0.1-0.4c0.1-0.1,0.1-0.2,0.1-0.2h0c0,0,0,0.1,0.1,0.2l0.1,0.4c0,0.1,0,0.1-0.1,0.1H16.6z"/>
					<path class="st1" d="M11.9,26.1c0-0.1,0-0.2,0-0.2c0,0,0.1,0,0.2,0c0.5,0,0.8,0.3,0.8,0.9c0,0.5-0.2,0.9-0.7,0.9
						c-0.3,0-0.3-0.2-0.3-0.5V26.1z M11.6,27.3c0,0.3,0,0.3-0.2,0.4l-0.1,0c0,0,0,0.1,0,0.1c0.1,0,0.2,0,0.4,0c0.1,0,0.1,0,0.2,0
						c0.1,0,0.1,0,0.2,0c0.3,0,0.5,0,0.7-0.1c0.3-0.2,0.5-0.5,0.5-0.9c0-0.5-0.2-0.8-0.6-0.9c-0.2-0.1-0.4-0.1-0.7-0.1
						c-0.3,0-0.5,0-0.7,0c0,0,0,0.1,0,0.1l0.1,0c0.1,0,0.1,0.1,0.1,0.4V27.3z"/>
					<path class="st1" d="M13.7,26.1c0-0.3,0-0.3-0.2-0.4l-0.1,0c0,0,0-0.1,0-0.1c0.1,0,0.3,0,0.4,0c0.1,0,0.3,0,0.4,0
						c0,0,0,0.1,0,0.1l-0.1,0c-0.1,0-0.2,0-0.2,0.4v0.7c0,0.4,0.1,0.8,0.5,0.8c0.4,0,0.6-0.3,0.6-0.8v-0.4c0-0.2,0-0.5-0.1-0.6
						c0,0-0.1-0.1-0.1-0.1l-0.1,0c0,0,0-0.1,0-0.1c0.1,0,0.2,0,0.3,0c0.1,0,0.2,0,0.3,0c0,0,0,0.1,0,0.1l-0.1,0
						c-0.1,0-0.1,0-0.1,0.1c0,0.1,0,0.4,0,0.6v0.4c0,0.3,0,0.5-0.2,0.7c-0.2,0.2-0.4,0.2-0.6,0.2c-0.3,0-0.5-0.1-0.6-0.2
						c-0.1-0.1-0.2-0.3-0.2-0.7V26.1z"/>
					<path class="st1" d="M16.4,26.1c0-0.3,0-0.3,0.2-0.3l0.1,0c0,0,0-0.1,0-0.1c-0.1,0-0.3,0-0.4,0c-0.1,0-0.3,0-0.4,0
						c0,0,0,0.1,0,0.1l0.1,0c0.1,0,0.2,0,0.2,0.3v1.1c0,0.3,0,0.3-0.2,0.3l-0.1,0c0,0,0,0.1,0,0.1c0.1,0,0.3,0,0.4,0h0.3
						c0.2,0,0.3,0,0.4,0c0.1,0,0.2,0,0.3,0c0-0.1,0.1-0.3,0.1-0.4c0,0-0.1,0-0.1,0c-0.1,0.3-0.2,0.3-0.5,0.3c-0.2,0-0.3,0-0.3-0.1
						c0-0.1,0-0.2,0-0.3V26.1z"/>
					<g>
						<path class="st1" d="M17,26.7L17,26.7L17,26.7L17,26.7c0.1-0.1,0.2-0.2,0.3-0.2c0,0,0.1,0,0.2,0.1l0,0
							c0.2,0.1,0.3,0.1,0.4,0.1c0.1,0,0.3-0.1,0.3-0.3l0,0l-0.1,0l0,0c0,0.1-0.1,0.2-0.2,0.2c-0.1,0-0.1,0-0.3-0.1
							c-0.2-0.1-0.3-0.1-0.3-0.1C17.3,26.4,17,26.4,17,26.7z"/>
					</g>
				</g>
				<path class="st1" d="M30.1,19.8v-1.6c0,0-2.1,0.9-5.7,0.4c-3.4-0.5-4.8,0.4-4.8,0.4s-1.4-0.9-4.8-0.4C11.1,19.1,9,18.2,9,18.2
					v1.6H8V32h10c0,0,0.5,0.6,1.6,0.6c1.1,0,1.6-0.6,1.6-0.6h10V19.8H30.1z M19.1,30.8c0,0-1.2-0.8-4.6-0.4C11.1,30.8,9.8,30,9.8,30
					V19.3c0,0,1.4,0.6,4.9,0.1c3.4-0.4,4.4,0.4,4.4,0.4V30.8z M29.3,30.1c0,0-1.2,0.8-4.7,0.3C21.2,30,20,30.8,20,30.8V19.9
					c0,0,1-0.8,4.4-0.4c3.4,0.4,4.9-0.1,4.9-0.1V30.1z"/>
				<g>
					<path class="st1" d="M22.4,22.8C22.3,22.8,22.3,22.8,22.4,22.8c-0.1-0.2-0.2-0.4-0.6-0.4c-0.3,0-0.7,0.3-0.7,0.9
						c0,0.6,0.4,0.9,0.7,0.9c0.3,0,0.5-0.2,0.6-0.4c0,0,0.1,0,0.1,0c0,0.2-0.1,0.4-0.1,0.4c0,0-0.1,0-0.1,0c-0.1,0-0.2,0.1-0.4,0.1
						c-0.3,0-0.5-0.1-0.7-0.2c-0.2-0.2-0.4-0.4-0.4-0.8c0-0.3,0.1-0.6,0.3-0.8c0.2-0.2,0.5-0.2,0.7-0.2c0.2,0,0.3,0,0.5,0.1
						c0,0,0.1,0,0.1,0C22.3,22.4,22.3,22.6,22.4,22.8z"/>
					<path class="st1" d="M22.9,22.7c0-0.3,0-0.3-0.2-0.4l0,0c0,0,0-0.1,0-0.1c0.1,0,0.1,0,0.2,0c0.1,0,0.1,0,0.2,0h0.5
						c0.2,0,0.4,0,0.4,0c0,0,0,0.3,0,0.4c0,0-0.1,0-0.1,0c0-0.2-0.1-0.3-0.2-0.3c-0.1,0-0.2,0-0.2,0h-0.2c-0.1,0-0.1,0-0.1,0.2v0.6
						c0,0.1,0,0.1,0.1,0.1h0.1c0.3,0,0.3,0,0.3-0.1l0-0.1c0,0,0.1,0,0.1,0c0,0.1,0,0.2,0,0.3c0,0.1,0,0.2,0,0.3c0,0-0.1,0-0.1,0
						l0-0.1c0-0.1-0.1-0.1-0.3-0.1h-0.1c-0.1,0-0.1,0-0.1,0.1v0.4c0,0.2,0,0.3,0.1,0.3c0,0,0,0.1,0.3,0.1c0.4,0,0.4-0.1,0.5-0.3
						c0,0,0.1,0,0.1,0c0,0.1-0.1,0.4-0.1,0.4c-0.1,0-0.1,0-0.2,0c-0.1,0-0.2,0-0.4,0h-0.3c-0.1,0-0.3,0-0.4,0c0,0,0-0.1,0-0.1l0.1,0
						c0.1,0,0.2,0,0.2-0.4V22.7z"/>
					<path class="st1" d="M24.9,22.7c0-0.1,0-0.2,0-0.2c0,0,0,0,0.1,0c0.5,0,0.8,0.3,0.8,0.9c0,0.5-0.2,0.9-0.7,0.9
						c-0.3,0-0.2-0.2-0.2-0.5V22.7z M24.6,23.9c0,0.3,0,0.3-0.2,0.4l-0.1,0c0,0,0,0.1,0,0.1c0.1,0,0.3,0,0.4,0c0.1,0,0.1,0,0.2,0
						c0.1,0,0.1,0,0.2,0c0.3,0,0.5,0,0.6-0.1c0.4-0.2,0.5-0.5,0.5-0.9c0-0.5-0.2-0.8-0.6-0.9c-0.2-0.1-0.4-0.1-0.6-0.1
						c-0.3,0-0.5,0-0.7,0c0,0,0,0.1,0,0.1l0.1,0c0.1,0,0.1,0.1,0.1,0.3V23.9z"/>
					<path class="st1" d="M27.5,22.3c0.4,0,0.6,0.5,0.6,1c0,0.6-0.3,0.9-0.6,0.9c-0.5,0-0.6-0.6-0.6-1
						C26.9,22.6,27.2,22.3,27.5,22.3z M27.5,22.2c-0.6,0-1,0.5-1,1.1c0,0.5,0.4,1,1,1c0.6,0,1-0.4,1-1.1
						C28.5,22.7,28.2,22.2,27.5,22.2z"/>
					<path class="st1" d="M21.5,27.6c-0.1-0.1-0.1-0.3-0.1-0.5c0,0,0.1,0,0.1,0c0.1,0.2,0.2,0.5,0.5,0.5c0.2,0,0.4-0.1,0.4-0.3
						c0-0.2-0.1-0.3-0.3-0.4l-0.1-0.1c-0.2-0.1-0.4-0.3-0.4-0.6c0-0.3,0.2-0.6,0.7-0.6c0.2,0,0.3,0,0.4,0.1c0,0.1,0.1,0.3,0.1,0.4
						c0,0-0.1,0-0.1,0c0-0.2-0.1-0.4-0.4-0.4c-0.2,0-0.3,0.2-0.3,0.3c0,0.1,0.1,0.3,0.3,0.4l0.2,0.1c0.2,0.1,0.4,0.3,0.4,0.6
						c0,0.3-0.3,0.6-0.7,0.6C21.7,27.8,21.5,27.7,21.5,27.6z"/>
					<path class="st1" d="M23.2,26.1c0-0.3,0-0.3-0.1-0.3l-0.1,0c0,0,0-0.1,0-0.1c0.2,0,0.4,0,0.7,0c0.3,0,0.5,0,0.6,0.1
						c0.2,0.1,0.2,0.3,0.2,0.5c0,0.5-0.4,0.6-0.7,0.6c0,0,0,0-0.1,0c0,0,0-0.1,0-0.1c0.3-0.1,0.4-0.3,0.4-0.5c0-0.3-0.2-0.5-0.4-0.5
						c-0.1,0-0.1,0-0.1,0.1v1.3c0,0.3,0,0.3,0.2,0.3l0.1,0c0,0,0,0.1,0,0.1c-0.2,0-0.3,0-0.4,0c-0.1,0-0.3,0-0.4,0c0,0,0-0.1,0-0.1
						l0,0c0.1,0,0.2,0,0.2-0.4V26.1z"/>
					<path class="st1" d="M25,27.3c0,0.3,0,0.3-0.2,0.3l-0.1,0c0,0,0,0.1,0,0.1c0.1,0,0.3,0,0.4,0h0.3c0.2,0,0.3,0,0.4,0
						c0.1,0,0.2,0,0.2,0c0-0.1,0.1-0.3,0.1-0.4c0,0-0.1,0-0.1,0c-0.1,0.2-0.1,0.3-0.5,0.3c-0.2,0-0.3,0-0.3-0.1
						c0-0.1-0.1-0.2-0.1-0.3v-0.3c0-0.1,0-0.1,0.1-0.1h0.1c0.3,0,0.3,0,0.3,0.1l0,0.1c0,0,0.1,0,0.1,0c0-0.1,0-0.2,0-0.3
						c0-0.1,0-0.2,0-0.3c0,0-0.1,0-0.1,0l0,0.1c0,0.1-0.1,0.1-0.3,0.1h-0.1c-0.1,0-0.1,0-0.1-0.1V26c0-0.2,0-0.2,0.1-0.2h0.2
						c0.1,0,0.2,0,0.2,0c0.1,0,0.1,0.1,0.2,0.3c0,0,0.1,0,0.1,0c0-0.1,0-0.4,0-0.4c0,0-0.2,0-0.4,0h-0.6c-0.1,0-0.1,0-0.2,0
						c-0.1,0-0.1,0-0.2,0c0,0,0,0.1,0,0.1l0,0c0.1,0,0.2,0,0.2,0.4V27.3z"/>
					<path class="st1" d="M26.7,27.6c-0.1-0.1-0.1-0.3-0.1-0.5c0,0,0.1,0,0.1,0c0.1,0.2,0.2,0.5,0.5,0.5c0.2,0,0.4-0.1,0.4-0.3
						c0-0.2-0.1-0.3-0.3-0.4l-0.1-0.1c-0.2-0.1-0.4-0.3-0.4-0.6c0-0.3,0.2-0.6,0.7-0.6c0.2,0,0.3,0,0.4,0.1c0,0.1,0.1,0.3,0.1,0.4
						c0,0-0.1,0-0.1,0c0-0.2-0.1-0.4-0.4-0.4c-0.2,0-0.3,0.2-0.3,0.3c0,0.1,0.1,0.3,0.3,0.4l0.2,0.1c0.2,0.1,0.4,0.3,0.4,0.6
						c0,0.3-0.3,0.6-0.7,0.6C26.9,27.8,26.8,27.7,26.7,27.6z"/>
				</g>
			</g>
			<path class="st1" d="M19.5,0.5H0l0,17.8c0,16.9,10.8,26,19.5,31c8.8-4.9,19.5-14,19.5-31l0-17.8H19.5z M19.5,46.1
				c-1-0.5-1.9-1.1-2.9-1.8c0.8-0.3,1.5-0.9,2.9-0.9c1.4,0,2.1,0.5,2.9,0.9C21.5,44.9,20.5,45.5,19.5,46.1z M26.3,41.2
				c-0.5,0.4-0.7,0.6-1.2,0.7c-0.2,0-0.7,0.1-0.7,0.1c-2,0-2.4-1.2-4.9-1.2c-2.4,0-2.9,1.2-4.9,1.2c0,0-0.5,0-0.7-0.1
				c-0.5-0.1-0.7-0.2-1.2-0.7c-1-0.9-1.8-1.7-2.7-2.8c1.8,0,2.3,1.1,4.6,1.1c2,0,2.4-1.2,4.9-1.2c2.4,0,2.9,1.2,4.9,1.2
				c2.4,0,2.8-1.1,4.6-1.1C28.2,39.5,27.3,40.3,26.3,41.2z M36.4,18.5c0,7.2-2.2,12.9-5.4,17.4c0,0,0,0,0,0s-0.6-0.2-1.6-0.2
				c-2,0-2.6,1.2-5.1,1.2c-1.5,0-2.1-0.7-3.3-1v-2.9c0,0-0.4,0.5-1.6,0.5c-1.2,0-1.6-0.5-1.6-0.5v2.9c-1.2,0.3-1.8,1-3.3,1
				c-2.4,0-3-1.2-5.1-1.2c-1,0-1.6,0.2-1.6,0.2s0,0,0,0c-3.2-4.5-5.4-10.2-5.4-17.4l0-15.4h16.9h16.9L36.4,18.5z"/>
			<path class="st1" d="M21.1,15.1h6.7l2.3,1.3V11l-2.3,1.3h-6.7l0,0V7.1l1.3-2.3h-5.8L18,7.1v5.2h-6.7L9,11v5.4l2.3-1.3H18v2.7
				c0,0,0.9,0.1,1.6,0.5c0.7-0.4,1.6-0.5,1.6-0.5L21.1,15.1L21.1,15.1z"/>
		</g>
	</g>
</g>
</svg>
