<svg xmlns="http://www.w3.org/2000/svg" xmlns:xlink="http://www.w3.org/1999/xlink" viewBox="0 0 433.4 40.6" xmlns:v="https://vecta.io/nano"><g fill="#fff"><path d="M8.7 31.7c-3.4 0-6.3-.8-8.7-2l.8-5.1c2.3 1.4 5.2 2.6 8 2.6 2.4 0 4.1-1.2 4.1-3.5 0-2.2-1-3-5-4.9C2.5 16.5.4 14.6.4 10.1c0-5.2 3.8-8.2 8.9-8.2 3.1 0 5.3.7 7.3 1.8l-.8 5.1c-2-1.4-4.4-2.3-6.5-2.3-2.7 0-3.8 1.3-3.8 3.1 0 1.9.9 2.8 4.7 4.4 5.7 2.5 7.8 4.5 7.8 9.1 0 5.6-4 8.6-9.3 8.6m33.4-.3l-13-20.1v20.1h-5V2.2h5.1l12.4 19.1V2.2h4.9v29.2zM54.2 2.2h5.3v29.2h-5.3zM78.9 7v24.4h-5.3V7h-8.2V2.2h21.5l.8 4.8zM93 31.4V2.2h16.1v4.7H98.3v6.9h8.3l.8 4.8h-9.1v8h11.2v4.8zm58.2 0L149.7 10l-7 21.5H138L131 10l-1.4 21.4h-4.8L127 2.2h6.7l7 22 7-22h6.6l2.2 29.2z"/><use xlink:href="#B"/><path d="M199.9 31.7c-3.4 0-6.3-.8-8.7-2l.8-5.1c2.3 1.4 5.2 2.6 8 2.6 2.4 0 4.1-1.2 4.1-3.5 0-2.2-1-3-5-4.9-5.4-2.3-7.5-4.2-7.5-8.7 0-5.2 3.8-8.2 8.9-8.2 3.1 0 5.3.7 7.3 1.8l-.8 5c-2-1.4-4.4-2.3-6.5-2.3-2.6 0-3.8 1.3-3.8 3.1 0 1.9.9 2.8 4.7 4.4 5.7 2.4 7.8 4.5 7.8 9.1 0 5.7-4 8.7-9.3 8.7m15.4-.3V2.2h16.1v4.7h-10.8v6.9h8.3l.7 4.8h-9v8h11.2v4.8z"/><use xlink:href="#B" x="74.6"/><path d="M292.5 31.4L291 10l-7 21.5h-4.7l-7-21.5-1.4 21.4h-4.8l2.2-29.2h6.7l7 22 7-22h6.6l2.2 29.2zm32.4-11.7c0-3.7-1.6-6.1-4-6.1-3.7 0-6 5.6-6 10.2 0 3.7 1.6 6 4 6 3.7.1 6-5.5 6-10.1m-13.6 5c0-6.1 4.6-13 10.9-13 3.4 0 6.2 2.5 6.2 7.1 0 6.1-4.6 13-10.9 13-3.4 0-6.2-2.4-6.2-7.1"/><path d="M326.7 38.3c0-1.1.9-2 2.2-2s2.2.8 3 2.1c1-1.2 1.7-3.3 2.2-6.4l2.9-17.3h-4.2l.2-1.2 4.4-1.2.2-1.3c.8-4.6 2-7.2 4.7-9.3 1.5-1.2 3.1-1.8 4.9-1.8 2.7 0 4 1.6 4 3 0 1.1-.8 2.1-2.1 2.1-1.4 0-2.5-1.1-3-3.3-2.5.1-4.2 3.2-5.2 8.8l-.4 2.1h4.5l-.4 2.2h-4.5L338 27.7c-1 6.2-1.8 8.4-4.3 10.9-1.3 1.3-2.8 2-4.3 2-1.8 0-2.7-1.1-2.7-2.3m43-30.2l-3.8 11.3h7.5l-3.7-11.3zm7.9 23.6L375 24h-10.5l-2.5 7.4h-5.3L367.1 2h5.7l10.1 28.6-5.3 1.1zm18.8-25h-2.9V16h2.7c3.3 0 5.3-1.6 5.3-4.7 0-3-1.7-4.6-5.1-4.6m12.2 23.9l-5.4 1.1-7.2-11.5h-2.4v11.2h-5.3V2.2h8.6c6.2 0 9.9 3.1 9.9 8.8 0 4.2-2.1 6.9-5.5 8.2l7.3 11.4zM424.7 7v24.4h-5.3V7h-8.3V2.2h21.6l.7 4.8z"/></g><defs ><path id="B" d="M173.9 31.9c-6.7 0-11.1-4.2-11.1-11.8V2.2h5.3v17.6c0 4.5 1.9 7.2 5.8 7.2s5.9-2.6 5.9-7.1V2.2h5.3V20c.1 7.7-4.5 11.9-11.2 11.9"/></defs></svg>