<?xml version="1.0" encoding="utf-8"?>
<!-- Generator: Adobe Illustrator 25.2.1, SVG Export Plug-In . SVG Version: 6.00 Build 0)  -->
<svg version="1.1" id="Layer_1" xmlns="http://www.w3.org/2000/svg" xmlns:xlink="http://www.w3.org/1999/xlink" x="0px" y="0px"
	 viewBox="0 0 274.2 29.3" style="enable-background:new 0 0 274.2 29.3;" xml:space="preserve">
<style type="text/css">
	.Arched_x0020_Green{fill:url(#SVGID_1_);stroke:#FFFFFF;stroke-width:0.25;stroke-miterlimit:1;}
	.st0{fill:#FFFFFF;}
</style>
<linearGradient id="SVGID_1_" gradientUnits="userSpaceOnUse" x1="-42.9171" y1="194.6606" x2="-42.21" y2="193.9535">
	<stop  offset="0" style="stop-color:#20AC4B"/>
	<stop  offset="0.9831" style="stop-color:#19361A"/>
</linearGradient>
<g>
	<g>
		<path class="st0" d="M35.8,16.7c0,0.4,0,2.2,0,2.5c-0.1,0.2-0.3,0.2-0.5,0.2c-0.2-0.3-0.6-0.8-1.7-2l-3.3-3.8
			c-0.9-1-1.4-1.6-1.6-1.8c0,0,0,0.2,0,0.9v2.8c0,1.1,0,2.4,0.3,2.8c0.1,0.2,0.4,0.3,0.7,0.4l0.3,0c0.1,0.1,0.1,0.4,0,0.4
			c-0.5,0-1.1,0-1.6,0c-0.6,0-1,0-1.5,0c-0.1-0.1-0.1-0.3,0-0.4l0.3-0.1c0.3,0,0.5-0.1,0.6-0.3c0.2-0.4,0.2-1.7,0.2-2.8v-3.4
			c0-1.1,0-1.3-0.5-1.8c-0.2-0.1-0.6-0.2-0.8-0.3l-0.2,0c-0.1-0.1-0.1-0.4,0.1-0.4c0.5,0.1,1.3,0,1.7,0c0.3,0,0.6,0,1,0
			c0.2,0.6,1.8,2.4,2.3,3l1.4,1.5c0.6,0.7,1.9,2.2,2.1,2.3c0,0,0-0.1,0-0.3v-2.8c0-1.1,0-2.4-0.3-2.8c-0.1-0.2-0.4-0.3-0.7-0.4
			l-0.3,0c-0.1-0.1-0.1-0.4,0-0.4c0.6,0,1.1,0,1.6,0c0.6,0,1,0,1.5,0c0.1,0.1,0.1,0.3,0,0.4l-0.3,0.1c-0.3,0-0.5,0.1-0.6,0.3
			c-0.2,0.4-0.2,1.7-0.2,2.8V16.7z"/>
		<path class="st0" d="M42.9,10.1c2.3,0,3.2,2.5,3.2,4.6c0,2.9-1.3,4.1-2.9,4.1c-2.4,0-3.3-2.7-3.3-4.6
			C39.9,11.1,41.5,10.1,42.9,10.1z M43.1,9.5c-3,0-5.1,2.2-5.1,5.1c0,2.5,1.9,4.8,5.1,4.8c2.9,0,5-2.1,5-4.9
			C48.1,11.9,46.4,9.5,43.1,9.5z"/>
		<path class="st0" d="M52.5,10.9c0-0.6,0-0.6-0.4-0.6h-0.4c-1.3,0-1.7,0.2-2.2,1.3c-0.1,0.1-0.4,0-0.5-0.1c0.2-0.8,0.5-1.7,0.6-2.2
			c0,0,0.1-0.1,0.2-0.1c0.1,0,0.1,0,0.1,0.1c0.1,0.4,0.3,0.4,1.2,0.4h5.1c0.7,0,0.9,0,1.1-0.4c0.1,0,0.1-0.1,0.2-0.1
			c0.1,0,0.2,0,0.2,0.1c-0.1,0.6-0.3,1.8-0.2,2.3c-0.1,0.1-0.3,0.1-0.4,0c-0.2-1.1-0.5-1.4-2-1.4h-0.4c-0.4,0-0.4,0-0.4,0.6v6.2
			c0,1.5,0.1,1.6,0.8,1.6l0.5,0.1c0.1,0.1,0.1,0.4,0,0.4c-0.8,0-1.5,0-2.1,0c-0.6,0-1.3,0-2.2,0c-0.1-0.1-0.1-0.3,0-0.4l0.6-0.1
			c0.7-0.1,0.8-0.1,0.8-1.6V10.9z"/>
		<path class="st0" d="M61.8,11c0-0.7,0-0.7,0.8-0.7c1.2,0,2,1,2,2.1c0,1.4-0.6,2-2,2c-0.7,0-0.7,0-0.7-0.5V11z M60.1,17.1
			c0,1.5-0.1,1.6-0.8,1.6l-0.3,0c-0.1,0.1-0.1,0.4,0,0.4c0.7,0,1.3,0,1.9,0c0.6,0,1.3,0,1.9,0c0.1-0.1,0.1-0.3,0-0.4l-0.3,0
			c-0.7-0.1-0.8-0.1-0.8-1.6v-1.8c0-0.3,0-0.3,0.4-0.3c0.5,0,0.6,0.1,0.9,0.5c0.3,0.6,0.7,1.3,1.1,1.9c0.9,1.3,1.6,1.9,3,1.9
			c0.5,0,0.8,0,0.9-0.1c0-0.1,0-0.2,0-0.3c-0.2,0-0.6-0.1-1-0.4c-0.7-0.6-1.4-1.8-2.5-3.7c-0.1-0.1-0.1-0.2,0-0.2
			c0.7-0.3,1.7-0.9,1.7-2.3c0-1-0.5-1.7-1.3-2.1c-0.6-0.3-1.6-0.5-2.7-0.5c-1.2,0-2.4,0-3.3,0.1c-0.1,0.1-0.1,0.3,0,0.4l0.4,0
			c0.7,0.1,0.7,0.2,0.7,1.6V17.1z"/>
		<path class="st0" d="M70.6,11.8c0-1.5-0.1-1.6-0.8-1.7l-0.2,0c-0.1-0.1-0.1-0.4,0-0.4c0.3,0,0.6,0,0.9,0c0.3,0,0.6,0,1,0h2.7
			c0.9,0,1.7,0,1.9,0c0.1,0.2,0.1,1.4,0.2,2c-0.1,0.1-0.3,0.1-0.5,0.1c-0.2-0.8-0.4-1.2-0.9-1.3c-0.3-0.1-0.8-0.1-1.1-0.1h-1
			c-0.6,0-0.6,0-0.6,0.8v2.4c0,0.4,0,0.4,0.3,0.4h0.7c1.2,0,1.5,0,1.6-0.6l0.1-0.5c0.1-0.1,0.4-0.1,0.5,0c0,0.4,0,0.9,0,1.4
			c0,0.5,0,1,0,1.5c-0.1,0.1-0.3,0.1-0.5,0l-0.1-0.6c-0.1-0.6-0.3-0.6-1.6-0.6h-0.7c-0.3,0-0.3,0-0.3,0.4v1.8c0,0.7,0,1.2,0.2,1.5
			c0.2,0.2,0.4,0.3,1.6,0.3c1.8,0,2.1-0.4,2.6-1.5c0.1-0.1,0.4-0.1,0.5,0.1c-0.1,0.6-0.4,1.7-0.6,2.1c-0.3,0-0.8,0-1.4,0
			c-0.6,0-1.3,0-2.2,0h-1.6c-0.6,0-1.5,0-2.1,0c-0.1-0.1-0.1-0.3,0-0.4l0.5-0.1c0.7-0.1,0.8-0.1,0.8-1.6V11.8z"/>
		<path class="st0" d="M85,11.5c0-0.7,0-1,0.1-1.1c0.1-0.1,0.6-0.2,1.2-0.2c2.4,0,4,1.4,4,4.2c0,2.4-1.1,4.2-3.7,4.2
			c-1.5,0-1.6-0.7-1.6-2.1V11.5z M83.3,17.1c0,1.5-0.1,1.6-0.8,1.6l-0.3,0c-0.1,0.1-0.1,0.4,0,0.4c0.6,0,1.3,0,1.8,0
			c0.3,0,0.6,0,0.9,0c0.3,0,0.7,0,1.2,0c1.3,0,2.5-0.2,3.5-0.7c1.8-0.9,2.6-2.5,2.6-4.1c0-2.1-1.2-3.6-2.9-4.3c-1-0.4-2-0.5-3.4-0.5
			c-1.4,0-2.5,0-3.6,0.1c-0.1,0.1-0.1,0.3,0,0.4l0.3,0c0.7,0.1,0.7,0.3,0.7,1.6V17.1z"/>
		<path class="st0" d="M96,15c-0.3,0-0.4,0-0.2-0.4l0.6-1.7c0.3-0.7,0.4-1,0.4-1.1h0c0.1,0.1,0.2,0.4,0.4,1.1l0.6,1.7
			c0.1,0.3,0.1,0.4-0.3,0.4H96z M97.6,15.7c0.4,0,0.4,0,0.6,0.4l0.7,1.9c0.2,0.6,0.1,0.7-0.4,0.8l-0.3,0c-0.1,0.1-0.1,0.3,0,0.4
			c0.5,0,1.1,0,1.7,0c0.7,0,1.3,0,1.9,0c0.1-0.1,0.1-0.3,0-0.4l-0.2,0c-0.7-0.1-0.8-0.2-1.1-1.2l-2.1-6c-0.2-0.6-0.4-1.3-0.6-2
			c-0.1-0.1-0.1-0.1-0.2-0.1c0,0-0.5,0.6-1,0.7c0,0.2-0.1,0.6-0.3,1l-2,5.1c-0.3,0.8-0.5,1.4-0.7,1.7c-0.2,0.5-0.4,0.6-0.8,0.7
			l-0.4,0.1c-0.1,0.1-0.1,0.3,0,0.4c0.5,0,0.9,0,1.4,0c0.6,0,1.1,0,1.5,0c0.1-0.1,0.1-0.3,0-0.4L95,18.7c-0.5-0.1-0.6-0.1-0.3-1
			l0.6-1.7c0.1-0.4,0.1-0.4,0.5-0.4H97.6z"/>
		<path class="st0" d="M114.9,18.8c0.1,0.1,0.1,0.4,0,0.4c-0.6,0-1.2,0-1.7,0c-0.7,0-1.3,0-1.9,0c-0.1-0.1-0.2-0.3,0-0.4l0.4-0.1
			c0.6-0.1,0.6-0.2,0.6-1.2V13v-1.3h0c-0.4,0.8-0.6,1.2-0.9,1.8l-1.2,2.5c-0.5,1-1.2,2.6-1.5,3.2c-0.1,0.1-0.3,0.1-0.4,0
			c-0.2-0.8-0.9-2.2-1.2-2.9l-1.3-2.7c-0.3-0.6-0.7-1.5-0.8-1.9h0c0,0.7-0.1,1.8-0.1,2.4c0,0.9-0.1,2.1-0.1,3.3c0,0.9,0,1.2,0.6,1.3
			l0.5,0.1c0.1,0.1,0.1,0.4,0,0.4c-0.5,0-1,0-1.5,0c-0.5,0-1,0-1.5,0c-0.1-0.1-0.1-0.3,0-0.4l0.2,0c0.7-0.1,0.8-0.3,0.9-1.2
			c0.1-0.9,0.1-1.8,0.2-3.3c0.1-1,0.1-2.2,0.1-3c0-0.7-0.2-1-0.8-1.1l-0.5-0.1c-0.1-0.1-0.1-0.4,0.1-0.4c0.4,0,0.8,0,1.3,0
			c0.5,0,1,0,1.5,0c0.1,0.9,0.4,1.6,0.8,2.4l1.6,3.3c0.1,0.2,0.5,1,0.7,1.3c0.2-0.4,0.4-0.8,0.7-1.5l1.3-2.7
			c0.5-0.9,0.9-1.8,1.2-2.7c0.4,0,0.9,0,1.2,0c0.6,0,1.1,0,1.5,0c0.2,0.1,0.2,0.3,0,0.4l-0.5,0.1c-0.6,0.1-0.8,0.3-0.8,1.1
			c0,2.1,0,4.2,0.1,6.3c0,1,0.2,1.1,0.7,1.1L114.9,18.8z"/>
		<path class="st0" d="M118,11.8c0-1.5-0.1-1.6-0.8-1.7l-0.2,0c-0.1-0.1-0.1-0.4,0-0.4c0.3,0,0.6,0,0.9,0c0.3,0,0.6,0,1,0h2.7
			c0.9,0,1.7,0,1.9,0c0.1,0.2,0.1,1.4,0.2,2c-0.1,0.1-0.3,0.1-0.5,0.1c-0.2-0.8-0.4-1.2-0.9-1.3c-0.3-0.1-0.8-0.1-1.1-0.1h-1
			c-0.6,0-0.6,0-0.6,0.8v2.4c0,0.4,0,0.4,0.3,0.4h0.7c1.2,0,1.5,0,1.6-0.6l0.1-0.5c0.1-0.1,0.4-0.1,0.5,0c0,0.4,0,0.9,0,1.4
			c0,0.5,0,1,0,1.5c-0.1,0.1-0.3,0.1-0.5,0l-0.1-0.6c-0.1-0.6-0.3-0.6-1.6-0.6H120c-0.3,0-0.3,0-0.3,0.4v1.8c0,0.7,0,1.2,0.2,1.5
			c0.2,0.2,0.4,0.3,1.6,0.3c1.8,0,2.1-0.4,2.6-1.5c0.1-0.1,0.4-0.1,0.5,0.1c-0.1,0.6-0.4,1.7-0.6,2.1c-0.3,0-0.8,0-1.4,0
			c-0.6,0-1.3,0-2.2,0h-1.6c-0.6,0-1.5,0-2.1,0c-0.1-0.1-0.1-0.3,0-0.4l0.5-0.1c0.7-0.1,0.8-0.1,0.8-1.6V11.8z"/>
		<path class="st0" d="M27.5,1.8c0-0.9-0.1-0.9-0.6-1l-0.2,0c-0.1-0.1-0.1-0.3,0-0.3c0.4,0,0.8,0,1.3,0c0.4,0,0.8,0,1.3,0
			c0.1,0,0.1,0.3,0,0.3l-0.2,0c-0.6,0.1-0.6,0.1-0.6,1v1.8c0,1.3,0.4,2.2,1.7,2.2c1.2,0,1.7-0.9,1.7-2.2V2.4c0-1.3-0.1-1.6-0.6-1.7
			l-0.3,0c-0.1-0.1-0.1-0.3,0-0.3c0.4,0,0.7,0,1.1,0c0.4,0,0.7,0,1.1,0c0.1,0.1,0.1,0.3,0,0.3l-0.4,0c-0.3,0-0.4,0.4-0.4,1.7v1.3
			c0,1.7-0.8,2.5-2.4,2.5c-0.8,0-1.4-0.2-1.8-0.5c-0.4-0.4-0.6-1-0.6-1.8V1.8z"/>
		<path class="st0" d="M41.6,2.4c0-1.3-0.1-1.6-0.6-1.7l-0.4,0c-0.1-0.1-0.1-0.3,0-0.3c0.5,0,0.8,0,1.2,0c0.4,0,0.7,0,1.1,0
			c0.1,0.1,0.1,0.3,0,0.3l-0.4,0c-0.3,0-0.4,0.4-0.4,1.7v2.2c0,0.3,0,1.3,0,1.5c0,0.1-0.2,0.1-0.3,0.1c-0.1-0.2-0.4-0.4-1.2-1.3
			l-2-2.1c-0.5-0.5-0.8-0.9-1-1c-0.1,0-0.1,0.1-0.1,0.5v1.7c0,1.3,0.1,1.6,0.6,1.7l0.4,0c0.1,0.1,0.1,0.3,0,0.3c-0.5,0-0.8,0-1.1,0
			c-0.4,0-0.6,0-1.1,0c-0.1-0.1-0.1-0.3,0-0.3l0.4,0c0.3,0,0.4-0.4,0.4-1.7V1.8c0-0.4,0-0.6-0.3-0.8c-0.1-0.1-0.3-0.2-0.5-0.2
			l-0.2,0c-0.1-0.1-0.1-0.3,0-0.3c0.5,0,0.8,0,1.1,0c0.2,0,0.4,0,0.5,0c0.3,0.5,0.7,1,1.3,1.6l1.2,1.3c0.3,0.3,1,1.1,1.2,1.2
			c0.1,0,0.1-0.2,0.1-0.5V2.4z"/>
		<path class="st0" d="M47.2,1.8c0-0.9-0.1-0.9-0.6-1l-0.2,0c-0.1-0.1-0.1-0.3,0-0.3c0.5,0,0.9,0,1.3,0c0.4,0,0.8,0,1.3,0
			c0.1,0,0.1,0.3,0,0.3l-0.2,0c-0.6,0.1-0.6,0.1-0.6,1v2.9c0,0.9,0.1,0.9,0.6,1l0.2,0c0.1,0.1,0.1,0.3,0,0.3c-0.5,0-0.9,0-1.3,0
			c-0.4,0-0.8,0-1.3,0c-0.1,0-0.1-0.3,0-0.3l0.2,0c0.6-0.1,0.6-0.1,0.6-1V1.8z"/>
		<path class="st0" d="M53.1,1.8c-0.4-0.9-0.4-0.9-0.7-1L52,0.7c-0.1-0.1-0.1-0.3,0-0.3c0.3,0,0.8,0,1.2,0c0.5,0,0.8,0,1.3,0
			c0.1,0,0.1,0.3,0,0.3l-0.3,0c-0.3,0.1-0.3,0.2-0.1,0.9l0.6,1.4c0.3,0.7,0.5,1.2,0.7,1.6c0.3-0.5,0.5-1.1,0.7-1.6
			c0.3-0.6,0.6-1.5,0.8-1.9C57,0.9,57,0.9,56.6,0.8l-0.2,0c-0.1-0.1-0.1-0.2,0-0.3c0.4,0,0.7,0,1.1,0c0.4,0,0.7,0,0.9,0
			c0.1,0,0.2,0.3,0.1,0.3l-0.4,0.1c-0.4,0.1-0.5,0.2-0.9,1.1l-1,2.1c-0.4,0.8-0.8,1.8-0.9,2.2c0,0-0.1,0-0.2,0c0,0-0.1,0-0.2,0
			c-0.1-0.3-0.3-0.7-0.4-1.1L53.1,1.8z"/>
		<path class="st0" d="M62.1,1.8c0-0.9-0.1-0.9-0.5-1l-0.2,0c-0.1-0.1-0.1-0.3,0-0.3c0.2,0,0.4,0,0.6,0c0.2,0,0.4,0,0.6,0h1.8
			c0.6,0,1.1,0,1.2,0c0,0.2,0.1,0.8,0.1,1.3c-0.1,0.1-0.3,0.1-0.3,0c-0.1-0.3-0.2-0.5-0.2-0.6c-0.2-0.3-0.8-0.3-1.1-0.3h-0.6
			c-0.5,0-0.5,0-0.5,0.4v1.4c0,0.2,0,0.3,0.2,0.3h0.6c0.7,0,0.7-0.1,0.9-0.5l0.1-0.2c0.1-0.1,0.3-0.1,0.3,0c0,0.4,0,0.6,0,0.9
			c0,0.3,0,0.6,0,0.9c-0.1,0.1-0.3,0.1-0.3,0l-0.1-0.2c-0.1-0.4-0.2-0.5-0.9-0.5h-0.6c-0.2,0-0.2,0-0.2,0.3v0.9c0,0.4,0,0.8,0.1,0.9
			c0.1,0.1,0.3,0.2,1.1,0.2c0.8,0,1.3,0,1.7-1.1c0.1-0.1,0.3-0.1,0.3,0.1c-0.1,0.5-0.2,1.2-0.4,1.4c-0.4,0-0.8,0-1.1,0
			c-0.4,0-0.7,0-1.1,0h-1.1c-0.4,0-0.8,0-1.4,0c-0.1,0-0.1-0.3,0-0.3l0.3,0c0.6-0.1,0.6-0.1,0.6-1V1.8z"/>
		<path class="st0" d="M71.4,1.2c0-0.3,0.1-0.4,0.6-0.4c0.9,0,1.4,0.6,1.4,1.2c0,0.9-0.4,1.2-1.3,1.2c-0.6,0-0.7,0-0.7-0.3V1.2z
			 M70.4,4.7c0,0.9,0,0.9-0.6,1l-0.2,0c-0.1,0.1-0.1,0.3,0,0.3c0.5,0,0.9,0,1.3,0c0.4,0,0.8,0,1.4,0c0.1,0,0.1-0.3,0-0.3l-0.3,0
			c-0.6-0.1-0.6-0.1-0.6-1V3.8c0-0.2,0-0.2,0.4-0.2c0.2,0,0.4,0,0.5,0.2c0.3,0.4,0.6,1,0.9,1.4c0.6,0.7,1,1,1.8,1
			c0.2,0,0.4,0,0.5-0.1c0.1,0,0.1-0.2,0-0.2c-0.2,0-0.4-0.1-0.7-0.3c-0.4-0.3-1-1-1.6-2.1c0-0.1-0.1-0.1,0-0.2
			c0.5-0.2,1.1-0.6,1.1-1.4c0-1.4-1.3-1.5-2.5-1.5c-0.7,0-1.4,0-2.1,0.1c-0.1,0-0.1,0.3,0,0.3l0.4,0.1c0.3,0,0.3,0.3,0.3,1.1V4.7z"
			/>
		<path class="st0" d="M79.8,3.4c-0.6-0.3-1.2-0.8-1.2-1.5c0-0.9,0.7-1.6,2-1.6c0.4,0,0.8,0.1,1.2,0.2C82,0.7,82,1.2,82,1.7
			c0,0.1-0.3,0.1-0.3,0c-0.1-0.5-0.4-1.1-1.2-1.1c-0.8,0-1.1,0.4-1.1,0.9c0,0.5,0.4,0.7,0.9,1L81.1,3c0.5,0.2,1,0.8,1,1.6
			c0,1-0.8,1.6-2.1,1.6c-0.8,0-1.3-0.3-1.5-0.4c-0.1-0.2-0.3-0.6-0.3-1.3c0.1-0.1,0.2-0.1,0.3,0c0.1,0.5,0.7,1.4,1.5,1.4
			c0.7,0,1.1-0.3,1.1-0.9c0-0.4-0.2-0.8-0.9-1.2L79.8,3.4z"/>
		<path class="st0" d="M86.5,1.8c0-0.9-0.1-0.9-0.6-1l-0.2,0c-0.1-0.1-0.1-0.3,0-0.3c0.5,0,0.9,0,1.3,0c0.4,0,0.8,0,1.3,0
			c0.1,0,0.1,0.3,0,0.3l-0.2,0c-0.6,0.1-0.6,0.1-0.6,1v2.9c0,0.9,0.1,0.9,0.6,1l0.2,0c0.1,0.1,0.1,0.3,0,0.3c-0.5,0-0.9,0-1.3,0
			c-0.4,0-0.8,0-1.3,0c-0.1,0-0.1-0.3,0-0.3l0.2,0c0.6-0.1,0.6-0.1,0.6-1V1.8z"/>
		<path class="st0" d="M93.9,1.2c0-0.3,0-0.3-0.3-0.3h-0.4c-0.8,0-1.1,0.1-1.4,1c-0.1,0.1-0.3,0-0.3-0.1c0.1-0.6,0.3-1.2,0.3-1.5
			c0.1-0.1,0.2-0.1,0.2,0c0,0.3,0.2,0.2,0.7,0.2h3.6c0.5,0,0.6,0,0.7-0.2c0.1-0.1,0.2,0,0.2,0c-0.1,0.3-0.2,1-0.1,1.5
			c0,0.1-0.3,0.1-0.3,0c-0.1-0.8-0.4-0.9-1.2-0.9h-0.4c-0.2,0-0.3,0-0.3,0.3v3.5c0,0.9,0.1,1,0.6,1l0.3,0c0.1,0.1,0.1,0.3,0,0.3
			c-0.5,0-1,0-1.4,0c-0.4,0-0.9,0-1.4,0c-0.1,0-0.1-0.3,0-0.3l0.3,0c0.6-0.1,0.6-0.1,0.6-1V1.2z"/>
		<path class="st0" d="M102.4,4.3c0-0.4,0-0.5-0.4-1.1l-0.9-1.7c-0.3-0.5-0.4-0.6-0.7-0.7l-0.3-0.1c-0.1-0.1-0.1-0.3,0-0.3
			c0.4,0,0.7,0,1.2,0c0.4,0,0.7,0,1.1,0c0.1,0,0.1,0.3,0,0.3l-0.2,0c-0.3,0.1-0.3,0.1-0.1,0.5l0.5,0.9c0.2,0.4,0.4,0.7,0.6,1.1
			c0.2-0.3,0.4-0.7,0.6-1.1l0.5-0.9c0.2-0.4,0.2-0.5-0.1-0.5l-0.3,0c-0.1-0.1-0.1-0.3,0-0.3c0.4,0,0.7,0,1,0c0.3,0,0.6,0,0.9,0
			c0.1,0,0.1,0.3,0,0.3l-0.3,0.1c-0.4,0.1-0.5,0.2-0.9,0.8l-0.8,1.3c-0.5,0.7-0.5,0.9-0.5,1.2v0.7c0,0.8,0.1,0.8,0.6,0.9l0.3,0
			c0.1,0.1,0.1,0.3,0,0.3c-0.6,0-1,0-1.4,0c-0.4,0-0.8,0-1.4,0c-0.1,0-0.1-0.3,0-0.3l0.3,0c0.6-0.1,0.6-0.1,0.6-0.9V4.3z"/>
		<path class="st0" d="M113.5,0.6c1.4,0,2.1,1.4,2.1,2.8c0,1.8-0.9,2.4-1.9,2.4c-1.5,0-2.1-1.4-2.1-2.8
			C111.5,1.2,112.6,0.6,113.5,0.6z M113.6,0.2c-1.9,0-3.2,1.3-3.2,3c0,1.6,1.2,2.9,3.2,2.9c1.8,0,3.1-1.3,3.1-3
			C116.7,1.6,115.7,0.2,113.6,0.2z"/>
		<path class="st0" d="M120,1.8c0-0.9-0.1-0.9-0.5-1l-0.2,0c-0.1-0.1-0.1-0.3,0-0.3c0.2,0,0.4,0,0.6,0c0.2,0,0.4,0,0.6,0h1.8
			c0.6,0,1.1,0,1.2,0c0,0.2,0,0.8,0.1,1.3c-0.1,0.1-0.3,0.1-0.3,0c-0.1-0.3-0.2-0.5-0.2-0.6c-0.2-0.3-0.8-0.3-1.1-0.3h-0.5
			c-0.4,0-0.4,0-0.4,0.4v1.5c0,0.2,0,0.3,0.2,0.3h0.7c0.7,0,0.8-0.1,0.9-0.5l0.1-0.2c0.1-0.1,0.3-0.1,0.3,0c0,0.4,0,0.6,0,0.9
			c0,0.3,0,0.6,0,0.9c-0.1,0.1-0.3,0.1-0.3,0l-0.1-0.2c-0.1-0.4-0.2-0.5-0.9-0.5h-0.7c-0.2,0-0.2,0-0.2,0.3v1c0,0.9,0,1,0.6,1l0.4,0
			c0.1,0.1,0.1,0.3,0,0.3c-0.6,0-1.1,0-1.5,0c-0.4,0-0.8,0-1.3,0c-0.1,0-0.1-0.3,0-0.3l0.2,0c0.6-0.1,0.6-0.1,0.6-1V1.8z"/>
	</g>
	<g>
		<path class="st0" d="M3.8,4c-0.2,0-1.4-0.3-1.4-0.3s0.8,0.9,0.9,1.1C3.2,5,2.4,5.9,2.4,5.9s1.2-0.2,1.4-0.3C3.9,5.8,4.3,7,4.3,7
			s0.4-1.2,0.5-1.4c0.2,0,1.4,0.3,1.4,0.3S5.4,5,5.2,4.8c0.1-0.2,0.9-1.1,0.9-1.1S5,3.9,4.8,4C4.7,3.8,4.3,2.6,4.3,2.6
			S3.9,3.8,3.8,4z M4.3,3.7c0.1,0.3,0.2,0.7,0.2,0.7S5,4.3,5.3,4.2C5.1,4.4,4.8,4.8,4.8,4.8s0.3,0.3,0.5,0.6C5,5.3,4.5,5.2,4.5,5.2
			S4.4,5.6,4.3,5.9C4.2,5.6,4.1,5.2,4.1,5.2S3.6,5.3,3.3,5.3c0.2-0.2,0.5-0.6,0.5-0.6S3.5,4.4,3.3,4.2c0.3,0.1,0.7,0.1,0.7,0.1
			S4.2,3.9,4.3,3.7z"/>
		<g>
			<g>
				<path class="st0" d="M4.8,21.4C4.8,21.4,4.8,21.4,4.8,21.4C4.8,21.4,4.8,21.4,4.8,21.4z"/>
			</g>
			<g>
				<g>
					<path class="st0" d="M7.3,13.9c0.1-0.2,0.1-0.3,0.2-0.4c0-0.1,0.1-0.1,0.1-0.1l0,0c0,0,0,0,0,0c-0.1,0-0.1,0-0.2,0
						c-0.1,0-0.1,0-0.2,0c0,0,0,0,0,0l0.1,0c0.1,0,0.1,0,0,0.1c-0.1,0.2-0.2,0.5-0.3,0.7C7,14.2,7,14.1,7,14l-0.1-0.3
						c-0.1-0.2-0.1-0.2-0.1-0.2c0,0,0,0,0.1,0l0,0c0,0,0,0,0,0c-0.1,0-0.2,0-0.2,0c-0.1,0-0.1,0-0.2,0c0,0,0,0,0,0l0,0
						c0.1,0,0.1,0,0.1,0.2l0.3,0.8c0,0.1,0.1,0.2,0.1,0.2c0,0,0,0,0,0c0,0,0,0,0,0c0-0.1,0.1-0.3,0.2-0.5L7.3,13.9z"/>
					<path class="st0" d="M8.1,14.3c0,0.2,0,0.2,0.1,0.2l0,0c0,0,0,0,0,0.1c-0.1,0-0.2,0-0.2,0c-0.1,0-0.2,0-0.2,0c0,0,0,0,0-0.1
						l0,0c0.1,0,0.1,0,0.1-0.2v-0.7c0-0.2,0-0.2-0.1-0.2l0,0c0,0,0,0,0,0c0.1,0,0.2,0,0.2,0c0.1,0,0.2,0,0.2,0c0,0,0,0,0,0l0,0
						c-0.1,0-0.1,0-0.1,0.2V14.3z"/>
					<path class="st0" d="M8.8,13.5C8.8,13.5,8.8,13.4,8.8,13.5l-0.1-0.1c-0.2,0-0.2,0-0.3,0.2c0,0,0,0-0.1,0c0-0.1,0.1-0.2,0.1-0.3
						c0,0,0,0,0,0c0,0,0,0,0,0c0,0,0,0,0.2,0h0.7c0.1,0,0.1,0,0.1,0c0,0,0,0,0,0c0,0,0,0,0,0c0,0.1,0,0.2,0,0.3c0,0,0,0-0.1,0
						c0-0.1-0.1-0.2-0.2-0.2H9.1c0,0,0,0,0,0.1v0.8c0,0.2,0,0.2,0.1,0.2l0.1,0c0,0,0,0,0,0.1c-0.1,0-0.2,0-0.3,0s-0.2,0-0.3,0
						c0,0,0,0,0-0.1l0.1,0c0.1,0,0.1,0,0.1-0.2V13.5z"/>
					<path class="st0" d="M10,14.2C10.1,14.2,10.1,14.2,10,14.2l0.2,0.3c0,0.1,0,0.1,0,0.1l0,0c0,0,0,0,0,0.1c0.1,0,0.1,0,0.2,0
						c0.1,0,0.2,0,0.2,0c0,0,0,0,0-0.1l0,0c-0.1,0-0.1,0-0.1-0.1l-0.3-0.8c0-0.1-0.1-0.2-0.1-0.2c0,0,0,0,0,0c0,0-0.1,0.1-0.1,0.1
						c0,0,0,0.1,0,0.1l-0.2,0.6c0,0.1-0.1,0.2-0.1,0.2c0,0.1,0,0.1-0.1,0.1l-0.1,0c0,0,0,0,0,0.1c0.1,0,0.1,0,0.2,0
						c0.1,0,0.1,0,0.2,0c0,0,0,0,0-0.1l-0.1,0c-0.1,0-0.1,0,0-0.1l0.1-0.2c0,0,0,0,0.1,0H10z M9.8,14.1C9.8,14.1,9.8,14.1,9.8,14.1
						l0-0.3c0-0.1,0-0.1,0.1-0.1h0c0,0,0,0,0.1,0.1l0.1,0.2c0,0.1,0,0.1,0,0.1H9.8z"/>
					<path class="st0" d="M7.1,15.6c0-0.1,0-0.1,0-0.1c0,0,0.1,0,0.1,0c0.3,0,0.5,0.2,0.5,0.5c0,0.3-0.1,0.5-0.4,0.5
						c-0.2,0-0.2-0.1-0.2-0.3V15.6z M6.9,16.3c0,0.2,0,0.2-0.1,0.2l0,0c0,0,0,0,0,0.1c0.1,0,0.1,0,0.2,0c0,0,0.1,0,0.1,0
						c0,0,0.1,0,0.1,0c0.1,0,0.3,0,0.4-0.1c0.2-0.1,0.3-0.3,0.3-0.5c0-0.3-0.1-0.5-0.3-0.5c-0.1,0-0.2-0.1-0.4-0.1
						c-0.2,0-0.3,0-0.4,0c0,0,0,0,0,0l0,0c0.1,0,0.1,0,0.1,0.2V16.3z"/>
					<path class="st0" d="M8.1,15.7c0-0.2,0-0.2-0.1-0.2l0,0c0,0,0,0,0,0c0.1,0,0.1,0,0.2,0c0.1,0,0.2,0,0.2,0c0,0,0,0,0,0l0,0
						c-0.1,0-0.1,0-0.1,0.2v0.4c0,0.2,0.1,0.5,0.3,0.5c0.2,0,0.3-0.2,0.3-0.5v-0.2c0-0.1,0-0.3,0-0.4c0,0,0,0-0.1,0l0,0
						c0,0,0,0,0-0.1c0.1,0,0.1,0,0.2,0c0.1,0,0.1,0,0.2,0c0,0,0,0,0,0.1l0,0c0,0-0.1,0-0.1,0c0,0.1,0,0.2,0,0.4v0.2
						c0,0.2,0,0.3-0.1,0.4c-0.1,0.1-0.2,0.1-0.3,0.1c-0.2,0-0.3,0-0.4-0.1c-0.1-0.1-0.1-0.2-0.1-0.4V15.7z"/>
					<path class="st0" d="M9.7,15.7c0-0.2,0-0.2,0.1-0.2l0,0c0,0,0,0,0-0.1c-0.1,0-0.2,0-0.2,0c-0.1,0-0.2,0-0.2,0c0,0,0,0,0,0.1
						l0,0c0.1,0,0.1,0,0.1,0.2v0.7c0,0.2,0,0.2-0.1,0.2l-0.1,0c0,0,0,0,0,0.1c0.1,0,0.2,0,0.2,0h0.2c0.1,0,0.2,0,0.3,0
						c0.1,0,0.1,0,0.2,0c0,0,0.1-0.2,0.1-0.3c0,0,0,0-0.1,0c-0.1,0.2-0.1,0.2-0.3,0.2c-0.1,0-0.2,0-0.2,0c0,0,0-0.1,0-0.2V15.7z"/>
					<g>
						<path class="st0" d="M10.1,16L10.1,16L10.1,16L10.1,16c0.1,0,0.1-0.1,0.2-0.1c0,0,0.1,0,0.1,0l0,0c0.1,0.1,0.2,0.1,0.2,0.1
							c0.1,0,0.2-0.1,0.2-0.2l0,0l-0.1,0l0,0c0,0.1-0.1,0.1-0.1,0.1c0,0,0,0-0.2-0.1c-0.1-0.1-0.2-0.1-0.2-0.1
							C10.2,15.8,10.1,15.8,10.1,16z"/>
					</g>
				</g>
				<path class="st0" d="M17.8,11.9v-1c0,0-1.2,0.5-3.4,0.2c-2-0.3-2.9,0.3-2.9,0.3s-0.8-0.6-2.9-0.3C6.6,11.5,5.3,11,5.3,11v1H4.8
					v7.2h5.9c0,0,0.3,0.4,0.9,0.4c0.6,0,0.9-0.4,0.9-0.4h5.9v-7.2H17.8z M11.3,18.4c0,0-0.7-0.5-2.7-0.2c-2,0.3-2.8-0.2-2.8-0.2
					v-6.3c0,0,0.9,0.3,2.9,0.1c2-0.3,2.6,0.2,2.6,0.2V18.4z M17.3,18c0,0-0.7,0.5-2.8,0.2c-2-0.3-2.7,0.2-2.7,0.2v-6.5
					c0,0,0.6-0.5,2.6-0.2c2,0.3,2.9-0.1,2.9-0.1V18z"/>
				<g>
					<path class="st0" d="M13.2,13.7C13.2,13.7,13.2,13.7,13.2,13.7c-0.1-0.1-0.1-0.2-0.4-0.2c-0.2,0-0.4,0.2-0.4,0.5
						c0,0.4,0.2,0.5,0.4,0.5c0.2,0,0.3-0.1,0.3-0.3c0,0,0,0,0,0c0,0.1-0.1,0.2-0.1,0.3c0,0,0,0-0.1,0c0,0-0.1,0-0.2,0
						c-0.2,0-0.3,0-0.4-0.1c-0.1-0.1-0.2-0.3-0.2-0.5c0-0.2,0.1-0.4,0.2-0.5c0.1-0.1,0.3-0.1,0.4-0.1c0.1,0,0.2,0,0.3,0c0,0,0,0,0,0
						C13.2,13.5,13.2,13.6,13.2,13.7z"/>
					<path class="st0" d="M13.6,13.6c0-0.2,0-0.2-0.1-0.2l0,0c0,0,0,0,0,0c0,0,0.1,0,0.1,0c0,0,0.1,0,0.1,0H14c0.1,0,0.2,0,0.2,0
						c0,0,0,0.2,0,0.2c0,0,0,0-0.1,0c0-0.1-0.1-0.1-0.1-0.2c0,0-0.1,0-0.1,0h-0.1c-0.1,0-0.1,0-0.1,0.1v0.3c0,0,0,0,0,0h0.1
						c0.2,0,0.2,0,0.2-0.1l0-0.1c0,0,0,0,0.1,0c0,0.1,0,0.1,0,0.2c0,0.1,0,0.1,0,0.2c0,0,0,0-0.1,0l0-0.1c0-0.1,0-0.1-0.2-0.1h-0.1
						c0,0,0,0,0,0v0.2c0,0.1,0,0.2,0,0.2c0,0,0,0,0.2,0c0.2,0,0.2-0.1,0.3-0.2c0,0,0,0,0.1,0c0,0.1,0,0.2-0.1,0.3c0,0-0.1,0-0.1,0
						c-0.1,0-0.1,0-0.2,0h-0.2c-0.1,0-0.2,0-0.3,0c0,0,0,0,0-0.1l0.1,0c0.1,0,0.1,0,0.1-0.2V13.6z"/>
					<path class="st0" d="M14.8,13.6c0-0.1,0-0.1,0-0.1c0,0,0,0,0.1,0c0.3,0,0.5,0.2,0.5,0.5c0,0.3-0.1,0.5-0.4,0.5
						c-0.2,0-0.1-0.1-0.1-0.3V13.6z M14.6,14.3c0,0.2,0,0.2-0.1,0.2l0,0c0,0,0,0,0,0.1c0.1,0,0.1,0,0.2,0c0,0,0.1,0,0.1,0
						c0,0,0.1,0,0.1,0c0.2,0,0.3,0,0.4-0.1c0.2-0.1,0.3-0.3,0.3-0.5c0-0.3-0.1-0.5-0.3-0.5c-0.1,0-0.2-0.1-0.4-0.1
						c-0.2,0-0.3,0-0.4,0c0,0,0,0,0,0.1l0,0c0.1,0,0.1,0,0.1,0.2V14.3z"/>
					<path class="st0" d="M16.3,13.4c0.3,0,0.4,0.3,0.4,0.6c0,0.4-0.1,0.5-0.3,0.5c-0.3,0-0.4-0.3-0.4-0.6
						C16,13.6,16.1,13.4,16.3,13.4z M16.3,13.3c-0.3,0-0.6,0.3-0.6,0.6c0,0.3,0.2,0.6,0.6,0.6c0.3,0,0.6-0.3,0.6-0.6
						C16.9,13.6,16.7,13.3,16.3,13.3z"/>
					<path class="st0" d="M12.7,16.5c0,0-0.1-0.2-0.1-0.3c0,0,0,0,0.1,0c0,0.1,0.1,0.3,0.3,0.3c0.1,0,0.2-0.1,0.2-0.2
						c0-0.1,0-0.2-0.2-0.3l-0.1,0c-0.1-0.1-0.2-0.2-0.2-0.3c0-0.2,0.1-0.3,0.4-0.3c0.1,0,0.2,0,0.2,0c0,0,0,0.2,0,0.2c0,0,0,0-0.1,0
						c0-0.1-0.1-0.2-0.2-0.2c-0.1,0-0.2,0.1-0.2,0.2c0,0.1,0.1,0.2,0.2,0.2l0.1,0.1c0.1,0.1,0.2,0.2,0.2,0.4c0,0.2-0.2,0.4-0.4,0.4
						C12.9,16.6,12.8,16.6,12.7,16.5z"/>
					<path class="st0" d="M13.8,15.7c0-0.2,0-0.2-0.1-0.2l-0.1,0c0,0,0,0,0,0c0.1,0,0.2,0,0.4,0c0.2,0,0.3,0,0.4,0.1
						c0.1,0.1,0.1,0.2,0.1,0.3c0,0.3-0.3,0.3-0.4,0.3c0,0,0,0,0,0c0,0,0,0,0,0c0.2,0,0.2-0.2,0.2-0.3c0-0.1-0.1-0.3-0.3-0.3
						c-0.1,0-0.1,0-0.1,0.1v0.8c0,0.2,0,0.2,0.1,0.2l0.1,0c0,0,0,0,0,0.1c-0.1,0-0.2,0-0.3,0c-0.1,0-0.2,0-0.2,0c0,0,0,0,0-0.1l0,0
						c0.1,0,0.1,0,0.1-0.2V15.7z"/>
					<path class="st0" d="M14.8,16.3c0,0.2,0,0.2-0.1,0.2l-0.1,0c0,0,0,0,0,0.1c0.1,0,0.2,0,0.3,0h0.2c0.1,0,0.2,0,0.3,0
						c0.1,0,0.1,0,0.1,0c0,0,0.1-0.2,0.1-0.3c0,0,0,0-0.1,0c-0.1,0.1-0.1,0.2-0.3,0.2c-0.1,0-0.2,0-0.2,0c0,0,0-0.1,0-0.2v-0.2
						c0,0,0,0,0,0h0.1c0.2,0,0.2,0,0.2,0.1l0,0.1c0,0,0,0,0.1,0c0-0.1,0-0.1,0-0.2c0-0.1,0-0.1,0-0.2c0,0,0,0-0.1,0l0,0.1
						c0,0.1,0,0.1-0.2,0.1h-0.1c0,0,0,0,0,0v-0.3c0-0.1,0-0.1,0.1-0.1h0.1c0,0,0.1,0,0.1,0c0.1,0,0.1,0.1,0.1,0.2c0,0,0,0,0.1,0
						c0-0.1,0-0.2,0-0.3c0,0-0.1,0-0.2,0h-0.3c0,0-0.1,0-0.1,0c0,0-0.1,0-0.1,0c0,0,0,0,0,0.1l0,0c0.1,0,0.1,0,0.1,0.2V16.3z"/>
					<path class="st0" d="M15.8,16.5c0,0-0.1-0.2-0.1-0.3c0,0,0,0,0.1,0c0,0.1,0.1,0.3,0.3,0.3c0.1,0,0.2-0.1,0.2-0.2
						c0-0.1,0-0.2-0.2-0.3l-0.1,0c-0.1-0.1-0.2-0.2-0.2-0.3c0-0.2,0.1-0.3,0.4-0.3c0.1,0,0.2,0,0.2,0c0,0,0,0.2,0,0.2c0,0,0,0-0.1,0
						c0-0.1-0.1-0.2-0.2-0.2c-0.1,0-0.2,0.1-0.2,0.2c0,0.1,0.1,0.2,0.2,0.2l0.1,0.1c0.1,0.1,0.2,0.2,0.2,0.4c0,0.2-0.2,0.4-0.4,0.4
						C15.9,16.6,15.9,16.6,15.8,16.5z"/>
				</g>
			</g>
			<path class="st0" d="M11.6,0.4H0L0,11c0,10,6.4,15.4,11.6,18.3C16.8,26.4,23.2,21,23.2,11l0-10.5H11.6z M11.6,27.5
				c-0.6-0.3-1.1-0.7-1.7-1.1c0.5-0.2,0.9-0.5,1.7-0.5c0.8,0,1.3,0.3,1.7,0.5C12.7,26.8,12.2,27.1,11.6,27.5z M15.6,24.6
				c-0.3,0.3-0.4,0.3-0.7,0.4c-0.1,0-0.4,0-0.4,0c-1.2,0-1.4-0.7-2.9-0.7c-1.4,0-1.7,0.7-2.9,0.7c0,0-0.3,0-0.4,0
				c-0.3-0.1-0.4-0.1-0.7-0.4c-0.6-0.5-1.1-1-1.6-1.6c1.1,0,1.4,0.7,2.8,0.7c1.2,0,1.4-0.7,2.9-0.7c1.4,0,1.7,0.7,2.9,0.7
				c1.4,0,1.7-0.7,2.8-0.7C16.7,23.6,16.2,24.1,15.6,24.6z M21.6,11.1c0,4.3-1.3,7.6-3.2,10.3c0,0,0,0,0,0s-0.4-0.1-0.9-0.1
				c-1.2,0-1.6,0.7-3,0.7c-0.9,0-1.2-0.4-2-0.6v-1.7c0,0-0.2,0.3-0.9,0.3c-0.7,0-0.9-0.3-0.9-0.3v1.7c-0.7,0.2-1.1,0.6-2,0.6
				c-1.4,0-1.8-0.7-3-0.7c-0.6,0-0.9,0.1-0.9,0.1s0,0,0,0c-1.9-2.7-3.2-6-3.2-10.3l0-9.1h10h10L21.6,11.1z"/>
			<path class="st0" d="M12.5,9.1h4l1.3,0.8V6.7l-1.3,0.8h-4l0,0V4.4l0.8-1.4H9.9l0.8,1.4v3.1h-4L5.3,6.7v3.2l1.3-0.8h4v1.6
				c0,0,0.5,0.1,0.9,0.3c0.4-0.2,0.9-0.3,0.9-0.3L12.5,9.1L12.5,9.1z"/>
		</g>
	</g>
	<g>
		<path class="st0" d="M153,6v13.3h-1.1v-6.3h-4.5v6.3h-1.1V6h1.1v5.9h4.5V6H153z"/>
		<path class="st0" d="M160.3,6v1h-4.2v4.9h3.6v1h-3.6v5.3h4.5v1H155V6H160.3z"/>
		<path class="st0" d="M167.4,15.8c0-1.9-0.5-2.3-2.3-2.8c-1.6-0.5-2.9-1-2.9-3.6c0-2.4,0.8-3.6,3.2-3.6c2.7,0,2.9,1.6,2.9,3.6
			l-1.1,0.2c0-1.6-0.1-2.7-1.9-2.7c-1.4,0-2.1,0.7-2.1,2.6c0,1.6,0.5,2.1,2.1,2.5c1.8,0.5,3.1,1.1,3.1,3.9c0,2.6-1.2,3.7-3.6,3.7
			c-2.6,0-3.1-1.4-3.1-3.7l1.1-0.2c0,1.8,0.3,2.8,2,2.8C166.7,18.4,167.4,17.7,167.4,15.8z"/>
		<path class="st0" d="M170.2,19.2V6h3.9c1.8,0,2.7,0.7,2.7,3.4c0,2-0.7,2.7-1.4,3c0.8,0.2,1.7,0.9,1.7,3.4c0,2.7-1,3.5-2.8,3.5
			H170.2z M171.3,7v4.9h2.6c1,0,1.6-0.8,1.6-2.5c0-2-0.5-2.4-1.7-2.4H171.3z M173.9,18.2c1.2,0,1.9-0.4,1.9-2.5
			c0-2.3-0.9-2.8-1.9-2.8h-2.7v5.3H173.9z"/>
		<path class="st0" d="M178.7,15.9V6h1.1v9.9c0,1.7,0.2,2.5,2.2,2.5s2.2-0.8,2.2-2.5V6h1.1v9.9c0,2.3-0.6,3.5-3.3,3.5
			C179.3,19.4,178.7,18.2,178.7,15.9z"/>
		<path class="st0" d="M188.5,19.2h-1.1V6h2.9c1.8,0,3,0.6,3,3.8c0,2.5-0.7,3.4-1.9,3.7l2.1,5.8h-1.3l-2-5.7h-1.8V19.2z M190.1,12.5
			c1.3,0,2-0.5,2-2.8c0-2.3-0.7-2.8-2-2.8h-1.7v5.6H190.1z"/>
		<path class="st0" d="M198.5,5.8c2.6,0,3.2,1.2,3.2,3.6l-1.1,0.2c0-2-0.4-2.8-2.1-2.8c-2.1,0-2.7,1.7-2.7,5.8
			c0,4.1,0.3,5.8,2.5,5.8c1,0,1.7-0.2,2.2-0.4v-4.6h-1.8v-1h2.8v6.2c-1,0.5-1.9,0.7-3.3,0.7c-2.9,0-3.7-1.9-3.7-6.8
			C194.7,7.7,195.6,5.8,198.5,5.8z"/>
		<path class="st0" d="M210.3,6v13.3h-1.1v-6.3h-4.5v6.3h-1.1V6h1.1v5.9h4.5V6H210.3z"/>
		<path class="st0" d="M216.5,18.2h4v1h-5.1V6h1.1V18.2z"/>
		<path class="st0" d="M223,19.2h-1.1V6h1.1V19.2z"/>
		<path class="st0" d="M225,19.2V6h3.9c1.8,0,2.7,0.7,2.7,3.4c0,2-0.7,2.7-1.4,3c0.8,0.2,1.7,0.9,1.7,3.4c0,2.7-1,3.5-2.8,3.5H225z
			 M226.2,7v4.9h2.6c1,0,1.6-0.8,1.6-2.5c0-2-0.5-2.4-1.7-2.4H226.2z M228.8,18.2c1.2,0,1.9-0.4,1.9-2.5c0-2.3-0.9-2.8-1.9-2.8h-2.7
			v5.3H228.8z"/>
		<path class="st0" d="M234.8,19.2h-1.1V6h2.9c1.8,0,3,0.6,3,3.8c0,2.5-0.7,3.4-1.9,3.7l2.1,5.8h-1.3l-2-5.7h-1.8V19.2z M236.4,12.5
			c1.3,0,2-0.5,2-2.8c0-2.3-0.7-2.8-2-2.8h-1.7v5.6H236.4z"/>
		<path class="st0" d="M245.3,5.8l2.8,13.4h-1.1l-0.6-2.9h-3.8l-0.6,2.9h-1.1l2.8-13.4H245.3z M242.7,15.4h3.5l-1.7-8.6L242.7,15.4z
			"/>
		<path class="st0" d="M250.7,19.2h-1.1V6h2.9c1.8,0,3,0.6,3,3.8c0,2.5-0.7,3.4-1.9,3.7l2.1,5.8h-1.3l-2-5.7h-1.8V19.2z M252.3,12.5
			c1.3,0,2-0.5,2-2.8c0-2.3-0.7-2.8-2-2.8h-1.7v5.6H252.3z"/>
		<path class="st0" d="M258.5,19.2h-1.1V6h1.1V19.2z"/>
		<path class="st0" d="M265.9,6v1h-4.2v4.9h3.6v1h-3.6v5.3h4.5v1h-5.6V6H265.9z"/>
		<path class="st0" d="M273,15.8c0-1.9-0.5-2.3-2.3-2.8c-1.6-0.5-2.9-1-2.9-3.6c0-2.4,0.8-3.6,3.2-3.6c2.7,0,2.9,1.6,2.9,3.6
			l-1.1,0.2c0-1.6-0.1-2.7-1.9-2.7c-1.4,0-2.1,0.7-2.1,2.6c0,1.6,0.5,2.1,2.1,2.5c1.8,0.5,3.1,1.1,3.1,3.9c0,2.6-1.2,3.7-3.6,3.7
			c-2.6,0-3.1-1.4-3.1-3.7l1.1-0.2c0,1.8,0.3,2.8,2,2.8C272.3,18.4,273,17.7,273,15.8z"/>
	</g>
	<rect x="134.6" class="st0" width="0.6" height="29.3"/>
</g>
</svg>
