<?xml version="1.0" encoding="UTF-8"?>
<svg width="313px" height="92px" viewBox="0 0 313 92" version="1.1" xmlns="http://www.w3.org/2000/svg" xmlns:xlink="http://www.w3.org/1999/xlink">
    <title>Marble.Logo.Mono.Small</title>
    <g id="Page-1" stroke="none" stroke-width="1" fill="none" fill-rule="evenodd">
        <g id="Marble-Home-Page-Branding" transform="translate(-82.000000, -31.000000)">
            <g id="Marble.Logo.Mono.Small" transform="translate(83.000000, 32.000000)">
                <g id="Group" transform="translate(99.183673, 9.183673)" fill="#FFFFFF" fill-rule="nonzero">
                    <path d="M36.4605544,23.176053 C34.3176972,21.0253667 31.663113,19.9339736 28.5927505,19.9339736 C25.5223881,19.9339736 22.8678038,21.0253667 20.7249467,23.176053 C20.4051173,23.497051 20.1172708,23.818049 19.8294243,24.1711467 C19.5735608,23.818049 19.2857143,23.497051 18.9658849,23.176053 C16.8230277,21.0253667 14.1684435,19.9339736 11.098081,19.9339736 C8.69936034,19.9339736 6.5565032,20.6080693 4.70149254,21.9883606 L0,21.9883606 L0,58.5179289 L4.79744136,58.5179289 L4.79744136,30.5269064 C4.95735608,28.9861162 5.56503198,27.7021243 6.65245203,26.642831 C7.89978678,25.390939 9.33901919,24.7810429 11.098081,24.7810429 C12.8571429,24.7810429 14.3283582,25.390939 15.575693,26.642831 C16.6311301,27.7021243 17.238806,28.9219166 17.4307036,30.3664074 L17.4307036,58.5179289 L22.196162,58.5179289 L22.196162,31.2652017 C22.196162,29.3713137 22.803838,27.8626233 24.0511727,26.6107312 C25.2985075,25.3588392 26.7697228,24.7489431 28.5607676,24.7489431 C30.3198294,24.7489431 31.7910448,25.3588392 33.0383795,26.6107312 C34.0938166,27.6379247 34.6695096,28.8256172 34.8294243,30.270108 L34.8294243,58.5179289 L39.6268657,58.5179289 L39.6268657,30.7195052 C39.5948827,27.8305235 38.5074627,25.2946396 36.4605544,23.176053 L36.4605544,23.176053 Z M81.3326226,25.4872384 L80.6929638,24.7810429 C76.7590618,20.8327679 71.9296375,18.8425805 66.3326226,18.8425805 C60.7995736,18.8425805 55.9701493,20.8327679 52.0362473,24.7810429 C48.1023454,28.7293178 46.08742,33.5763871 46.08742,39.1938515 C46.08742,44.7471162 48.1023454,49.5941855 52.0362473,53.5424605 C55.9701493,57.4907354 60.7995736,59.5130226 66.3326226,59.5130226 C71.9296375,59.5130226 76.7590618,57.4907354 80.6929638,53.5103607 C80.9168443,53.2856621 81.108742,53.0609635 81.3326226,52.8362649 L81.3326226,58.5179289 L86.130064,58.5179289 L86.130064,21.9883606 L81.3326226,21.9883606 L81.3326226,25.4872384 Z M66.3326226,54.5054544 C62.1428571,54.5054544 58.4968017,52.9967639 55.5223881,50.0435827 C52.5479744,47.0904014 51.0447761,43.4310246 51.0447761,39.2259513 C51.0447761,35.0208779 52.5479744,31.3615011 55.5223881,28.3762201 C58.4968017,25.390939 62.1108742,23.8501488 66.3326226,23.8501488 C70.5223881,23.8501488 74.1684435,25.3588392 77.1428571,28.3762201 C79.3496802,30.591106 80.7569296,33.1911895 81.3326226,36.1443708 L81.3326226,42.3075317 C80.7569296,45.2286132 79.3496802,47.7965969 77.1428571,50.0114829 C74.1684435,52.9646641 70.5223881,54.5054544 66.3326226,54.5054544 Z M105.319829,21.763662 C102.217484,23.0476538 99.8187633,24.8452424 98.2196162,27.1564278 L98.2196162,21.9883606 L93.4221748,21.9883606 L93.4221748,58.5179289 L98.2196162,58.5179289 L98.2196162,37.685161 C98.2196162,35.2776763 99.2750533,32.8701916 101.321962,30.4948066 C103.36887,28.1194217 105.479744,26.7391304 107.526652,26.4181325 L108.678038,26.2255337 L105.991471,21.5068636 L105.319829,21.763662 L105.319829,21.763662 Z M132.025586,18.8425805 C126.460554,18.8425805 121.63113,20.8327679 117.697228,24.7810429 C117.473348,25.0057414 117.249467,25.23044 117.057569,25.4551386 L117.057569,0 L112.260128,0 L112.260128,58.5179289 L117.057569,58.5179289 L117.057569,52.8683647 C117.249467,53.0930633 117.473348,53.3177619 117.697228,53.5424605 C121.63113,57.5228352 126.460554,59.5451224 132.025586,59.5451224 C137.590618,59.5451224 142.420043,57.5228352 146.353945,53.5745603 C150.287846,49.6262853 152.270789,44.779216 152.270789,39.2259513 C152.270789,33.6084869 150.287846,28.7614176 146.353945,24.8131426 C142.38806,20.8327679 137.590618,18.8425805 132.025586,18.8425805 Z M132.025586,54.5054544 C127.835821,54.5054544 124.189765,52.9967639 121.215352,49.9793831 C119.040512,47.8286967 117.633262,45.2928128 117.089552,42.4680307 L117.089552,35.951772 C117.665245,33.0948901 119.040512,30.5269064 121.215352,28.3441203 C124.189765,25.3588392 127.835821,23.818049 132.025586,23.818049 C136.215352,23.818049 139.861407,25.3267394 142.835821,28.3441203 C145.810235,31.3294013 147.313433,34.9887781 147.313433,39.1938515 C147.313433,43.3989248 145.810235,47.0583016 142.835821,50.0114829 C139.861407,52.9967639 136.215352,54.5054544 132.025586,54.5054544 Z M158.795309,0 L163.592751,0 L163.592751,58.5179289 L158.795309,58.5179289 L158.795309,0 Z M209.712154,38.1987578 L209.712154,37.3962629 C209.712154,32.5491936 207.953092,28.3120205 204.466951,24.8131426 C200.533049,20.8648677 195.703625,18.8746803 190.10661,18.8746803 C184.573561,18.8746803 179.744136,20.8648677 175.810235,24.8131426 C171.876333,28.7614176 169.861407,33.6084869 169.861407,39.2259513 C169.861407,44.779216 171.876333,49.6262853 175.810235,53.5745603 C179.744136,57.5228352 184.573561,59.5451224 190.10661,59.5451224 C195.703625,59.5451224 200.533049,57.5228352 204.466951,53.5745603 C205.810235,52.2584686 206.673774,51.2633749 207.121535,50.5250796 L207.633262,49.6904849 L202.771855,47.9570959 L202.420043,48.406493 C201.972281,48.9842894 201.460554,49.5299859 200.948827,50.0435827 C197.974414,53.0288637 194.328358,54.5696539 190.138593,54.5696539 C185.948827,54.5696539 182.302772,53.0609635 179.328358,50.1077822 C176.353945,47.154601 174.850746,43.4952242 174.850746,39.2901508 C174.850746,38.9370531 174.850746,38.6160551 174.882729,38.2950572 L209.712154,38.2950572 L209.712154,38.1987578 Z M190.10661,23.818049 C194.296375,23.818049 197.942431,25.3267394 200.916844,28.3441203 C202.324094,29.7565113 203.443497,31.4578005 204.179104,33.3195887 L175.906183,33.3195887 C176.673774,31.5220001 177.793177,29.8528107 179.296375,28.3441203 C182.270789,25.3588392 185.916844,23.818049 190.10661,23.818049 L190.10661,23.818049 Z M2.01492537,66.5107782 L3.29424307,71.4541469 L4.57356077,66.5107782 L6.36460554,66.5107782 L6.36460554,73.3480349 L4.98933902,73.3480349 L4.98933902,71.4862467 L5.11727079,68.6293648 L3.74200426,73.3480349 L2.81449893,73.3480349 L1.43923241,68.6293648 L1.56716418,71.4862467 L1.56716418,73.3480349 L0.191897655,73.3480349 L0.191897655,66.5107782 L2.01492537,66.5107782 L2.01492537,66.5107782 Z" id="Shape"></path>
                    <path d="M9.91471215,72.8986377 C9.62686567,73.2838353 9.2750533,73.4443343 8.79530917,73.4443343 C8.31556503,73.4443343 7.96375267,73.2838353 7.73987207,72.9628373 C7.48400853,72.6418393 7.3880597,72.1603424 7.3880597,71.5504463 L7.3880597,68.2441672 L8.69936034,68.2441672 L8.69936034,71.5825461 C8.69936034,72.064043 8.85927505,72.3208414 9.17910448,72.3208414 C9.46695096,72.3208414 9.69083156,72.1924422 9.85074627,71.9356438 L9.85074627,68.2441672 L11.1940299,68.2441672 L11.1940299,73.3159351 L9.9466951,73.3159351 L9.91471215,72.8986377 L9.91471215,72.8986377 Z" id="B"></path>
                    <path d="M14.3923241,71.9998434 C14.3923241,71.8714442 14.3283582,71.7751448 14.2324094,71.6788455 C14.1364606,71.5825461 13.880597,71.4541469 13.5287846,71.2936479 C12.9850746,71.0689493 12.6012793,70.8442507 12.4093817,70.5874524 C12.217484,70.330654 12.0895522,70.0417558 12.0895522,69.6886581 C12.0895522,69.2392609 12.249467,68.8861632 12.5692964,68.597265 C12.8891258,68.3083668 13.3049041,68.1478678 13.8486141,68.1478678 C14.3923241,68.1478678 14.8400853,68.276267 15.1918977,68.5651652 C15.54371,68.8540634 15.7036247,69.2392609 15.7036247,69.7207579 L14.3923241,69.7207579 C14.3923241,69.3034605 14.2324094,69.1108617 13.880597,69.1108617 C13.7526652,69.1108617 13.6247335,69.1429615 13.5287846,69.2392609 C13.4328358,69.3355603 13.4008529,69.4639595 13.4008529,69.5923587 C13.4008529,69.7207579 13.4648188,69.8170573 13.5607676,69.8812569 C13.6567164,69.9454564 13.880597,70.1059554 14.2643923,70.2343546 C14.8081023,70.4269534 15.1918977,70.651652 15.4157783,70.9084503 C15.6396588,71.1652487 15.7356077,71.4862467 15.7356077,71.8714442 C15.7356077,72.3208414 15.575693,72.7060389 15.2238806,72.9628373 C14.8720682,73.2196357 14.424307,73.3801347 13.880597,73.3801347 C13.4968017,73.3801347 13.1769723,73.3159351 12.8891258,73.1554361 C12.6012793,72.9949371 12.3773987,72.8023383 12.217484,72.54554 C12.0575693,72.2887416 11.9616205,71.9998434 11.9616205,71.7109452 L13.2089552,71.7109452 C13.2089552,71.9356438 13.2729211,72.1282426 13.3688699,72.224542 C13.4648188,72.3208414 13.6247335,72.385041 13.880597,72.385041 C14.2324094,72.4813404 14.3923241,72.3208414 14.3923241,71.9998434 L14.3923241,71.9998434 Z M18.5501066,73.4443343 C17.8784648,73.4443343 17.3347548,73.2517355 16.9509595,72.8344381 C16.5671642,72.4171408 16.3752665,71.8393444 16.3752665,71.1010491 L16.3752665,70.6837518 C16.3752665,69.8812569 16.5351812,69.2713607 16.8869936,68.8219636 C17.238806,68.3725664 17.750533,68.1799676 18.3901919,68.1799676 C19.0298507,68.1799676 19.5095949,68.3725664 19.8294243,68.7898638 C20.1492537,69.2071611 20.3091684,69.8170573 20.3091684,70.6195522 L20.3091684,71.2615481 L17.6865672,71.2615481 C17.7185501,71.6467457 17.782516,71.9356438 17.9424307,72.0961428 C18.1023454,72.2566418 18.326226,72.3529412 18.6140725,72.3529412 C19.0618337,72.3529412 19.4136461,72.1924422 19.7334755,71.8714442 L20.2452026,72.6739391 C20.0533049,72.9307375 19.8294243,73.1233363 19.5415778,73.2196357 C19.2537313,73.3801347 18.9339019,73.4443343 18.5501066,73.4443343 L18.5501066,73.4443343 Z M17.7185501,70.330654 L19.0298507,70.330654 L19.0298507,70.2022548 C19.0298507,69.8812569 18.9658849,69.6565583 18.869936,69.4960593 C18.7739872,69.3355603 18.6140725,69.2713607 18.3901919,69.2713607 C18.1663113,69.2713607 18.0063966,69.3676601 17.8784648,69.5281591 C17.750533,69.6886581 17.750533,69.9454564 17.7185501,70.330654 Z" id="Shape"></path>
                    <path d="M23.6034115,72.8986377 C23.315565,73.2838353 22.9637527,73.4443343 22.4840085,73.4443343 C22.0042644,73.4443343 21.652452,73.2838353 21.4285714,72.9628373 C21.1727079,72.6418393 21.0767591,72.1603424 21.0767591,71.5504463 L21.0767591,68.2441672 L22.3880597,68.2441672 L22.3880597,71.5825461 C22.3880597,72.064043 22.5479744,72.3208414 22.8678038,72.3208414 C23.1556503,72.3208414 23.3795309,72.1924422 23.5394456,71.9356438 L23.5394456,68.2441672 L24.8827292,68.2441672 L24.8827292,73.3159351 L23.6353945,73.3159351 L23.6034115,72.8986377 L23.6034115,72.8986377 Z" id="B_1_"></path>
                    <path d="M27.0895522,68.276267 L27.1215352,68.757764 C27.4093817,68.3725664 27.8251599,68.1799676 28.3049041,68.1799676 C28.8166311,68.1799676 29.1684435,68.4046662 29.3923241,68.8540634 C29.6801706,68.4046662 30.0959488,68.1799676 30.6396588,68.1799676 C31.5351812,68.1799676 31.9829424,68.7898638 32.0149254,70.0417558 L32.0149254,73.3801347 L30.7036247,73.3801347 L30.7036247,70.1380552 C30.7036247,69.8491571 30.6716418,69.6244585 30.575693,69.4960593 C30.4797441,69.3676601 30.3518124,69.3034605 30.1599147,69.3034605 C29.9040512,69.3034605 29.7441365,69.4639595 29.6162047,69.7528577 L29.6162047,73.3801347 L28.3049041,73.3801347 L28.3049041,70.1380552 C28.3049041,69.8491571 28.2729211,69.6244585 28.1769723,69.4960593 C28.0810235,69.3676601 27.9530917,69.3034605 27.761194,69.3034605 C27.5373134,69.3034605 27.3454158,69.4318597 27.217484,69.6886581 L27.217484,73.3801347 L25.9061834,73.3801347 L25.9061834,68.3083668 L27.0895522,68.276267 L27.0895522,68.276267 Z M35.1812367,71.9998434 C35.1812367,71.8714442 35.1172708,71.7751448 35.021322,71.6788455 C34.9253731,71.5825461 34.6695096,71.4541469 34.3176972,71.2936479 C33.7739872,71.0689493 33.3901919,70.8442507 33.1982942,70.5874524 C33.0063966,70.330654 32.8784648,70.0417558 32.8784648,69.6886581 C32.8784648,69.2392609 33.0383795,68.8861632 33.358209,68.597265 C33.6780384,68.3083668 34.0938166,68.1478678 34.6375267,68.1478678 C35.1812367,68.1478678 35.6289979,68.276267 35.9808102,68.5651652 C36.3326226,68.8540634 36.4925373,69.2392609 36.4925373,69.7207579 L35.1812367,69.7207579 C35.1812367,69.3034605 35.021322,69.1108617 34.6695096,69.1108617 C34.5415778,69.1108617 34.4136461,69.1429615 34.3176972,69.2392609 C34.2217484,69.3355603 34.1897655,69.4639595 34.1897655,69.5923587 C34.1897655,69.7207579 34.2537313,69.8170573 34.3496802,69.8812569 C34.445629,69.9454564 34.6695096,70.1059554 35.0533049,70.2343546 C35.5970149,70.4269534 35.9808102,70.651652 36.2046908,70.9084503 C36.4285714,71.1652487 36.5245203,71.4862467 36.5245203,71.8714442 C36.5245203,72.3208414 36.3646055,72.7060389 36.0127932,72.9628373 C35.6609808,73.2196357 35.2132196,73.3801347 34.6695096,73.3801347 C34.2857143,73.3801347 33.9658849,73.3159351 33.6780384,73.1554361 C33.3901919,72.9949371 33.1663113,72.8023383 33.0063966,72.54554 C32.8464819,72.2887416 32.750533,71.9998434 32.750533,71.7109452 L33.9978678,71.7109452 C33.9978678,71.9356438 34.0618337,72.1282426 34.1577825,72.224542 C34.2537313,72.3208414 34.4136461,72.385041 34.6695096,72.385041 C35.021322,72.4813404 35.1812367,72.3208414 35.1812367,71.9998434 L35.1812367,71.9998434 Z M37.7078891,75.0814239 L37.0042644,74.6962263 L37.196162,74.3752284 C37.3880597,73.9900308 37.4840085,73.636933 37.5159915,73.2517355 L37.5159915,72.1924422 L38.6673774,72.1924422 L38.6673774,73.1233363 C38.6673774,73.4443343 38.5714286,73.797432 38.4115139,74.1505298 C38.2515991,74.5036275 37.9637527,74.8246255 37.7078891,75.0814239 Z M45.1918977,71.9356438 L43.3049041,71.9356438 L42.9530917,73.3480349 L41.4818763,73.3480349 L43.6247335,66.5107782 L44.8720682,66.5107782 L47.0149254,73.3480349 L45.54371,73.3480349 L45.1918977,71.9356438 Z M43.6247335,70.8121509 L44.9040512,70.8121509 L44.2643923,68.3725664 L43.6247335,70.8121509 Z" id="Shape"></path>
                    <path d="M50.0852878,69.5602589 L49.6375267,69.5281591 C49.2857143,69.5281591 49.0298507,69.6886581 48.901919,70.009656 L48.901919,73.3801347 L47.5586354,73.3801347 L47.5586354,68.3083668 L48.8059701,68.3083668 L48.8379531,68.8540634 C49.0618337,68.436766 49.3496802,68.2120674 49.7014925,68.2120674 C49.8614072,68.2120674 49.9573561,68.2441672 50.0533049,68.276267 L50.0852878,69.5602589 L50.0852878,69.5602589 Z" id="C"></path>
                    <path d="M52.5159915,72.3529412 C52.8997868,72.3529412 53.0916844,72.0961428 53.0916844,71.5825461 L54.3390192,71.5825461 C54.3390192,72.1282426 54.1471215,72.5776398 53.8272921,72.9307375 C53.5074627,73.2838353 53.0597015,73.4443343 52.5479744,73.4443343 C51.9083156,73.4443343 51.3965885,73.2517355 51.0447761,72.8344381 C50.6929638,72.4171408 50.533049,71.8393444 50.533049,71.0368495 L50.533049,70.6195522 C50.533049,69.8170573 50.6929638,69.2071611 51.0447761,68.7898638 C51.3965885,68.3725664 51.8763326,68.1478678 52.5479744,68.1478678 C53.0916844,68.1478678 53.5394456,68.3083668 53.8592751,68.6614646 C54.1791045,69.0145623 54.3390192,69.4960593 54.3390192,70.1380552 L53.0916844,70.1380552 C53.0916844,69.9133566 53.0597015,69.6886581 52.9637527,69.4639595 C52.8997868,69.3034605 52.7078891,69.2392609 52.5159915,69.2392609 C52.2921109,69.2392609 52.1321962,69.3355603 52.0042644,69.4960593 C51.9083156,69.6565583 51.8443497,69.9775562 51.8443497,70.4590532 L51.8443497,70.9726499 C51.8443497,71.3899473 51.8763326,71.6788455 51.9083156,71.8393444 C51.9402985,71.9998434 52.0042644,72.1282426 52.1002132,72.1924422 C52.228145,72.3208414 52.3560768,72.3529412 52.5159915,72.3529412 L52.5159915,72.3529412 Z M56.3859275,68.7256642 C56.673774,68.3725664 57.0255864,68.1799676 57.4413646,68.1799676 C57.8891258,68.1799676 58.2409382,68.3404666 58.4968017,68.6614646 C58.7526652,68.9824626 58.8486141,69.4639595 58.8486141,70.1059554 L58.8486141,73.3480349 L57.5053305,73.3480349 L57.5053305,70.1380552 C57.5053305,69.8491571 57.4733475,69.6244585 57.3773987,69.4960593 C57.2814499,69.3676601 57.1215352,69.3034605 56.9296375,69.3034605 C56.673774,69.3034605 56.5138593,69.3997599 56.3539446,69.6244585 L56.3539446,73.3480349 L55.0426439,73.3480349 L55.0426439,66.1255807 L56.3539446,66.1255807 L56.3539446,68.7256642 L56.3859275,68.7256642 L56.3859275,68.7256642 Z M59.8400853,66.9601754 C59.8400853,66.7675766 59.9040512,66.5749778 60.0319829,66.4465786 C60.1599147,66.3181794 60.3518124,66.2539799 60.54371,66.2539799 C60.7356077,66.2539799 60.9275053,66.3181794 61.0554371,66.4465786 C61.1833689,66.5749778 61.2473348,66.7354768 61.2473348,66.9601754 C61.2473348,67.1527742 61.1833689,67.3453729 61.0554371,67.4737721 C60.9275053,67.6021713 60.7356077,67.6663709 60.54371,67.6663709 C60.3518124,67.6663709 60.1599147,67.6021713 60.0319829,67.4737721 C59.9040512,67.3453729 59.8400853,67.1527742 59.8400853,66.9601754 Z M61.2153518,73.3480349 L59.8720682,73.3480349 L59.8720682,68.276267 L61.2153518,68.276267 L61.2153518,73.3480349 Z M63.901919,71.4862467 L64.5415778,68.276267 L65.9168443,68.276267 L64.5095949,73.3480349 L63.2302772,73.3480349 L61.8230277,68.276267 L63.1982942,68.276267 L63.901919,71.4862467 L63.901919,71.4862467 Z" id="Shape"></path>
                    <path d="M68.5394456,73.4443343 C67.8678038,73.4443343 67.3240938,73.2517355 66.9402985,72.8344381 C66.5565032,72.4171408 66.3646055,71.8393444 66.3646055,71.1010491 L66.3646055,70.6837518 C66.3646055,69.8812569 66.5245203,69.2713607 66.8763326,68.8219636 C67.228145,68.3725664 67.7398721,68.1799676 68.3795309,68.1799676 C69.0191898,68.1799676 69.4989339,68.3725664 69.8187633,68.7898638 C70.1385928,69.2071611 70.2985075,69.8170573 70.2985075,70.6195522 L70.2985075,71.2615481 L67.6759062,71.2615481 C67.7078891,71.6467457 67.771855,71.9356438 67.9317697,72.0961428 C68.0916844,72.2566418 68.315565,72.3529412 68.6034115,72.3529412 C69.0511727,72.3529412 69.4029851,72.1924422 69.7228145,71.8714442 L70.2345416,72.6739391 C70.0426439,72.9307375 69.8187633,73.1233363 69.5309168,73.2196357 C69.2430704,73.3801347 68.891258,73.4443343 68.5394456,73.4443343 L68.5394456,73.4443343 Z M67.7078891,70.330654 L69.0191898,70.330654 L69.0191898,70.2022548 C69.0191898,69.8812569 68.9552239,69.6565583 68.8592751,69.4960593 C68.7633262,69.3355603 68.6034115,69.2713607 68.3795309,69.2713607 C68.1556503,69.2713607 67.9957356,69.3676601 67.8678038,69.5281591 C67.7398721,69.6886581 67.7398721,69.9454564 67.7078891,70.330654 Z" id="D"></path>
                    <path d="M73.336887,71.9998434 C73.336887,71.8714442 73.2729211,71.7751448 73.1769723,71.6788455 C73.0810235,71.5825461 72.8251599,71.4541469 72.4733475,71.2936479 C71.9296375,71.0689493 71.5458422,70.8442507 71.3539446,70.5874524 C71.1620469,70.330654 71.0341151,70.0417558 71.0341151,69.6886581 C71.0341151,69.2392609 71.1940299,68.8861632 71.5138593,68.597265 C71.8336887,68.3083668 72.249467,68.1478678 72.793177,68.1478678 C73.336887,68.1478678 73.7846482,68.276267 74.1364606,68.5651652 C74.4882729,68.8540634 74.6481876,69.2392609 74.6481876,69.7207579 L73.336887,69.7207579 C73.336887,69.3034605 73.1769723,69.1108617 72.8251599,69.1108617 C72.6972281,69.1108617 72.5692964,69.1429615 72.4733475,69.2392609 C72.3773987,69.3355603 72.3454158,69.4639595 72.3454158,69.5923587 C72.3454158,69.7207579 72.4093817,69.8170573 72.5053305,69.8812569 C72.6012793,69.9454564 72.8251599,70.1059554 73.2089552,70.2343546 C73.7526652,70.4269534 74.1364606,70.651652 74.3603412,70.9084503 C74.5842217,71.1652487 74.6801706,71.4862467 74.6801706,71.8714442 C74.6801706,72.3208414 74.5202559,72.7060389 74.1684435,72.9628373 C73.8166311,73.2196357 73.3688699,73.3801347 72.8251599,73.3801347 C72.4413646,73.3801347 72.1215352,73.3159351 71.8336887,73.1554361 C71.5458422,72.9949371 71.3219616,72.8023383 71.1620469,72.54554 C71.0021322,72.2887416 70.9061834,71.9998434 70.9061834,71.7109452 L72.1535181,71.7109452 C72.1535181,71.9356438 72.217484,72.1282426 72.3134328,72.224542 C72.4093817,72.3208414 72.5692964,72.385041 72.8251599,72.385041 C73.1449893,72.4813404 73.336887,72.3208414 73.336887,71.9998434 L73.336887,71.9998434 Z" id="E"></path>
                    <path d="M75.8315565,75.0814239 L75.1279318,74.6962263 L75.3198294,74.3752284 C75.5117271,73.9900308 75.6076759,73.636933 75.6396588,73.2517355 L75.6396588,72.1924422 L76.7910448,72.1924422 L76.7910448,73.1233363 C76.7910448,73.4443343 76.6950959,73.797432 76.5351812,74.1505298 C76.3752665,74.5036275 76.119403,74.8246255 75.8315565,75.0814239 L75.8315565,75.0814239 Z M82.1321962,70.8442507 L81.4605544,70.8442507 L81.4605544,73.3480349 L80.0852878,73.3480349 L80.0852878,66.5107782 L82.2921109,66.5107782 C82.9957356,66.5107782 83.5074627,66.703377 83.891258,67.0564748 C84.2750533,67.4095725 84.466951,67.9231693 84.466951,68.597265 C84.466951,69.4960593 84.1471215,70.1380552 83.4754797,70.491153 L84.6588486,73.2838353 L84.6588486,73.3480349 L83.1556503,73.3480349 L82.1321962,70.8442507 L82.1321962,70.8442507 Z M81.4605544,69.6886581 L82.228145,69.6886581 C82.5159915,69.6886581 82.7078891,69.5923587 82.8358209,69.3997599 C82.9637527,69.2071611 83.0277186,68.9824626 83.0277186,68.6614646 C83.0277186,67.9873689 82.771855,67.6342711 82.228145,67.6342711 L81.4285714,67.6342711 L81.4605544,69.6886581 Z M87.7292111,73.3480349 C87.6972281,73.2838353 87.6652452,73.1233363 87.6012793,72.9628373 C87.3773987,73.2838353 87.0575693,73.4443343 86.641791,73.4443343 C86.2260128,73.4443343 85.8742004,73.3159351 85.5863539,73.0270369 C85.2985075,72.7381387 85.1705757,72.385041 85.1705757,71.9356438 C85.1705757,71.3899473 85.3304904,71.0047497 85.6823028,70.6837518 C86.0341151,70.3627538 86.5138593,70.2343546 87.1535181,70.2343546 L87.5692964,70.2343546 L87.5692964,69.8170573 C87.5692964,69.5923587 87.5373134,69.4318597 87.4413646,69.3355603 C87.3454158,69.2392609 87.249467,69.2071611 87.0895522,69.2071611 C86.7697228,69.2071611 86.5778252,69.3997599 86.5778252,69.7849575 L85.2665245,69.7849575 C85.2665245,69.3034605 85.4264392,68.918263 85.7782516,68.6293648 C86.130064,68.3083668 86.5778252,68.1799676 87.1215352,68.1799676 C87.6652452,68.1799676 88.1130064,68.3404666 88.4008529,68.6293648 C88.6886994,68.918263 88.8486141,69.3355603 88.8486141,69.8812569 L88.8486141,72.2887416 C88.8486141,72.7381387 88.91258,73.0591367 89.0405117,73.3159351 L89.0405117,73.3801347 L87.7292111,73.3801347 L87.7292111,73.3480349 L87.7292111,73.3480349 Z M86.9616205,72.4171408 C87.1215352,72.4171408 87.217484,72.385041 87.3454158,72.3208414 C87.4733475,72.2566418 87.5373134,72.1924422 87.5692964,72.0961428 L87.5692964,71.0368495 L87.249467,71.0368495 C87.0255864,71.0368495 86.8336887,71.1010491 86.7057569,71.2615481 C86.5778252,71.4220471 86.5138593,71.5825461 86.5138593,71.8393444 C86.5138593,72.224542 86.641791,72.4171408 86.9616205,72.4171408 L86.9616205,72.4171408 Z" id="Shape"></path>
                    <path d="M92.3347548,69.5602589 L91.8869936,69.5281591 C91.5351812,69.5281591 91.2793177,69.6886581 91.1513859,70.009656 L91.1513859,73.3801347 L89.8081023,73.3801347 L89.8081023,68.3083668 L91.0554371,68.3083668 L91.08742,68.8540634 C91.3113006,68.436766 91.5991471,68.2120674 91.9509595,68.2120674 C92.1108742,68.2120674 92.206823,68.2441672 92.3027719,68.276267 L92.3347548,69.5602589 L92.3347548,69.5602589 Z" id="C_1_"></path>
                    <path d="M94.989339,73.4443343 C94.3176972,73.4443343 93.7739872,73.2517355 93.3901919,72.8344381 C93.0063966,72.4171408 92.8144989,71.8393444 92.8144989,71.1010491 L92.8144989,70.6837518 C92.8144989,69.8812569 92.9744136,69.2713607 93.326226,68.8219636 C93.6780384,68.3725664 94.1897655,68.1799676 94.8294243,68.1799676 C95.4690832,68.1799676 95.9488273,68.3725664 96.2686567,68.7898638 C96.5884861,69.2071611 96.7484009,69.8170573 96.7484009,70.6195522 L96.7484009,71.2615481 L94.1257996,71.2615481 C94.1577825,71.6467457 94.2217484,71.9356438 94.3816631,72.0961428 C94.5415778,72.2566418 94.7654584,72.3529412 95.0533049,72.3529412 C95.5010661,72.3529412 95.8528785,72.1924422 96.1727079,71.8714442 L96.684435,72.6739391 C96.4925373,72.9307375 96.2686567,73.1233363 95.9808102,73.2196357 C95.6609808,73.3801347 95.3411514,73.4443343 94.989339,73.4443343 L94.989339,73.4443343 Z M94.1577825,70.330654 L95.4690832,70.330654 L95.4690832,70.2022548 C95.4690832,69.8812569 95.4051173,69.6565583 95.3091684,69.4960593 C95.2132196,69.3355603 95.0533049,69.2713607 94.8294243,69.2713607 C94.6055437,69.2713607 94.445629,69.3676601 94.3176972,69.5281591 C94.1897655,69.6886581 94.1577825,69.9454564 94.1577825,70.330654 Z M99.7867804,73.3480349 L99.7867804,66.5107782 L101.897655,66.5107782 C102.601279,66.5107782 103.144989,66.6712772 103.528785,66.9922752 C103.91258,67.3132731 104.072495,67.7626703 104.072495,68.4046662 C104.072495,68.757764 104.008529,69.0466621 103.848614,69.3034605 C103.688699,69.5602589 103.496802,69.7528577 103.208955,69.8491571 C103.528785,69.9454564 103.752665,70.1059554 103.91258,70.3627538 C104.072495,70.6195522 104.168443,70.9405501 104.168443,71.3578475 C104.168443,72.0319432 103.976546,72.5134402 103.624733,72.8665379 C103.272921,73.2196357 102.729211,73.3801347 102.057569,73.3801347 L99.7867804,73.3801347 L99.7867804,73.3480349 L99.7867804,73.3480349 Z M101.162047,69.3676601 L101.865672,69.3676601 C102.409382,69.3676601 102.665245,69.0787619 102.665245,68.5330654 C102.665245,68.2120674 102.601279,67.9873689 102.473348,67.8589697 C102.345416,67.7305705 102.153518,67.6663709 101.865672,67.6663709 L101.130064,67.6663709 L101.162047,69.3676601 L101.162047,69.3676601 Z M101.162047,70.3627538 L101.162047,72.1924422 L102.057569,72.1924422 C102.313433,72.1924422 102.50533,72.1282426 102.633262,71.9677436 C102.761194,71.8072446 102.82516,71.5825461 102.82516,71.3257477 C102.82516,70.7158516 102.601279,70.3948536 102.153518,70.3948536 L101.162047,70.3948536 L101.162047,70.3627538 L101.162047,70.3627538 Z M104.968017,70.651652 C104.968017,69.8812569 105.159915,69.2713607 105.511727,68.8219636 C105.863539,68.3725664 106.375267,68.1478678 107.014925,68.1478678 C107.654584,68.1478678 108.166311,68.3725664 108.518124,68.8219636 C108.869936,69.2713607 109.061834,69.8812569 109.061834,70.651652 L109.061834,70.9726499 C109.061834,71.743045 108.869936,72.3529412 108.518124,72.8023383 C108.166311,73.2517355 107.654584,73.4443343 107.014925,73.4443343 C106.375267,73.4443343 105.863539,73.2196357 105.511727,72.8023383 C105.159915,72.3529412 104.968017,71.743045 104.968017,70.9726499 L104.968017,70.651652 Z M106.279318,70.9726499 C106.279318,71.8714442 106.535181,72.3529412 107.014925,72.3529412 C107.462687,72.3529412 107.686567,71.9677436 107.750533,71.1973485 L107.750533,70.6195522 C107.750533,70.1380552 107.686567,69.8170573 107.558635,69.5923587 C107.430704,69.3676601 107.238806,69.2392609 107.014925,69.2392609 C106.791045,69.2392609 106.599147,69.3676601 106.503198,69.5923587 C106.375267,69.8170573 106.311301,70.170155 106.311301,70.6195522 L106.311301,70.9726499 L106.279318,70.9726499 L106.279318,70.9726499 Z" id="Shape"></path>
                    <path d="M109.733475,70.651652 C109.733475,69.8812569 109.925373,69.2713607 110.277186,68.8219636 C110.628998,68.3725664 111.140725,68.1478678 111.780384,68.1478678 C112.420043,68.1478678 112.93177,68.3725664 113.283582,68.8219636 C113.635394,69.2713607 113.827292,69.8812569 113.827292,70.651652 L113.827292,70.9726499 C113.827292,71.743045 113.635394,72.3529412 113.283582,72.8023383 C112.93177,73.2517355 112.420043,73.4443343 111.780384,73.4443343 C111.140725,73.4443343 110.628998,73.2196357 110.277186,72.8023383 C109.925373,72.3529412 109.733475,71.743045 109.733475,70.9726499 L109.733475,70.651652 Z M111.076759,70.9726499 C111.076759,71.8714442 111.332623,72.3529412 111.812367,72.3529412 C112.260128,72.3529412 112.484009,71.9677436 112.547974,71.1973485 L112.547974,70.6195522 C112.547974,70.1380552 112.484009,69.8170573 112.356077,69.5923587 C112.228145,69.3676601 112.036247,69.2392609 111.812367,69.2392609 C111.588486,69.2392609 111.396588,69.3676601 111.30064,69.5923587 C111.172708,69.8170573 111.108742,70.170155 111.108742,70.6195522 L111.108742,70.9726499 L111.076759,70.9726499 L111.076759,70.9726499 Z" id="F"></path>
                    <polygon id="Path" points="116.353945 71.3899473 116.002132 71.7751448 116.002132 73.3480349 114.690832 73.3480349 114.690832 66.1255807 116.002132 66.1255807 116.002132 70.0417558 116.162047 69.7849575 117.089552 68.276267 118.656716 68.276267 117.185501 70.3627538 118.784648 73.3480349 117.28145 73.3480349"></polygon>
                    <path d="M121.503198,71.9998434 C121.503198,71.8714442 121.439232,71.7751448 121.343284,71.6788455 C121.247335,71.5825461 120.991471,71.4541469 120.639659,71.2936479 C120.095949,71.0689493 119.712154,70.8442507 119.520256,70.5874524 C119.328358,70.330654 119.200426,70.0417558 119.200426,69.6886581 C119.200426,69.2392609 119.360341,68.8861632 119.680171,68.597265 C120,68.3083668 120.415778,68.1478678 120.959488,68.1478678 C121.503198,68.1478678 121.950959,68.276267 122.302772,68.5651652 C122.654584,68.8540634 122.814499,69.2392609 122.814499,69.7207579 L121.503198,69.7207579 C121.503198,69.3034605 121.343284,69.1108617 120.991471,69.1108617 C120.863539,69.1108617 120.735608,69.1429615 120.639659,69.2392609 C120.54371,69.3355603 120.511727,69.4639595 120.511727,69.5923587 C120.511727,69.7207579 120.575693,69.8170573 120.671642,69.8812569 C120.767591,69.9454564 120.991471,70.1059554 121.375267,70.2343546 C121.918977,70.4269534 122.302772,70.651652 122.526652,70.9084503 C122.750533,71.1652487 122.846482,71.4862467 122.846482,71.8714442 C122.846482,72.3208414 122.686567,72.7060389 122.334755,72.9628373 C121.982942,73.2196357 121.535181,73.3801347 120.991471,73.3801347 C120.607676,73.3801347 120.287846,73.3159351 120,73.1554361 C119.712154,72.9949371 119.488273,72.8023383 119.328358,72.54554 C119.168443,72.2887416 119.072495,71.9998434 119.072495,71.7109452 L120.319829,71.7109452 C120.319829,71.9356438 120.383795,72.1282426 120.479744,72.224542 C120.575693,72.3208414 120.735608,72.385041 120.991471,72.385041 C121.311301,72.4813404 121.503198,72.3208414 121.503198,71.9998434 L121.503198,71.9998434 Z" id="E_1_"></path>
                    <path d="M125.692964,71.5183465 C125.692964,71.1973485 125.75693,70.9084503 125.916844,70.651652 C126.076759,70.3948536 126.332623,70.1059554 126.748401,69.7528577 C126.588486,69.4960593 126.428571,69.2071611 126.332623,68.9824626 C126.236674,68.757764 126.172708,68.5009656 126.172708,68.2120674 C126.172708,67.6663709 126.332623,67.2490735 126.620469,66.8959758 C126.908316,66.5749778 127.324094,66.382379 127.803838,66.382379 C128.251599,66.382379 128.603412,66.542878 128.923241,66.8317762 C129.211087,67.1527742 129.371002,67.5058719 129.371002,67.9552691 C129.371002,68.5651652 129.115139,69.0466621 128.635394,69.4318597 L128.251599,69.7528577 L129.115139,70.9726499 C129.211087,70.651652 129.275053,70.2985542 129.275053,69.9133566 L130.394456,69.9133566 C130.394456,70.7800512 130.234542,71.5183465 129.882729,72.0319432 L130.778252,73.2838353 L129.275053,73.2838353 L129.01919,72.9307375 C128.603412,73.2196357 128.15565,73.3801347 127.61194,73.3801347 C127.036247,73.3801347 126.588486,73.1875359 126.236674,72.8344381 C125.884861,72.4813404 125.692964,72.0961428 125.692964,71.5183465 L125.692964,71.5183465 Z M127.643923,72.3529412 C127.899787,72.3529412 128.123667,72.2566418 128.347548,72.0961428 L127.260128,70.5553526 L127.228145,70.5874524 C127.06823,70.8442507 127.004264,71.1010491 127.004264,71.4220471 C127.004264,71.6788455 127.06823,71.903544 127.196162,72.064043 C127.324094,72.2566418 127.484009,72.3529412 127.643923,72.3529412 L127.643923,72.3529412 Z M127.324094,68.1799676 C127.324094,68.4046662 127.420043,68.6935644 127.643923,69.0145623 L127.867804,68.8540634 C127.995736,68.757764 128.091684,68.6614646 128.15565,68.5330654 C128.219616,68.4046662 128.251599,68.276267 128.251599,68.0836682 C128.251599,67.9231693 128.219616,67.7947701 128.123667,67.6663709 C128.027719,67.5700715 127.93177,67.5058719 127.803838,67.5058719 C127.675906,67.5058719 127.547974,67.5700715 127.484009,67.6984707 C127.38806,67.8268699 127.324094,67.9873689 127.324094,68.1799676 L127.324094,68.1799676 Z M135.031983,72.1924422 L137.462687,72.1924422 L137.462687,73.3480349 L133.656716,73.3480349 L133.656716,66.5107782 L135.031983,66.5107782 L135.031983,72.1924422 L135.031983,72.1924422 Z" id="Shape"></path>
                    <path d="M138.198294,66.9601754 C138.198294,66.7675766 138.26226,66.5749778 138.390192,66.4465786 C138.518124,66.3181794 138.710021,66.2539799 138.901919,66.2539799 C139.093817,66.2539799 139.285714,66.3181794 139.413646,66.4465786 C139.541578,66.5749778 139.605544,66.7354768 139.605544,66.9601754 C139.605544,67.1527742 139.541578,67.3453729 139.413646,67.4737721 C139.285714,67.6021713 139.093817,67.6663709 138.901919,67.6663709 C138.710021,67.6663709 138.518124,67.6021713 138.390192,67.4737721 C138.26226,67.3132731 138.198294,67.1527742 138.198294,66.9601754 Z M139.573561,73.3480349 L138.230277,73.3480349 L138.230277,68.276267 L139.573561,68.276267 L139.573561,73.3480349 Z" id="G"></path>
                    <path d="M144.5629,70.9726499 C144.5629,71.8072446 144.434968,72.4171408 144.179104,72.8344381 C143.923241,73.2517355 143.507463,73.4443343 142.93177,73.4443343 C142.484009,73.4443343 142.132196,73.2517355 141.876333,72.8344381 L141.84435,73.3480349 L140.628998,73.3480349 L140.628998,66.1255807 L141.940299,66.1255807 L141.940299,68.6614646 C142.196162,68.3083668 142.515991,68.1478678 142.93177,68.1478678 C143.507463,68.1478678 143.891258,68.3404666 144.179104,68.757764 C144.434968,69.1750613 144.5629,69.7528577 144.594883,70.5553526 L144.5629,70.9726499 L144.5629,70.9726499 Z M143.219616,70.651652 C143.219616,70.1059554 143.15565,69.7528577 143.059701,69.5602589 C142.963753,69.3676601 142.771855,69.2713607 142.515991,69.2713607 C142.228145,69.2713607 142.036247,69.3997599 141.908316,69.6565583 L141.908316,71.9677436 C142.036247,72.1924422 142.228145,72.3208414 142.515991,72.3208414 C142.771855,72.3208414 142.93177,72.224542 143.027719,72.064043 C143.123667,71.903544 143.187633,71.5825461 143.187633,71.1010491 L143.187633,70.651652 L143.219616,70.651652 L143.219616,70.651652 Z" id="Shape"></path>
                    <path d="M147.857143,69.5602589 L147.409382,69.5281591 C147.057569,69.5281591 146.801706,69.6886581 146.673774,70.009656 L146.673774,73.3801347 L145.33049,73.3801347 L145.33049,68.3083668 L146.577825,68.3083668 L146.609808,68.8540634 C146.833689,68.436766 147.121535,68.2120674 147.473348,68.2120674 C147.633262,68.2120674 147.729211,68.2441672 147.82516,68.276267 L147.857143,69.5602589 L147.857143,69.5602589 Z" id="C_2_"></path>
                    <path d="M150.799574,73.3480349 C150.767591,73.2838353 150.735608,73.1233363 150.671642,72.9628373 C150.447761,73.2838353 150.127932,73.4443343 149.712154,73.4443343 C149.296375,73.4443343 148.944563,73.3159351 148.656716,73.0270369 C148.36887,72.7381387 148.240938,72.385041 148.240938,71.9356438 C148.240938,71.3899473 148.400853,71.0047497 148.752665,70.6837518 C149.104478,70.3948536 149.584222,70.2343546 150.223881,70.2343546 L150.639659,70.2343546 L150.639659,69.8170573 C150.639659,69.5923587 150.607676,69.4318597 150.511727,69.3355603 C150.415778,69.2392609 150.319829,69.2071611 150.159915,69.2071611 C149.840085,69.2071611 149.648188,69.3997599 149.648188,69.7849575 L148.336887,69.7849575 C148.336887,69.3034605 148.496802,68.918263 148.848614,68.6293648 C149.200426,68.3083668 149.648188,68.1799676 150.191898,68.1799676 C150.735608,68.1799676 151.183369,68.3404666 151.471215,68.6293648 C151.791045,68.918263 151.918977,69.3355603 151.918977,69.8812569 L151.918977,72.2887416 C151.918977,72.7381387 151.982942,73.0591367 152.110874,73.3159351 L152.110874,73.3801347 L150.799574,73.3801347 L150.799574,73.3480349 L150.799574,73.3480349 Z M150.031983,72.4171408 C150.191898,72.4171408 150.287846,72.385041 150.415778,72.3208414 C150.54371,72.2566418 150.607676,72.1924422 150.639659,72.0961428 L150.639659,71.0368495 L150.319829,71.0368495 C150.095949,71.0368495 149.904051,71.1010491 149.776119,71.2615481 C149.648188,71.4220471 149.584222,71.5825461 149.584222,71.8393444 C149.584222,72.224542 149.712154,72.4171408 150.031983,72.4171408 L150.031983,72.4171408 Z M155.405117,69.5602589 L154.957356,69.5281591 C154.605544,69.5281591 154.34968,69.6886581 154.221748,70.009656 L154.221748,73.3801347 L152.878465,73.3801347 L152.878465,68.3083668 L154.1258,68.3083668 L154.157783,68.8540634 C154.381663,68.436766 154.66951,68.2120674 155.021322,68.2120674 C155.181237,68.2120674 155.277186,68.2441672 155.373134,68.276267 L155.405117,69.5602589 Z M156.076759,66.9601754 C156.076759,66.7675766 156.140725,66.5749778 156.268657,66.4465786 C156.396588,66.3181794 156.588486,66.2539799 156.780384,66.2539799 C156.972281,66.2539799 157.164179,66.3181794 157.292111,66.4465786 C157.420043,66.5749778 157.484009,66.7354768 157.484009,66.9601754 C157.484009,67.1527742 157.420043,67.3453729 157.292111,67.4737721 C157.164179,67.6021713 156.972281,67.6663709 156.780384,67.6663709 C156.588486,67.6663709 156.396588,67.6021713 156.268657,67.4737721 C156.140725,67.3132731 156.076759,67.1527742 156.076759,66.9601754 Z M157.484009,73.3480349 L156.140725,73.3480349 L156.140725,68.276267 L157.484009,68.276267 L157.484009,73.3480349 Z" id="Shape"></path>
                    <path d="M160.554371,73.4443343 C159.882729,73.4443343 159.339019,73.2517355 158.955224,72.8344381 C158.571429,72.4171408 158.379531,71.8393444 158.379531,71.1010491 L158.379531,70.6837518 C158.379531,69.8812569 158.539446,69.2713607 158.891258,68.8219636 C159.24307,68.3725664 159.754797,68.1799676 160.394456,68.1799676 C161.034115,68.1799676 161.513859,68.3725664 161.833689,68.7898638 C162.153518,69.2071611 162.313433,69.8170573 162.313433,70.6195522 L162.313433,71.2615481 L159.690832,71.2615481 C159.722814,71.6467457 159.78678,71.9356438 159.946695,72.0961428 C160.10661,72.2566418 160.33049,72.3529412 160.618337,72.3529412 C161.066098,72.3529412 161.41791,72.1924422 161.73774,71.8714442 L162.249467,72.6739391 C162.057569,72.9307375 161.833689,73.1233363 161.545842,73.2196357 C161.257996,73.3801347 160.906183,73.4443343 160.554371,73.4443343 L160.554371,73.4443343 Z M159.722814,70.330654 L161.034115,70.330654 L161.034115,70.2022548 C161.034115,69.8812569 160.970149,69.6565583 160.8742,69.4960593 C160.778252,69.3355603 160.618337,69.2713607 160.394456,69.2713607 C160.170576,69.2713607 160.010661,69.3676601 159.882729,69.5281591 C159.754797,69.6886581 159.754797,69.9454564 159.722814,70.330654 Z" id="D_1_"></path>
                    <path d="M165.351812,71.9998434 C165.351812,71.8714442 165.287846,71.7751448 165.191898,71.6788455 C165.095949,71.5825461 164.840085,71.4541469 164.488273,71.2936479 C163.944563,71.0689493 163.560768,70.8442507 163.36887,70.5874524 C163.176972,70.330654 163.049041,70.0417558 163.049041,69.6886581 C163.049041,69.2392609 163.208955,68.8861632 163.528785,68.597265 C163.848614,68.3083668 164.264392,68.1478678 164.808102,68.1478678 C165.351812,68.1478678 165.799574,68.276267 166.151386,68.5651652 C166.503198,68.8540634 166.663113,69.2392609 166.663113,69.7207579 L165.351812,69.7207579 C165.351812,69.3034605 165.191898,69.1108617 164.840085,69.1108617 C164.712154,69.1108617 164.584222,69.1429615 164.488273,69.2392609 C164.392324,69.3355603 164.360341,69.4639595 164.360341,69.5923587 C164.360341,69.7207579 164.424307,69.8170573 164.520256,69.8812569 C164.616205,69.9454564 164.840085,70.1059554 165.223881,70.2343546 C165.767591,70.4269534 166.151386,70.651652 166.375267,70.9084503 C166.599147,71.1652487 166.695096,71.4862467 166.695096,71.8714442 C166.695096,72.3208414 166.535181,72.7060389 166.183369,72.9628373 C165.831557,73.2196357 165.383795,73.3801347 164.840085,73.3801347 C164.45629,73.3801347 164.136461,73.3159351 163.848614,73.1554361 C163.560768,72.9949371 163.336887,72.8023383 163.176972,72.54554 C163.017058,72.2887416 162.921109,71.9998434 162.921109,71.7109452 L164.168443,71.7109452 C164.168443,71.9356438 164.232409,72.1282426 164.328358,72.224542 C164.424307,72.3208414 164.584222,72.385041 164.840085,72.385041 C165.159915,72.4813404 165.351812,72.3208414 165.351812,71.9998434 L165.351812,71.9998434 Z M173.251599,70.3948536 L171.108742,70.3948536 L171.108742,72.224542 L173.635394,72.224542 L173.635394,73.3801347 L169.733475,73.3801347 L169.733475,66.542878 L173.635394,66.542878 L173.635394,67.6984707 L171.108742,67.6984707 L171.108742,69.3034605 L173.251599,69.3034605 L173.251599,70.3948536 Z M176.066098,69.7849575 L176.641791,68.276267 L178.049041,68.276267 L176.897655,70.7479514 L178.113006,73.3480349 L176.705757,73.3480349 L176.098081,71.743045 L175.490405,73.3480349 L174.083156,73.3480349 L175.298507,70.7479514 L174.147122,68.276267 L175.554371,68.276267 L176.066098,69.7849575 L176.066098,69.7849575 Z M182.654584,70.9726499 C182.654584,71.7751448 182.526652,72.385041 182.238806,72.8023383 C181.950959,73.2196357 181.567164,73.4443343 181.023454,73.4443343 C180.607676,73.4443343 180.287846,73.2838353 180.031983,72.9307375 L180.031983,75.3061224 L178.720682,75.3061224 L178.720682,68.276267 L179.936034,68.276267 L179.968017,68.757764 C180.223881,68.3725664 180.575693,68.2120674 180.991471,68.2120674 C181.535181,68.2120674 181.950959,68.4046662 182.206823,68.7898638 C182.49467,69.1750613 182.622601,69.7849575 182.622601,70.6195522 L182.654584,70.9726499 L182.654584,70.9726499 Z M181.343284,70.651652 C181.343284,70.170155 181.279318,69.8170573 181.183369,69.5923587 C181.08742,69.3997599 180.895522,69.2713607 180.639659,69.2713607 C180.383795,69.2713607 180.159915,69.3997599 180.031983,69.6244585 L180.031983,72.0319432 C180.159915,72.2566418 180.351812,72.3529412 180.639659,72.3529412 C180.895522,72.3529412 181.08742,72.2566418 181.183369,72.0319432 C181.279318,71.8072446 181.343284,71.4541469 181.343284,71.0047497 L181.343284,70.651652 Z M184.861407,73.3480349 L183.518124,73.3480349 L183.518124,66.1255807 L184.861407,66.1255807 L184.861407,73.3480349 Z" id="Shape"></path>
                    <path d="M185.724947,70.651652 C185.724947,69.8812569 185.916844,69.2713607 186.268657,68.8219636 C186.620469,68.3725664 187.132196,68.1478678 187.771855,68.1478678 C188.411514,68.1478678 188.923241,68.3725664 189.275053,68.8219636 C189.626866,69.2713607 189.818763,69.8812569 189.818763,70.651652 L189.818763,70.9726499 C189.818763,71.743045 189.626866,72.3529412 189.275053,72.8023383 C188.923241,73.2517355 188.411514,73.4443343 187.771855,73.4443343 C187.132196,73.4443343 186.620469,73.2196357 186.268657,72.8023383 C185.916844,72.3529412 185.724947,71.743045 185.724947,70.9726499 L185.724947,70.651652 Z M187.06823,70.9726499 C187.06823,71.8714442 187.324094,72.3529412 187.803838,72.3529412 C188.251599,72.3529412 188.47548,71.9677436 188.539446,71.1973485 L188.539446,70.6195522 C188.539446,70.1380552 188.47548,69.8170573 188.347548,69.5923587 C188.219616,69.3676601 188.027719,69.2392609 187.803838,69.2392609 C187.579957,69.2392609 187.38806,69.3676601 187.292111,69.5923587 C187.164179,69.8170573 187.100213,70.170155 187.100213,70.6195522 L187.06823,70.9726499 L187.06823,70.9726499 L187.06823,70.9726499 Z" id="F_1_"></path>
                    <path d="M193.176972,69.5602589 L192.729211,69.5281591 C192.377399,69.5281591 192.121535,69.6886581 191.993603,70.009656 L191.993603,73.3801347 L190.65032,73.3801347 L190.65032,68.3083668 L191.897655,68.3083668 L191.929638,68.8540634 C192.153518,68.436766 192.441365,68.2120674 192.793177,68.2120674 C192.953092,68.2120674 193.049041,68.2441672 193.144989,68.276267 L193.176972,69.5602589 L193.176972,69.5602589 Z" id="C_3_"></path>
                    <path d="M196.119403,73.3480349 C196.08742,73.2838353 196.055437,73.1233363 195.991471,72.9628373 C195.767591,73.2838353 195.447761,73.4443343 195.031983,73.4443343 C194.616205,73.4443343 194.264392,73.3159351 193.976546,73.0270369 C193.688699,72.7381387 193.560768,72.385041 193.560768,71.9356438 C193.560768,71.3899473 193.720682,71.0047497 194.072495,70.6837518 C194.424307,70.3948536 194.904051,70.2343546 195.54371,70.2343546 L195.959488,70.2343546 L195.959488,69.8170573 C195.959488,69.5923587 195.927505,69.4318597 195.831557,69.3355603 C195.735608,69.2392609 195.639659,69.2071611 195.479744,69.2071611 C195.159915,69.2071611 194.968017,69.3997599 194.968017,69.7849575 L193.656716,69.7849575 C193.656716,69.3034605 193.816631,68.918263 194.168443,68.6293648 C194.520256,68.3083668 194.968017,68.1799676 195.511727,68.1799676 C196.055437,68.1799676 196.503198,68.3404666 196.791045,68.6293648 C197.110874,68.918263 197.238806,69.3355603 197.238806,69.8812569 L197.238806,72.2887416 C197.238806,72.7381387 197.302772,73.0591367 197.430704,73.3159351 L197.430704,73.3801347 L196.119403,73.3801347 L196.119403,73.3480349 L196.119403,73.3480349 Z M195.319829,72.4171408 C195.479744,72.4171408 195.575693,72.385041 195.703625,72.3208414 C195.831557,72.2566418 195.895522,72.1924422 195.927505,72.0961428 L195.927505,71.0368495 L195.607676,71.0368495 C195.383795,71.0368495 195.191898,71.1010491 195.063966,71.2615481 C194.936034,71.4220471 194.872068,71.5825461 194.872068,71.8393444 C194.872068,72.224542 195.031983,72.4171408 195.319829,72.4171408 L195.319829,72.4171408 Z M199.765458,67.024375 L199.765458,68.276267 L200.4371,68.276267 L200.4371,69.2713607 L199.765458,69.2713607 L199.765458,71.8072446 C199.765458,71.9998434 199.797441,72.1603424 199.861407,72.224542 C199.925373,72.2887416 200.021322,72.3529412 200.181237,72.3529412 C200.309168,72.3529412 200.405117,72.3529412 200.501066,72.3208414 L200.501066,73.3480349 C200.277186,73.4443343 200.021322,73.4764341 199.765458,73.4764341 C198.901919,73.4764341 198.486141,72.9949371 198.454158,71.9998434 L198.454158,69.3034605 L197.878465,69.3034605 L197.878465,68.3083668 L198.454158,68.3083668 L198.454158,67.0564748 L199.765458,67.024375 L199.765458,67.024375 Z" id="Shape"></path>
                    <path d="M201.172708,66.9601754 C201.172708,66.7675766 201.236674,66.5749778 201.364606,66.4465786 C201.492537,66.3181794 201.684435,66.2539799 201.876333,66.2539799 C202.06823,66.2539799 202.260128,66.3181794 202.38806,66.4465786 C202.515991,66.5749778 202.579957,66.7354768 202.579957,66.9601754 C202.579957,67.1527742 202.515991,67.3453729 202.38806,67.4737721 C202.260128,67.6021713 202.06823,67.6663709 201.876333,67.6663709 C201.684435,67.6663709 201.492537,67.6021713 201.364606,67.4737721 C201.236674,67.3132731 201.172708,67.1527742 201.172708,66.9601754 Z M202.547974,73.3480349 L201.204691,73.3480349 L201.204691,68.276267 L202.547974,68.276267 L202.547974,73.3480349 Z" id="G_1_"></path>
                    <path d="M203.411514,70.651652 C203.411514,69.8812569 203.603412,69.2713607 203.955224,68.8219636 C204.307036,68.3725664 204.818763,68.1478678 205.458422,68.1478678 C206.098081,68.1478678 206.609808,68.3725664 206.96162,68.8219636 C207.313433,69.2713607 207.50533,69.8812569 207.50533,70.651652 L207.50533,70.9726499 C207.50533,71.743045 207.313433,72.3529412 206.96162,72.8023383 C206.609808,73.2517355 206.098081,73.4443343 205.458422,73.4443343 C204.818763,73.4443343 204.307036,73.2196357 203.955224,72.8023383 C203.603412,72.3529412 203.411514,71.743045 203.411514,70.9726499 L203.411514,70.651652 Z M204.754797,70.9726499 C204.754797,71.8714442 205.010661,72.3529412 205.490405,72.3529412 C205.938166,72.3529412 206.162047,71.9677436 206.226013,71.1973485 L206.226013,70.6195522 C206.226013,70.1380552 206.162047,69.8170573 206.034115,69.5923587 C205.906183,69.3676601 205.714286,69.2392609 205.490405,69.2392609 C205.266525,69.2392609 205.074627,69.3676601 204.978678,69.5923587 C204.850746,69.8170573 204.78678,70.170155 204.78678,70.6195522 L204.78678,70.9726499 L204.754797,70.9726499 L204.754797,70.9726499 Z" id="F_2_"></path>
                    <path d="M209.584222,68.276267 L209.616205,68.7898638 C209.904051,68.4046662 210.319829,68.1799676 210.799574,68.1799676 C211.663113,68.1799676 212.110874,68.7898638 212.142857,70.009656 L212.142857,73.3480349 L210.799574,73.3480349 L210.799574,70.1059554 C210.799574,69.8170573 210.767591,69.6244585 210.671642,69.4639595 C210.575693,69.3355603 210.447761,69.2713607 210.223881,69.2713607 C209.968017,69.2713607 209.808102,69.3997599 209.648188,69.6565583 L209.648188,73.3480349 L208.304904,73.3480349 L208.304904,68.276267 L209.584222,68.276267 L209.584222,68.276267 Z" id="Path"></path>
                </g>
                <circle id="Oval" stroke="#FFFFFF" cx="45" cy="45" r="45.5"></circle>
                <path d="M74.0437603,70.7166478 C72.7046056,69.292328 71.4292201,67.8047052 70.1857193,66.3170824 C69.0059877,64.8611111 67.9219101,63.4684429 66.9334864,62.0441232 C65.9769473,60.6198035 65.1160621,59.2271353 64.3508308,57.8028156 C62.8203682,54.9858277 61.5768674,52.010582 60.3333666,48.8137755 C60.1739434,48.4339569 60.0464049,48.0224868 59.8869817,47.6110166 C59.7594431,47.1995465 59.60002,46.7880763 59.4405968,46.3766062 L58.5159423,43.8761338 L57.5912879,41.3123583 L57.1130183,40.0146447 L56.5709795,38.5270219 C56.3796717,38.0522487 56.1883639,37.5458239 55.9651714,37.0393991 C55.7419789,36.5646259 55.5506711,36.0582011 55.3274787,35.5517763 C54.8810938,34.5389267 54.4347088,33.5577286 53.9245547,32.5448791 C53.6694776,32.0384543 53.4144005,31.5320295 53.1274388,31.0572562 C52.840477,30.5508314 52.5853999,30.0760582 52.2665536,29.5696334 C51.6926301,28.5884354 51.0549374,27.6072373 50.3534754,26.6260393 C48.9505514,24.6636432 47.3563195,22.7645503 45.4432414,21.0553666 C43.5620478,19.3461829 41.3620079,17.8585601 39.0981987,16.7191043 C36.8343895,15.5796485 34.4749264,14.8516629 32.1792326,14.4085412 C29.8835387,13.933768 27.6834988,13.7755102 25.5153435,13.7755102 C23.3471883,13.7755102 21.2428023,13.9021164 19.1384162,14.1869803 C17.0340302,14.4718443 14.9615289,14.8200113 12.8571429,15.3897392 C15.0571828,15.0732237 17.2572227,15.1365268 19.4891472,15.5163454 C21.7210718,15.9278156 23.9211117,16.6874528 26.0254977,17.7319539 C28.1298837,18.8081066 30.0748466,20.1374717 31.8285016,21.6250945 C33.6140412,23.1127173 35.1763884,24.7585979 36.6430817,26.43613 C39.5445836,29.8228458 41.8402774,33.4311224 43.8808942,37.0393991 C44.9012025,38.8435374 45.825857,40.6793273 46.6867422,42.5151172 C47.1331271,43.4330121 47.5476274,44.350907 47.9621276,45.268802 L49.1099746,47.8958806 C50.4810139,51.0610355 51.9158226,54.0362812 53.5100544,56.6950113 C55.1042862,59.3537415 56.8260566,61.6643046 58.9304426,63.6900038 C60.0782895,64.7661565 61.2899057,65.7157029 62.5971758,66.5702948 C63.9682152,67.4881897 65.562447,68.31113 67.2842174,69.1657218 L72.8002595,71.824452 C73.7567986,72.2992252 74.7133377,72.8689531 75.6379921,73.438681 C76.4669927,73.9767574 77.2641086,74.5781368 77.9974552,75.2428193 C78.0293399,75.2744709 78.0612245,75.2744709 78.0612245,75.3061224 C76.7220698,73.6285903 75.3510304,72.172619 74.0437603,70.7166478 Z" id="Path" fill-opacity="0.4" fill="#FFFFFF"></path>
                <path d="M72.5397824,71.8708882 C73.050436,72.0281924 73.5610896,72.2169574 74.0717432,72.4057224 C74.5823968,72.5944875 75.0930504,72.7832525 75.5717882,73.0349392 C76.4335161,73.4124692 77.2633282,73.8843817 78.0612245,74.3877551 C77.3271599,73.6956167 76.5292637,73.1293217 75.6994516,72.5944875 C74.7738919,72.0281924 73.8164164,71.4618974 72.8589409,70.9899848 L67.3374989,68.3472746 C65.614043,67.497832 64.0182505,66.6798503 62.6458689,65.7674861 C61.3373191,64.9180435 60.1245168,63.9742184 58.9755462,62.90455 C56.8691001,60.8910565 55.1456442,58.5944155 53.5498517,55.9517053 C51.9540592,53.308995 50.5178459,50.3516765 49.1454644,47.2055929 L47.9964938,44.5943435 C47.5815877,43.6819793 47.1666817,42.769615 46.7198598,41.8572508 C45.8581318,40.0325223 44.9325721,38.2077938 43.9112649,36.4145262 C41.8686505,32.8279909 39.5707093,29.2414556 36.666367,25.8751461 C35.1982379,24.2077218 33.6343612,22.5717584 31.8470736,21.0930991 C30.0917019,19.6144398 28.144835,18.2930847 26.0383889,17.2234163 C23.9319428,16.1852087 21.7297492,15.4301486 19.4956397,15.0211577 C17.2615302,14.6436277 15.0593365,14.580706 12.8571429,14.8953144 C15.1231682,14.8323927 17.4530253,15.4616094 19.5594714,16.6256604 C20.6126944,17.1919554 21.6020858,17.9155546 22.5276454,18.6706147 C23.4532051,19.4256748 24.2830172,20.2751173 25.0489976,21.1245599 C25.7192304,21.87962 26.3575474,22.63468 26.9639486,23.3897401 C27.729929,24.3964868 28.4320777,25.4032336 29.1023105,26.4414412 C30.283197,28.2347088 31.3683359,30.0594373 32.3577272,31.8841658 C34.3365099,35.5336228 35.9961341,39.2145406 37.5280949,42.95838 L38.1025802,44.3426568 L38.6451497,45.6954728 C38.9643082,46.5134545 39.3153825,47.3628971 39.6664569,48.149418 C39.857952,48.5584088 40.0175312,48.9673997 40.2090263,49.3449297 C40.4005214,49.7224597 40.5601007,50.1314506 40.7515958,50.5089806 L41.3260811,51.6730316 L41.6133237,52.2393266 L41.9324822,52.8056217 C43.5601906,55.7629402 45.4432257,58.4056505 47.7092511,60.6708306 C48.4113998,61.362969 49.1135485,62.0236466 49.8795289,62.6214025 C51.6349007,64.0371401 53.5817675,65.2641127 55.7839612,66.3337811 C58.9436303,67.8753621 62.5820372,69.0079522 66.5076868,70.1090814 C68.4545536,70.6439156 70.497168,71.2102107 72.5397824,71.8708882 Z" id="Path" fill-opacity="0.6" fill="#FFFFFF"></path>
                <path d="M78.6898635,73.8752763 C78.6576714,73.8435301 78.6254794,73.8435301 78.6254794,73.811784 C77.8528705,73.2720998 76.9836854,72.827654 76.1145003,72.4467005 C75.6316197,72.1927314 75.1165471,72.0022547 74.6014745,71.8117779 C74.0864018,71.6213011 73.5713292,71.4308243 73.0562566,71.2720937 C70.9959661,70.605425 68.9356755,70.0339947 66.9719611,69.4943105 C63.0123403,68.383196 59.3424478,67.2403353 56.1554359,65.684775 C53.9341852,64.6371527 51.9704708,63.3673076 50.1999086,61.9387318 C49.4272996,61.3038092 48.6868827,60.6688866 48.0108499,59.9704718 C45.7252151,57.6847505 43.8258848,55.0180757 42.1840908,52.0339396 L41.8621704,51.4625093 L41.572442,50.8910789 L40.9929853,49.7164722 C40.7998331,49.3355186 40.6388729,48.9228189 40.4457206,48.5418654 C40.2525684,48.1609118 40.0916082,47.7482122 39.898456,47.3355125 C39.5443435,46.5418593 39.1902311,45.6847138 38.8683107,44.8593144 L38.321046,43.4942309 L37.7415893,42.0974012 C36.1963714,38.3196119 34.5223854,34.6053148 32.5264789,30.9227639 C31.5285257,29.0814884 30.4339964,27.2402129 29.2428909,25.4306836 C28.5668581,24.3830613 27.8586332,23.3671852 27.0860243,22.351309 C26.4743755,21.5576558 25.8305347,20.7957487 25.1545019,20.0655878 C24.381893,19.2084423 23.5448999,18.3512968 22.6113308,17.5893897 C21.6777617,16.8274826 20.6798084,16.0973217 19.6174711,15.5258913 C17.4927965,14.3512846 15.1427777,13.716362 12.8571429,13.7798542 L12.8571429,13.7798542 L14.9174334,16.3512907 C15.4646981,17.2084362 15.9153866,18.0338355 16.3016911,18.890981 C17.0743,20.5735258 17.5571806,22.3195629 18.0400612,24.1290923 C18.9414383,27.748151 19.7140473,31.5894326 20.7120005,35.4624603 C21.6777617,39.335488 22.804483,43.2402619 24.1243567,47.0815435 L24.6394293,48.5101193 L24.8969656,49.2402802 L25.0257338,49.5894876 L25.186694,49.9704412 C25.5729984,51.0180634 25.9914949,52.0656857 26.4743755,53.113308 C26.9250641,54.1609302 27.4401367,55.2085525 27.9874014,56.2244286 C28.2449377,56.7323667 28.5346661,57.2403047 28.8243944,57.7482428 C29.0819307,58.287927 29.4038511,58.7641189 29.7257715,59.272057 C32.2045586,63.2720692 35.5203386,67.0181124 39.5765356,69.9387563 C43.6327325,72.8594001 48.3649623,74.795914 53.0328081,75.6213133 C55.4794031,76.0657592 57.861614,76.2244898 60.2116329,76.2244898 C62.3684995,76.2244898 64.4609821,76.034013 66.4890805,75.780044 C68.6137551,75.526075 70.7062377,75.1451214 72.7343362,74.795914 L74.2795541,74.541945 L75.824772,74.3197221 C76.2754605,74.2562298 76.7261491,74.1927375 77.2090297,74.1609914 C77.7241023,74.0974992 78.2391749,74.0974992 78.7864396,74.065753 C78.8186316,74.065753 78.8508237,74.065753 78.8508237,74.065753 C78.8830157,74.065753 78.9152078,74.065753 78.9795918,74.065753 C78.8830157,74.0022608 78.7864396,73.9387685 78.6898635,73.8752763 Z" id="Path" fill-opacity="0.3" fill="#FFFFFF"></path>
                <path d="M80.7985363,32.4228129 C81.1839194,24.2803777 75.2425972,17.7664295 69.3333903,14.1582131 C60.7586172,8.76185412 61.2724613,14.669111 62.1716884,16.5211159 C63.0388003,18.7882253 65.9612885,22.6518907 70.2326174,26.8029361 C76.6556684,32.9337108 80.7021905,35.2008202 80.7985363,32.4228129 Z M14.8016873,70.197326 C10.4018974,71.9535376 21.4816604,80.0959728 22.9910773,78.8506591 C24.5004943,77.5734144 18.2059043,68.9520124 14.8016873,70.197326 Z" id="Shape" fill-opacity="0.5" fill="#FFFFFF"></path>
            </g>
        </g>
    </g>
</svg>