<?xml version="1.0" encoding="utf-8"?>
<!-- Generator: Adobe Illustrator 25.2.0, SVG Export Plug-In . SVG Version: 6.00 Build 0)  -->
<svg version="1.1" id="Layer_1" xmlns="http://www.w3.org/2000/svg" xmlns:xlink="http://www.w3.org/1999/xlink" x="0px" y="0px"
	 viewBox="0 0 254.9 45" style="enable-background:new 0 0 254.9 45;" xml:space="preserve">
<style type="text/css">
	.st0{fill-rule:evenodd;clip-rule:evenodd;fill:#FFFFFE;}
</style>
<g id="Page-1">
	<g id="hesburgh_mark_H2_white">
		<polygon id="Fill-63" class="st0" points="188.9,40.9 189.7,40.9 189.7,0.9 188.9,0.9 		"/>
		<g id="Group-64" transform="translate(200.000000, 8.000000)">
			<polyline id="Fill-45" class="st0" points="-191,1 -191,19 -192.5,19 -192.5,10.4 -198.5,10.4 -198.5,19 -200,19 -200,1 
				-198.5,1 -198.5,9.1 -192.5,9.1 -192.5,1 -191,1 			"/>
			<polyline id="Fill-46" class="st0" points="-180.4,1 -180.4,2.4 -186.4,2.4 -186.4,9.1 -181.2,9.1 -181.2,10.4 -186.4,10.4 
				-186.4,17.6 -180,17.6 -180,19 -188,19 -188,1 -180.4,1 			"/>
			<path id="Fill-47" class="st0" d="M-171.5,15c0-2.6-0.7-3.2-3.1-3.9c-2.1-0.6-3.9-1.4-3.9-5c0-3.4,1.1-5,4.3-5c3.6,0,4,2.2,4,5
				l-1.5,0.2c0-2.3-0.2-3.8-2.5-3.8c-1.9,0-2.8,0.9-2.8,3.6c0,2.3,0.7,2.9,2.9,3.5c2.4,0.7,4.1,1.5,4.1,5.4c0,3.6-1.6,5.1-4.8,5.1
				c-3.5,0-4.2-2-4.2-5.1l1.5-0.2c0,2.5,0.3,4,2.7,4C-172.5,18.6-171.5,17.7-171.5,15"/>
			<path id="Fill-48" class="st0" d="M-162.1,17.6c1.6,0,2.6-0.6,2.6-3.4c0-3.2-1.1-3.8-2.5-3.8h-3.6v7.2H-162.1z M-165.5,2.4v6.7
				h3.5c1.3,0,2.2-1.1,2.2-3.4c0-2.7-0.7-3.3-2.2-3.3H-165.5z M-167,19V1h5.1c2.3,0,3.5,1,3.5,4.6c0,2.7-1,3.7-1.9,4.1
				c1,0.3,2.2,1.2,2.2,4.6c0,3.7-1.3,4.8-3.7,4.8H-167L-167,19z"/>
			<path id="Fill-49" class="st0" d="M-156,14.3V1h1.5v13.3c0,2.3,0.3,3.4,3,3.4c2.7,0,3-1.1,3-3.4V1h1.5v13.3c0,3-0.8,4.7-4.5,4.7
				C-155.2,19-156,17.4-156,14.3"/>
			<path id="Fill-51" class="st0" d="M-128.6,1c3.7,0,4.6,1.7,4.6,5.1l-1.6,0.2c0-2.8-0.5-3.9-3-3.9c-3.1,0-3.8,2.3-3.8,8.1
				c0,5.8,0.4,8.1,3.7,8.1c1.4,0,2.4-0.2,3.2-0.6v-6.4h-2.5v-1.4h4.1V19c-1.4,0.7-2.7,1-4.8,1c-4.2,0-5.2-2.6-5.2-9.5
				C-134,3.6-132.8,1-128.6,1"/>
			<polyline id="Fill-52" class="st0" points="-113,1 -113,19 -114.5,19 -114.5,10.4 -120.5,10.4 -120.5,19 -122,19 -122,1 
				-120.5,1 -120.5,9.1 -114.5,9.1 -114.5,1 -113,1 			"/>
			<polyline id="Fill-53" class="st0" points="-104.5,17.6 -99,17.6 -99,19 -106,19 -106,1 -104.5,1 -104.5,17.6 			"/>
			<polygon id="Fill-54" class="st0" points="-97,19 -95,19 -95,1 -97,1 			"/>
			<polygon id="Fill-59" class="st0" points="-48,19 -46,19 -46,1 -48,1 			"/>
			<polyline id="Fill-60" class="st0" points="-36.4,1 -36.4,2.4 -42.4,2.4 -42.4,9.1 -37.2,9.1 -37.2,10.4 -42.4,10.4 -42.4,17.6 
				-36,17.6 -36,19 -44,19 -44,1 -36.4,1 			"/>
			<path id="Fill-61" class="st0" d="M-26.7,14.5c0-2.5-0.7-3.2-3.1-3.8c-2.1-0.6-4-1.4-4-4.9c0-3.3,1.1-4.9,4.4-4.9
				c3.7,0,4,2.2,4,4.9l-1.5,0.2c0-2.2-0.2-3.7-2.5-3.7c-1.9,0-2.8,0.9-2.8,3.6c0,2.2,0.7,2.8,2.9,3.4c2.5,0.7,4.2,1.5,4.2,5.3
				c0,3.5-1.6,5-4.9,5c-3.5,0-4.3-2-4.3-5l1.5-0.2c0,2.5,0.3,3.9,2.8,3.9C-27.7,18.1-26.7,17.2-26.7,14.5"/>
			<path id="Fill-55" class="st0" d="M-87.1,17.6c1.6,0,2.6-0.6,2.6-3.4c0-3.2-1.1-3.8-2.5-3.8h-3.6v7.2H-87.1z M-90.5,2.4v6.7h3.5
				c1.3,0,2.2-1.1,2.2-3.4c0-2.7-0.7-3.3-2.2-3.3H-90.5z M-92,19V1h5.1c2.3,0,3.5,1,3.5,4.6c0,2.7-1,3.7-1.9,4.1
				c1,0.3,2.2,1.2,2.2,4.6c0,3.7-1.3,4.8-3.7,4.8H-92L-92,19z"/>
			<path id="Fill-56" class="st0" d="M-76.4,9.9c1.7,0,2.6-0.7,2.6-3.8c0-3.1-0.9-3.8-2.6-3.8h-2.2v7.6H-76.4z M-78.5,19H-80V1h3.7
				c2.3,0,3.9,0.8,3.9,5.1c0,3.4-0.9,4.6-2.4,5L-72,19h-1.6l-2.5-7.7h-2.4V19L-78.5,19z"/>
			<path id="Fill-57" class="st0" d="M-68.4,13.8h4.7L-66,2.3L-68.4,13.8z M-64.9,1l3.9,18h-1.6l-0.8-3.9h-5.3l-0.8,3.9H-71l3.8-18
				H-64.9L-64.9,1z"/>
			<path id="Fill-58" class="st0" d="M-55.4,9.9c1.7,0,2.6-0.7,2.6-3.8c0-3.1-0.9-3.8-2.6-3.8h-2.2v7.6H-55.4z M-57.5,19H-59V1h3.7
				c2.3,0,3.9,0.8,3.9,5.1c0,3.4-0.9,4.6-2.4,5L-51,19h-1.6l-2.5-7.7h-2.4V19L-57.5,19z"/>
			<path id="Fill-50" class="st0" d="M-140.4,9.9c1.7,0,2.6-0.7,2.6-3.8c0-3.1-0.9-3.8-2.6-3.8h-2.2v7.6H-140.4z M-142.5,19h-1.5V1
				h3.7c2.3,0,3.9,0.8,3.9,5.1c0,3.4-0.9,4.6-2.4,5l2.8,7.9h-1.6l-2.5-7.7h-2.4V19L-142.5,19z"/>
		</g>
	</g>
	
		<image style="overflow:visible;enable-background:new    ;" width="158" height="155" id="RBSC.Seal" xlink:href="E05D7B22610D49D0.png"  transform="matrix(0.2903 0 0 0.2903 209 0)">
	</image>
</g>
</svg>
