<svg xmlns="http://www.w3.org/2000/svg" xmlns:xlink="http://www.w3.org/1999/xlink" width="1023.1" height="289.6" xmlns:v="https://vecta.io/nano"><g fill="#fff"><path d="M426 111.9c-6.7-6.7-15-10.1-24.6-10.1s-17.9 3.4-24.6 10.1a41.21 41.21 0 0 0-2.8 3.1c-.8-1.1-1.7-2.1-2.7-3.1-6.7-6.7-15-10.1-24.6-10.1-7.5 0-14.2 2.1-20 6.4H312V222h15v-87.2c.5-4.8 2.4-8.8 5.8-12.1 3.9-3.9 8.4-5.8 13.9-5.8s10.1 1.9 14 5.8c3.3 3.3 5.2 7.1 5.8 11.6V222h14.9v-84.9c0-5.9 1.9-10.6 5.8-14.5s8.5-5.8 14.1-5.8c5.5 0 10.1 1.9 14 5.8 3.3 3.2 5.1 6.9 5.6 11.4v88h15v-86.6c-.1-9-3.5-16.9-9.9-23.5zm140.3 7.2l-2-2.2c-12.3-12.3-27.4-18.5-44.9-18.5-17.3 0-32.4 6.2-44.7 18.5s-18.6 27.4-18.6 44.9c0 17.3 6.3 32.4 18.6 44.7s27.4 18.6 44.7 18.6c17.5 0 32.6-6.3 44.9-18.7.7-.7 1.3-1.4 2-2.1V222h15V108.2h-15v10.9zm-46.9 90.4c-13.1 0-24.5-4.7-33.8-13.9s-14-20.6-14-33.7 4.7-24.5 14-33.8 20.6-14.1 33.8-14.1c13.1 0 24.5 4.7 33.8 14.1 6.9 6.9 11.3 15 13.1 24.2v19.2c-1.8 9.1-6.2 17.1-13.1 24-9.3 9.2-20.7 14-33.8 14zm121.9-102c-9.7 4-17.2 9.6-22.2 16.8v-16.1h-15V222h15v-64.9c0-7.5 3.3-15 9.7-22.4s13-11.7 19.4-12.7l3.6-.6-8.4-14.7-2.1.8zm83.5-9.1c-17.4 0-32.5 6.2-44.8 18.5-.7.7-1.4 1.4-2 2.1V39.7h-15V222h15v-17.6c.6.7 1.3 1.4 2 2.1 12.3 12.4 27.4 18.7 44.8 18.7s32.5-6.3 44.8-18.6 18.5-27.4 18.5-44.7c0-17.5-6.2-32.6-18.5-44.9-12.4-12.4-27.4-18.6-44.8-18.6zm0 111.1c-13.1 0-24.5-4.7-33.8-14.1-6.8-6.7-11.2-14.6-12.9-23.4v-20.3c1.8-8.9 6.1-16.9 12.9-23.7 9.3-9.3 20.7-14.1 33.8-14.1s24.5 4.7 33.8 14.1c9.3 9.3 14 20.7 14 33.8s-4.7 24.5-14 33.7c-9.3 9.3-20.7 14-33.8 14zm83.7-169.8h15V222h-15zm159.2 119v-2.5c0-15.1-5.5-28.3-16.4-39.2-12.3-12.3-27.4-18.5-44.9-18.5-17.3 0-32.4 6.2-44.7 18.5s-18.6 27.4-18.6 44.9c0 17.3 6.3 32.4 18.6 44.7s27.4 18.6 44.7 18.6c17.5 0 32.6-6.3 44.9-18.6 4.2-4.1 6.9-7.2 8.3-9.5l1.6-2.6-15.2-5.4-1.1 1.4c-1.4 1.8-3 3.5-4.6 5.1-9.3 9.3-20.7 14.1-33.8 14.1s-24.5-4.7-33.8-13.9-14-20.6-14-33.7c0-1.1 0-2.1.1-3.1h108.9v-.3zm-61.3-44.8c13.1 0 24.5 4.7 33.8 14.1a45.44 45.44 0 0 1 10.2 15.5H862c2.4-5.6 5.9-10.8 10.6-15.5 9.3-9.3 20.7-14.1 33.8-14.1zm-588.1 133l4 15.4 4-15.4h5.6v21.3h-4.3v-5.8l.4-8.9-4.3 14.7h-2.9l-4.3-14.7.4 8.9v5.8h-4.3v-21.3h5.7z"/><use xlink:href="#B"/><path d="M357 264c0-.4-.2-.7-.5-1s-1.1-.7-2.2-1.2c-1.7-.7-2.9-1.4-3.5-2.2s-1-1.7-1-2.8c0-1.4.5-2.5 1.5-3.4s2.3-1.4 4-1.4 3.1.4 4.2 1.3 1.6 2.1 1.6 3.6H357c0-1.3-.5-1.9-1.6-1.9-.4 0-.8.1-1.1.4s-.4.7-.4 1.1.2.7.5.9 1 .7 2.2 1.1c1.7.6 2.9 1.3 3.6 2.1s1 1.8 1 3c0 1.4-.5 2.6-1.6 3.4s-2.5 1.3-4.2 1.3c-1.2 0-2.2-.2-3.1-.7s-1.6-1.1-2.1-1.9-.8-1.7-.8-2.6h3.9c0 .7.2 1.3.5 1.6s.8.5 1.6.5c1.1.3 1.6-.2 1.6-1.2zm13 4.5c-2.1 0-3.8-.6-5-1.9s-1.8-3.1-1.8-5.4v-1.3c0-2.5.5-4.4 1.6-5.8s2.7-2 4.7-2 3.5.6 4.5 1.9 1.5 3.2 1.5 5.7v2h-8.2c.1 1.2.3 2.1.8 2.6s1.2.8 2.1.8c1.4 0 2.5-.5 3.5-1.5l1.6 2.5a4.83 4.83 0 0 1-2.2 1.7c-.9.5-1.9.7-3.1.7zm-2.6-9.7h4.1v-.4c0-1-.2-1.7-.5-2.2s-.8-.7-1.5-.7-1.2.3-1.6.8-.4 1.3-.5 2.5z"/><use xlink:href="#B" x="42.8"/><path d="M396.7 252.4l.1 1.5c.9-1.2 2.2-1.8 3.7-1.8 1.6 0 2.7.7 3.4 2.1.9-1.4 2.2-2.1 3.9-2.1 2.8 0 4.2 1.9 4.3 5.8v10.4H408v-10.1c0-.9-.1-1.6-.4-2s-.7-.6-1.3-.6c-.8 0-1.3.5-1.7 1.4v11.3h-4.1v-10.1c0-.9-.1-1.6-.4-2s-.7-.6-1.3-.6c-.7 0-1.3.4-1.7 1.2v11.5H393v-15.8l3.7-.1zM422 264c0-.4-.2-.7-.5-1s-1.1-.7-2.2-1.2c-1.7-.7-2.9-1.4-3.5-2.2s-1-1.7-1-2.8c0-1.4.5-2.5 1.5-3.4s2.3-1.4 4-1.4 3.1.4 4.2 1.3 1.6 2.1 1.6 3.6H422c0-1.3-.5-1.9-1.6-1.9-.4 0-.8.1-1.1.4s-.4.7-.4 1.1.2.7.5.9 1 .7 2.2 1.1c1.7.6 2.9 1.3 3.6 2.1s1 1.8 1 3c0 1.4-.5 2.6-1.6 3.4s-2.5 1.3-4.2 1.3c-1.2 0-2.2-.2-3.1-.7s-1.6-1.1-2.1-1.9-.8-1.7-.8-2.6h3.9c0 .7.2 1.3.5 1.6s.8.5 1.6.5c1.1.3 1.6-.2 1.6-1.2zm7.9 9.6l-2.2-1.2.6-1c.6-1.2.9-2.3 1-3.5v-3.3h3.6v2.9c0 1-.3 2.1-.8 3.2s-1.4 2.1-2.2 2.9zm23.4-9.8h-5.9l-1.1 4.4h-4.6l6.7-21.3h3.9l6.7 21.3h-4.6l-1.1-4.4zm-4.9-3.5h4l-2-7.6-2 7.6z"/><use xlink:href="#C"/><path d="M476.2 265.1c1.2 0 1.8-.8 1.8-2.4h3.9c0 1.7-.6 3.1-1.6 4.2s-2.4 1.6-4 1.6c-2 0-3.6-.6-4.7-1.9s-1.6-3.1-1.6-5.6v-1.3c0-2.5.5-4.4 1.6-5.7s2.6-2 4.7-2c1.7 0 3.1.5 4.1 1.6s1.5 2.6 1.5 4.6H478a5.58 5.58 0 0 0-.4-2.1c-.2-.5-.8-.7-1.4-.7-.7 0-1.2.3-1.6.8-.3.5-.5 1.5-.5 3v1.6c0 1.3.1 2.2.2 2.7s.3.9.6 1.1c.4.4.8.5 1.3.5zm12.1-11.3c.9-1.1 2-1.7 3.3-1.7 1.4 0 2.5.5 3.3 1.5s1.1 2.5 1.1 4.5v10.1h-4.2v-10c0-.9-.1-1.6-.4-2s-.8-.6-1.4-.6c-.8 0-1.3.3-1.8 1v11.6h-4.1v-22.5h4.1v8.1h.1zm10.8-5.5c0-.6.2-1.2.6-1.6s1-.6 1.6-.6 1.2.2 1.6.6.6.9.6 1.6c0 .6-.2 1.2-.6 1.6s-1 .6-1.6.6-1.2-.2-1.6-.6-.6-1-.6-1.6zm4.3 19.9h-4.2v-15.8h4.2v15.8zm8.4-5.8l2-10h4.3l-4.4 15.8h-4l-4.4-15.8h4.3l2.2 10z"/><use xlink:href="#D"/><use xlink:href="#E"/><path d="M549.1 273.6l-2.2-1.2.6-1c.6-1.2.9-2.3 1-3.5v-3.3h3.6v2.9c0 1-.3 2.1-.8 3.2s-1.3 2.1-2.2 2.9zm19.7-13.2h-2.1v7.8h-4.3v-21.3h6.9c2.2 0 3.8.6 5 1.7s1.8 2.7 1.8 4.8c0 2.8-1 4.8-3.1 5.9l3.7 8.7v.2H572l-3.2-7.8zm-2.1-3.6h2.4c.9 0 1.5-.3 1.9-.9s.6-1.3.6-2.3c0-2.1-.8-3.2-2.5-3.2h-2.5l.1 6.4zm19.6 11.4c-.1-.2-.2-.7-.4-1.2-.7 1-1.7 1.5-3 1.5s-2.4-.4-3.3-1.3-1.3-2-1.3-3.4c0-1.7.5-2.9 1.6-3.9s2.6-1.4 4.6-1.4h1.3v-1.3c0-.7-.1-1.2-.4-1.5s-.6-.4-1.1-.4c-1 0-1.6.6-1.6 1.8h-4.1c0-1.5.5-2.7 1.6-3.6 1.1-1 2.5-1.4 4.2-1.4s3.1.5 4 1.4 1.4 2.2 1.4 3.9v7.5c0 1.4.2 2.4.6 3.2v.2h-4.1v-.1zm-2.4-2.9c.5 0 .8-.1 1.2-.3s.6-.4.7-.7V261h-1c-.7 0-1.3.2-1.7.7s-.6 1-.6 1.8c0 1.2.4 1.8 1.4 1.8z"/><use xlink:href="#C" x="132.1"/><path d="M609 268.5c-2.1 0-3.8-.6-5-1.9s-1.8-3.1-1.8-5.4v-1.3c0-2.5.5-4.4 1.6-5.8s2.7-2 4.7-2 3.5.6 4.5 1.9 1.5 3.2 1.5 5.7v2h-8.2c.1 1.2.3 2.1.8 2.6s1.2.8 2.1.8c1.4 0 2.5-.5 3.5-1.5l1.6 2.5a4.83 4.83 0 0 1-2.2 1.7c-1 .5-2 .7-3.1.7zm-2.6-9.7h4.1v-.4c0-1-.2-1.7-.5-2.2s-.8-.7-1.5-.7-1.2.3-1.6.8-.5 1.3-.5 2.5zm17.6 9.4v-21.3h6.6c2.2 0 3.9.5 5.1 1.5s1.7 2.4 1.7 4.4c0 1.1-.2 2-.7 2.8s-1.1 1.4-2 1.7c1 .3 1.7.8 2.2 1.6s.8 1.8.8 3.1c0 2.1-.6 3.6-1.7 4.7s-2.8 1.6-4.9 1.6H624v-.1zm4.3-12.4h2.2c1.7 0 2.5-.9 2.5-2.6 0-1-.2-1.7-.6-2.1s-1-.6-1.9-.6h-2.3l.1 5.3zm0 3.1v5.7h2.8c.8 0 1.4-.2 1.8-.7s.6-1.2.6-2c0-1.9-.7-2.9-2.1-2.9h-3.1v-.1zm11.9.9c0-2.4.6-4.3 1.7-5.7s2.7-2.1 4.7-2.1 3.6.7 4.7 2.1 1.7 3.3 1.7 5.7v1c0 2.4-.6 4.3-1.7 5.7s-2.7 2-4.7 2-3.6-.7-4.7-2c-1.1-1.4-1.7-3.3-1.7-5.7v-1zm4.1 1c0 2.8.8 4.3 2.3 4.3 1.4 0 2.1-1.2 2.3-3.6v-1.8c0-1.5-.2-2.5-.6-3.2s-1-1.1-1.7-1.1-1.3.4-1.6 1.1c-.4.7-.6 1.8-.6 3.2v1.1h-.1z"/><use xlink:href="#F"/><path d="M675.8 262.1l-1.1 1.2v4.9h-4.1v-22.5h4.1v12.2l.5-.8 2.9-4.7h4.9l-4.6 6.5 5 9.3h-4.7l-2.9-6.1z"/><use xlink:href="#E" x="150.6"/><path d="M705 262.5c0-1 .2-1.9.7-2.7s1.3-1.7 2.6-2.8c-.5-.8-1-1.7-1.3-2.4s-.5-1.5-.5-2.4c0-1.7.5-3 1.4-4.1.9-1 2.2-1.6 3.7-1.6 1.4 0 2.5.5 3.5 1.4.9 1 1.4 2.1 1.4 3.5 0 1.9-.8 3.4-2.3 4.6l-1.2 1 2.7 3.8c.3-1 .5-2.1.5-3.3h3.5c0 2.7-.5 5-1.6 6.6l2.8 3.9h-4.7l-.8-1.1c-1.3.9-2.7 1.4-4.4 1.4-1.8 0-3.2-.6-4.3-1.7s-1.7-2.3-1.7-4.1zm6.1 2.6c.8 0 1.5-.3 2.2-.8l-3.4-4.8-.1.1c-.5.8-.7 1.6-.7 2.6 0 .8.2 1.5.6 2 .4.6.9.9 1.4.9zm-1-13c0 .7.3 1.6 1 2.6l.7-.5c.4-.3.7-.6.9-1s.3-.8.3-1.4c0-.5-.1-.9-.4-1.3-.3-.3-.6-.5-1-.5a1.1 1.1 0 0 0-1 .6c-.3.4-.5.9-.5 1.5zm24.1 12.5h7.6v3.6h-11.9v-21.3h4.3v17.7z"/><use xlink:href="#G"/><path d="M764 260.8c0 2.6-.4 4.5-1.2 5.8s-2.1 1.9-3.9 1.9c-1.4 0-2.5-.6-3.3-1.9l-.1 1.6h-3.8v-22.5h4.1v7.9c.8-1.1 1.8-1.6 3.1-1.6 1.8 0 3 .6 3.9 1.9.8 1.3 1.2 3.1 1.3 5.6l-.1 1.3zm-4.2-1c0-1.7-.2-2.8-.5-3.4s-.9-.9-1.7-.9c-.9 0-1.5.4-1.9 1.2v7.2c.4.7 1 1.1 1.9 1.1.8 0 1.3-.3 1.6-.8s.5-1.5.5-3v-1.4h.1z"/><use xlink:href="#C" x="305.7"/><path d="M783.5 268.2c-.1-.2-.2-.7-.4-1.2-.7 1-1.7 1.5-3 1.5s-2.4-.4-3.3-1.3-1.3-2-1.3-3.4c0-1.7.5-2.9 1.6-3.9 1.1-.9 2.6-1.4 4.6-1.4h1.3v-1.3c0-.7-.1-1.2-.4-1.5s-.6-.4-1.1-.4c-1 0-1.6.6-1.6 1.8h-4.1c0-1.5.5-2.7 1.6-3.6 1.1-1 2.5-1.4 4.2-1.4s3.1.5 4 1.4c1 .9 1.4 2.2 1.4 3.9v7.5c0 1.4.2 2.4.6 3.2v.2h-4.1v-.1zm-2.4-2.9c.5 0 .8-.1 1.2-.3s.6-.4.7-.7V261h-1c-.7 0-1.3.2-1.7.7s-.6 1-.6 1.8c0 1.2.4 1.8 1.4 1.8zm16.8-8.9l-1.4-.1c-1.1 0-1.9.5-2.3 1.5v10.5H790v-15.8h3.9l.1 1.7c.7-1.3 1.6-2 2.7-2 .5 0 .8.1 1.1.2l.1 4zm2.1-8.1c0-.6.2-1.2.6-1.6s1-.6 1.6-.6 1.2.2 1.6.6.6.9.6 1.6c0 .6-.2 1.2-.6 1.6s-1 .6-1.6.6-1.2-.2-1.6-.6c-.4-.5-.6-1-.6-1.6zm4.4 19.9h-4.2v-15.8h4.2v15.8z"/><use xlink:href="#D" x="287.7"/><path d="M829 264c0-.4-.2-.7-.5-1s-1.1-.7-2.2-1.2c-1.7-.7-2.9-1.4-3.5-2.2s-1-1.7-1-2.8c0-1.4.5-2.5 1.5-3.4s2.3-1.4 4-1.4 3.1.4 4.2 1.3 1.6 2.1 1.6 3.6H829c0-1.3-.5-1.9-1.6-1.9-.4 0-.8.1-1.1.4s-.4.7-.4 1.1.2.7.5.9 1 .7 2.2 1.1c1.7.6 2.9 1.3 3.6 2.1s1 1.8 1 3c0 1.4-.5 2.6-1.6 3.4s-2.5 1.3-4.2 1.3c-1.2 0-2.2-.2-3.1-.7s-1.6-1.1-2.1-1.9-.8-1.7-.8-2.6h3.9c0 .7.2 1.3.5 1.6s.8.5 1.6.5c1 .3 1.6-.2 1.6-1.2zm24.7-5H847v5.7h7.9v3.6h-12.2V247h12.2v3.6H847v5h6.7v3.4zm8.8-1.9l1.8-4.7h4.4l-3.6 7.7 3.8 8.1h-4.4l-1.9-5-1.9 5h-4.4l3.8-8.1-3.6-7.7h4.4l1.6 4.7zm20.6 3.7c0 2.5-.4 4.4-1.3 5.7s-2.1 2-3.8 2c-1.3 0-2.3-.5-3.1-1.6v7.4h-4.1v-21.9h3.8l.1 1.5c.8-1.2 1.9-1.7 3.2-1.7 1.7 0 3 .6 3.8 1.8.9 1.2 1.3 3.1 1.3 5.7l.1 1.1zm-4.1-1c0-1.5-.2-2.6-.5-3.3-.3-.6-.9-1-1.7-1s-1.5.4-1.9 1.1v7.5c.4.7 1 1 1.9 1 .8 0 1.4-.3 1.7-1s.5-1.8.5-3.2v-1.1zm11 8.4h-4.2v-22.5h4.2v22.5z"/><use xlink:href="#F" x="237.6"/><use xlink:href="#C" x="447.4"/><path d="M925.2 268.2c-.1-.2-.2-.7-.4-1.2-.7 1-1.7 1.5-3 1.5s-2.4-.4-3.3-1.3-1.3-2-1.3-3.4c0-1.7.5-2.9 1.6-3.9 1.1-.9 2.6-1.4 4.6-1.4h1.3v-1.3c0-.7-.1-1.2-.4-1.5s-.6-.4-1.1-.4c-1 0-1.6.6-1.6 1.8h-4.1c0-1.5.5-2.7 1.6-3.6 1.1-1 2.5-1.4 4.2-1.4s3.1.5 4 1.4c1 .9 1.4 2.2 1.4 3.9v7.5c0 1.4.2 2.4.6 3.2v.2h-4.1v-.1zm-2.5-2.9c.5 0 .8-.1 1.2-.3s.6-.4.7-.7V261h-1c-.7 0-1.3.2-1.7.7s-.6 1-.6 1.8c0 1.2.5 1.8 1.4 1.8zm13.9-16.8v3.9h2.1v3.1h-2.1v7.9c0 .6.1 1.1.3 1.3s.5.4 1 .4c.4 0 .7 0 1-.1v3.2c-.7.3-1.5.4-2.3.4-2.7 0-4-1.5-4.1-4.6v-8.4h-1.8v-3.1h1.8v-3.9l4.1-.1z"/><use xlink:href="#G" x="196.9"/><use xlink:href="#F" x="292.9"/><path d="M967.3 252.4l.1 1.6c.9-1.2 2.2-1.9 3.7-1.9 2.7 0 4.1 1.9 4.2 5.7v10.4h-4.2v-10.1c0-.9-.1-1.5-.4-2-.3-.4-.7-.6-1.4-.6-.8 0-1.3.4-1.8 1.2v11.5h-4.2v-15.8h4z"/></g><circle cx="140.8" cy="148.8" r="140.8" opacity=".65" fill="#5aabbc" enable-background="new"/><path d="M39.8 52.5c6.6-1.8 13.1-2.9 19.7-3.8s13.2-1.3 20-1.3 13.7.5 20.9 2c7.2 1.4 14.6 3.7 21.7 7.3s14 8.3 19.9 13.7c6 5.4 11 11.4 15.4 17.6 2.2 3.1 4.2 6.2 6 9.3 1 1.6 1.8 3.1 2.7 4.7a107.01 107.01 0 0 1 2.5 4.7c1.6 3.2 3 6.3 4.4 9.5.7 1.6 1.3 3.2 2 4.7.7 1.6 1.3 3.2 1.9 4.7l1.7 4.7 1.5 4.1 2.9 8.1 2.9 7.9c.5 1.3 1 2.6 1.4 3.9.5 1.3.9 2.6 1.4 3.8 3.9 10.1 7.8 19.5 12.6 28.4 2.4 4.5 5.1 8.9 8.1 13.4 3.1 4.5 6.5 8.9 10.2 13.5a363.42 363.42 0 0 0 12.1 13.9c4.3 4.8 8.7 9.6 13.1 15.1-7 .6-13.8.2-20.5-.6a116.65 116.65 0 0 1-20.1-4.5c-6.6-2.2-13.2-5.1-19.6-8.7-6.3-3.7-12.4-8.1-17.9-13.1a122.07 122.07 0 0 1-15-16.4c-4.4-5.9-8.2-11.9-11.6-18.1-1.7-3.1-3.3-6.2-4.7-9.3-1.5-3.1-2.8-6.2-4.1-9.3s-2.4-6.2-3.6-9.3l-3-8.7c-3.6-10.7-7.4-20.8-11.5-29.8-2.1-4.5-4.2-8.5-6.6-12.3s-5-7.3-8.1-10.6-6.9-6.6-11.2-9.8-9.2-6.3-14.5-9.3l-16.3-9.5c-5.5-3.2-11.2-6.6-16.7-10.6z" fill="#ab262f"/><path d="M39.8 52.5c6.9-1 13.8-.8 20.8.4 7 1.3 13.9 3.7 20.5 7 6.6 3.4 12.7 7.6 18.2 12.3 5.6 4.7 10.5 9.9 15.1 15.2 9.1 10.7 16.3 22.1 22.7 33.5 3.2 5.7 6.1 11.5 8.8 17.3 1.4 2.9 2.7 5.8 4 8.7l3.6 8.3c4.3 10 8.8 19.4 13.8 27.8s10.4 15.7 17 22.1a83.85 83.85 0 0 0 11.5 9.1c4.3 2.9 9.3 5.5 14.7 8.2l17.3 8.4c3 1.5 6 3.3 8.9 5.1 2.9 1.9 5.7 4 8.2 6.5-6.9.9-13 2.4-19.3 3.7s-12.8 2.6-19.6 3.2-14.1.6-21.6-.4-15.1-3-22.5-6.2c-7.3-3.1-14.3-7.4-20.5-12.2-6.3-4.9-11.8-10.4-16.7-16.2-9.7-11.7-16.9-24.4-22.3-37.2l-1.9-4.7c-.6-1.4-1.2-2.8-1.7-4.2l-3.3-8.5-6.2-16.8-11.9-32.6A349.58 349.58 0 0 0 71.1 95c-2.3-5-4.7-9.8-7.6-14.5s-6.2-9.4-10.2-14-8.6-9.1-13.5-14z" fill="#ae9041"/><path d="M39.8 52.5c7.1-.2 14.4 1.8 21 5.5 3.3 1.8 6.4 4.1 9.3 6.5s5.5 5.1 7.9 7.8c4.9 5.4 9 11.1 12.7 16.9 3.7 5.7 7.1 11.5 10.2 17.3 6.2 11.6 11.4 23.3 16.2 35.2l1.8 4.4 1.7 4.3c1 2.6 2.1 5.3 3.2 7.8.6 1.3 1.1 2.6 1.7 3.8s1.1 2.5 1.7 3.7l1.8 3.7.9 1.8 1 1.8c5.1 9.4 11 17.8 18.1 25s15.4 13.2 25.3 18c9.9 4.9 21.3 8.5 33.6 12 6.1 1.7 12.5 3.5 18.9 5.6 1.6.5 3.2 1.1 4.8 1.7s3.2 1.2 4.7 2c3.1 1.4 6.2 3.1 8.9 5.1-3.4 0-6.6.3-9.8.8l-4.8.7-4.8.8c-6.3 1.1-12.8 2.3-19.4 3.1-13.2 1.7-27.3 2.2-41.8-.5-14.5-2.6-29.2-8.7-41.8-17.9s-22.9-21-30.6-33.6c-1-1.6-2-3.1-2.8-4.8-.9-1.6-1.8-3.2-2.6-4.8-1.7-3.2-3.3-6.5-4.7-9.8-1.5-3.3-2.8-6.6-4-9.9l-.5-1.2-.4-1.1-.8-2.3-1.6-4.5c-4.1-12.1-7.6-24.4-10.6-36.6-3.1-12.2-5.5-24.3-8.3-35.7-1.5-5.7-3-11.2-5.4-16.5-1.2-2.7-2.6-5.3-4.3-8l-6.4-8.1z" fill="#0c233f"/><path d="M252.4 107.6c1.2-25.5-17.3-45.9-35.7-57.2-26.7-16.9-25.1 1.6-22.3 7.4 2.7 7.1 11.8 19.2 25.1 32.2 20 19.2 32.6 26.3 32.9 17.6zM46.9 225.9c-13.7 5.5 20.8 31 25.5 27.1 4.7-4-14.9-31-25.5-27.1z" fill="#fff"/><defs ><path id="B" d="M343 266.8c-.9 1.2-2 1.7-3.5 1.7s-2.6-.5-3.3-1.5c-.8-1-1.1-2.5-1.1-4.4v-10.3h4.1v10.4c0 1.5.5 2.3 1.5 2.3.9 0 1.6-.4 2.1-1.2v-11.5h4.2v15.8h-3.9l-.1-1.3z"/><path id="C" d="M468.6 256.4l-1.4-.1c-1.1 0-1.9.5-2.3 1.5v10.5h-4.2v-15.8h3.9l.1 1.7c.7-1.3 1.6-2 2.7-2 .5 0 .8.1 1.1.2l.1 4z"/><path id="D" d="M526.3 268.5c-2.1 0-3.8-.6-5-1.9s-1.8-3.1-1.8-5.4v-1.3c0-2.5.5-4.4 1.6-5.8s2.7-2 4.7-2 3.5.6 4.5 1.9 1.5 3.2 1.5 5.7v2h-8.2c.1 1.2.3 2.1.8 2.6s1.2.8 2.1.8c1.4 0 2.5-.5 3.5-1.5l1.6 2.5a4.83 4.83 0 0 1-2.2 1.7c-.9.5-2 .7-3.1.7zm-2.6-9.7h4.1v-.4c0-1-.2-1.7-.5-2.2s-.8-.7-1.5-.7-1.2.3-1.6.8-.4 1.3-.5 2.5z"/><path id="E" d="M541.3 264c0-.4-.2-.7-.5-1s-1.1-.7-2.2-1.2c-1.7-.7-2.9-1.4-3.5-2.2s-1-1.7-1-2.8c0-1.4.5-2.5 1.5-3.4s2.3-1.4 4-1.4 3.1.4 4.2 1.3 1.6 2.1 1.6 3.6h-4.1c0-1.3-.5-1.9-1.6-1.9-.4 0-.8.1-1.1.4s-.4.7-.4 1.1.2.7.5.9 1 .7 2.2 1.1c1.7.6 2.9 1.3 3.6 2.1s1 1.8 1 3c0 1.4-.5 2.6-1.6 3.4s-2.5 1.3-4.2 1.3c-1.2 0-2.2-.2-3.1-.7s-1.6-1.1-2.1-1.9-.8-1.7-.8-2.6h3.9c0 .7.2 1.3.5 1.6s.8.5 1.6.5c1 .3 1.6-.2 1.6-1.2z"/><path id="F" d="M655.1 259.8c0-2.4.6-4.3 1.7-5.7s2.7-2.1 4.7-2.1 3.6.7 4.7 2.1 1.7 3.3 1.7 5.7v1c0 2.4-.6 4.3-1.7 5.7s-2.7 2-4.7 2-3.6-.7-4.7-2c-1.1-1.4-1.7-3.3-1.7-5.7v-1zm4.2 1c0 2.8.8 4.3 2.3 4.3 1.4 0 2.1-1.2 2.3-3.6v-1.8c0-1.5-.2-2.5-.6-3.2s-1-1.1-1.7-1.1-1.3.4-1.6 1.1c-.4.7-.6 1.8-.6 3.2v1.1h-.1z"/><path id="G" d="M744.1 248.3c0-.6.2-1.2.6-1.6s1-.6 1.6-.6 1.2.2 1.6.6.6.9.6 1.6c0 .6-.2 1.2-.6 1.6s-1 .6-1.6.6-1.2-.2-1.6-.6c-.4-.5-.6-1-.6-1.6zm4.3 19.9h-4.2v-15.8h4.2v15.8z"/></defs></svg>