<?xml version="1.0" encoding="utf-8"?>
<!-- Generator: Adobe Illustrator 23.0.1, SVG Export Plug-In . SVG Version: 6.00 Build 0)  -->
<svg version="1.1" id="Layer_1" xmlns="http://www.w3.org/2000/svg" xmlns:xlink="http://www.w3.org/1999/xlink" x="0px" y="0px"
	 width="1023.1px" height="289.6px" viewBox="0 0 1023.1 289.6" style="enable-background:new 0 0 1023.1 289.6;"
	 xml:space="preserve">
<style type="text/css">
	.st0{fill:#FFFFFF;}
	.st1{opacity:0.65;fill:#5AABBC;enable-background:new    ;}
	.st2{fill:#AB262F;}
	.st3{fill:#AE9041;}
	.st4{fill:#0C233F;}
</style>
<g>
	<path class="st0" d="M426,111.9c-6.7-6.7-15-10.1-24.6-10.1s-17.9,3.4-24.6,10.1c-1,1-1.9,2-2.8,3.1c-0.8-1.1-1.7-2.1-2.7-3.1
		c-6.7-6.7-15-10.1-24.6-10.1c-7.5,0-14.2,2.1-20,6.4H312V222h15v-87.2c0.5-4.8,2.4-8.8,5.8-12.1c3.9-3.9,8.4-5.8,13.9-5.8
		s10.1,1.9,14,5.8c3.3,3.3,5.2,7.1,5.8,11.6V222h14.9v-84.9c0-5.9,1.9-10.6,5.8-14.5s8.5-5.8,14.1-5.8c5.5,0,10.1,1.9,14,5.8
		c3.3,3.2,5.1,6.9,5.6,11.4v88h15v-86.6C435.8,126.4,432.4,118.5,426,111.9z"/>
	<path class="st0" d="M566.3,119.1c-0.7-0.7-1.3-1.4-2-2.2c-12.3-12.3-27.4-18.5-44.9-18.5c-17.3,0-32.4,6.2-44.7,18.5
		c-12.3,12.3-18.6,27.4-18.6,44.9c0,17.3,6.3,32.4,18.6,44.7c12.3,12.3,27.4,18.6,44.7,18.6c17.5,0,32.6-6.3,44.9-18.7
		c0.7-0.7,1.3-1.4,2-2.1V222h15V108.2h-15V119.1z M519.4,209.5c-13.1,0-24.5-4.7-33.8-13.9s-14-20.6-14-33.7
		c0-13.1,4.7-24.5,14-33.8s20.6-14.1,33.8-14.1c13.1,0,24.5,4.7,33.8,14.1c6.9,6.9,11.3,15,13.1,24.2v19.2
		c-1.8,9.1-6.2,17.1-13.1,24C543.9,204.7,532.5,209.5,519.4,209.5z"/>
	<path class="st0" d="M641.3,107.5c-9.7,4-17.2,9.6-22.2,16.8v-16.1h-15V222h15v-64.9c0-7.5,3.3-15,9.7-22.4
		c6.4-7.4,13-11.7,19.4-12.7l3.6-0.6l-8.4-14.7L641.3,107.5z"/>
	<path class="st0" d="M724.8,98.4c-17.4,0-32.5,6.2-44.8,18.5c-0.7,0.7-1.4,1.4-2,2.1V39.7h-15V222h15v-17.6c0.6,0.7,1.3,1.4,2,2.1
		c12.3,12.4,27.4,18.7,44.8,18.7c17.4,0,32.5-6.3,44.8-18.6s18.5-27.4,18.5-44.7c0-17.5-6.2-32.6-18.5-44.9
		C757.2,104.6,742.2,98.4,724.8,98.4z M724.8,209.5c-13.1,0-24.5-4.7-33.8-14.1c-6.8-6.7-11.2-14.6-12.9-23.4v-20.3
		c1.8-8.9,6.1-16.9,12.9-23.7c9.3-9.3,20.7-14.1,33.8-14.1s24.5,4.7,33.8,14.1c9.3,9.3,14,20.7,14,33.8s-4.7,24.5-14,33.7
		C749.3,204.8,737.9,209.5,724.8,209.5z"/>
	<rect x="808.5" y="39.7" class="st0" width="15" height="182.3"/>
	<path class="st0" d="M967.7,158.7v-2.5c0-15.1-5.5-28.3-16.4-39.2c-12.3-12.3-27.4-18.5-44.9-18.5c-17.3,0-32.4,6.2-44.7,18.5
		s-18.6,27.4-18.6,44.9c0,17.3,6.3,32.4,18.6,44.7s27.4,18.6,44.7,18.6c17.5,0,32.6-6.3,44.9-18.6c4.2-4.1,6.9-7.2,8.3-9.5l1.6-2.6
		l-15.2-5.4l-1.1,1.4c-1.4,1.8-3,3.5-4.6,5.1c-9.3,9.3-20.7,14.1-33.8,14.1s-24.5-4.7-33.8-13.9s-14-20.6-14-33.7
		c0-1.1,0-2.1,0.1-3.1h108.9V158.7z M906.4,113.9c13.1,0,24.5,4.7,33.8,14.1c4.5,4.5,7.9,9.7,10.2,15.5H862
		c2.4-5.6,5.9-10.8,10.6-15.5C881.9,118.7,893.3,113.9,906.4,113.9z"/>
</g>
<g>
	<path class="st0" d="M318.3,246.9l4,15.4l4-15.4h5.6v21.3h-4.3v-5.8l0.4-8.9l-4.3,14.7h-2.9l-4.3-14.7l0.4,8.9v5.8h-4.3v-21.3
		L318.3,246.9L318.3,246.9z"/>
	<path class="st0" d="M343,266.8c-0.9,1.2-2,1.7-3.5,1.7s-2.6-0.5-3.3-1.5c-0.8-1-1.1-2.5-1.1-4.4v-10.3h4.1v10.4
		c0,1.5,0.5,2.3,1.5,2.3c0.9,0,1.6-0.4,2.1-1.2v-11.5h4.2v15.8h-3.9L343,266.8z"/>
	<path class="st0" d="M357,264c0-0.4-0.2-0.7-0.5-1s-1.1-0.7-2.2-1.2c-1.7-0.7-2.9-1.4-3.5-2.2s-1-1.7-1-2.8c0-1.4,0.5-2.5,1.5-3.4
		s2.3-1.4,4-1.4s3.1,0.4,4.2,1.3s1.6,2.1,1.6,3.6H357c0-1.3-0.5-1.9-1.6-1.9c-0.4,0-0.8,0.1-1.1,0.4s-0.4,0.7-0.4,1.1
		s0.2,0.7,0.5,0.9s1,0.7,2.2,1.1c1.7,0.6,2.9,1.3,3.6,2.1c0.7,0.8,1,1.8,1,3c0,1.4-0.5,2.6-1.6,3.4s-2.5,1.3-4.2,1.3
		c-1.2,0-2.2-0.2-3.1-0.7s-1.6-1.1-2.1-1.9s-0.8-1.7-0.8-2.6h3.9c0,0.7,0.2,1.3,0.5,1.6s0.8,0.5,1.6,0.5
		C356.5,265.5,357,265,357,264z"/>
	<path class="st0" d="M370,268.5c-2.1,0-3.8-0.6-5-1.9s-1.8-3.1-1.8-5.4v-1.3c0-2.5,0.5-4.4,1.6-5.8s2.7-2,4.7-2s3.5,0.6,4.5,1.9
		s1.5,3.2,1.5,5.7v2h-8.2c0.1,1.2,0.3,2.1,0.8,2.6s1.2,0.8,2.1,0.8c1.4,0,2.5-0.5,3.5-1.5l1.6,2.5c-0.5,0.7-1.2,1.3-2.2,1.7
		C372.2,268.3,371.2,268.5,370,268.5z M367.4,258.8h4.1v-0.4c0-1-0.2-1.7-0.5-2.2c-0.3-0.5-0.8-0.7-1.5-0.7s-1.2,0.3-1.6,0.8
		C367.5,256.8,367.5,257.6,367.4,258.8z"/>
	<path class="st0" d="M385.8,266.8c-0.9,1.2-2,1.7-3.5,1.7s-2.6-0.5-3.3-1.5c-0.8-1-1.1-2.5-1.1-4.4v-10.3h4.1v10.4
		c0,1.5,0.5,2.3,1.5,2.3c0.9,0,1.6-0.4,2.1-1.2v-11.5h4.2v15.8h-3.9L385.8,266.8z"/>
	<path class="st0" d="M396.7,252.4l0.1,1.5c0.9-1.2,2.2-1.8,3.7-1.8c1.6,0,2.7,0.7,3.4,2.1c0.9-1.4,2.2-2.1,3.9-2.1
		c2.8,0,4.2,1.9,4.3,5.8v10.4H408v-10.1c0-0.9-0.1-1.6-0.4-2c-0.3-0.4-0.7-0.6-1.3-0.6c-0.8,0-1.3,0.5-1.7,1.4v0.5v10.8h-4.1v-10.1
		c0-0.9-0.1-1.6-0.4-2c-0.3-0.4-0.7-0.6-1.3-0.6c-0.7,0-1.3,0.4-1.7,1.2v11.5H393v-15.8L396.7,252.4L396.7,252.4z"/>
	<path class="st0" d="M422,264c0-0.4-0.2-0.7-0.5-1s-1.1-0.7-2.2-1.2c-1.7-0.7-2.9-1.4-3.5-2.2s-1-1.7-1-2.8c0-1.4,0.5-2.5,1.5-3.4
		s2.3-1.4,4-1.4s3.1,0.4,4.2,1.3s1.6,2.1,1.6,3.6H422c0-1.3-0.5-1.9-1.6-1.9c-0.4,0-0.8,0.1-1.1,0.4s-0.4,0.7-0.4,1.1
		s0.2,0.7,0.5,0.9s1,0.7,2.2,1.1c1.7,0.6,2.9,1.3,3.6,2.1c0.7,0.8,1,1.8,1,3c0,1.4-0.5,2.6-1.6,3.4s-2.5,1.3-4.2,1.3
		c-1.2,0-2.2-0.2-3.1-0.7s-1.6-1.1-2.1-1.9s-0.8-1.7-0.8-2.6h3.9c0,0.7,0.2,1.3,0.5,1.6s0.8,0.5,1.6,0.5
		C421.5,265.5,422,265,422,264z"/>
	<path class="st0" d="M429.9,273.6l-2.2-1.2l0.6-1c0.6-1.2,0.9-2.3,1-3.5v-3.3h3.6v2.9c0,1-0.3,2.1-0.8,3.2S430.7,272.8,429.9,273.6
		z"/>
	<path class="st0" d="M453.3,263.8h-5.9l-1.1,4.4h-4.6l6.7-21.3h3.9l6.7,21.3h-4.6L453.3,263.8z M448.4,260.3h4l-2-7.6L448.4,260.3z
		"/>
	<path class="st0" d="M468.6,256.4l-1.4-0.1c-1.1,0-1.9,0.5-2.3,1.5v10.5h-4.2v-15.8h3.9l0.1,1.7c0.7-1.3,1.6-2,2.7-2
		c0.5,0,0.8,0.1,1.1,0.2L468.6,256.4z"/>
	<path class="st0" d="M476.2,265.1c1.2,0,1.8-0.8,1.8-2.4h3.9c0,1.7-0.6,3.1-1.6,4.2s-2.4,1.6-4,1.6c-2,0-3.6-0.6-4.7-1.9
		s-1.6-3.1-1.6-5.6v-1.3c0-2.5,0.5-4.4,1.6-5.7s2.6-2,4.7-2c1.7,0,3.1,0.5,4.1,1.6s1.5,2.6,1.5,4.6H478c0-0.9-0.2-1.6-0.4-2.1
		c-0.2-0.5-0.8-0.7-1.4-0.7c-0.7,0-1.2,0.3-1.6,0.8c-0.3,0.5-0.5,1.5-0.5,3v1.6c0,1.3,0.1,2.2,0.2,2.7s0.3,0.9,0.6,1.1
		C475.3,265,475.7,265.1,476.2,265.1z"/>
	<path class="st0" d="M488.3,253.8c0.9-1.1,2-1.7,3.3-1.7c1.4,0,2.5,0.5,3.3,1.5s1.1,2.5,1.1,4.5v10.1h-4.2v-10c0-0.9-0.1-1.6-0.4-2
		c-0.3-0.4-0.8-0.6-1.4-0.6c-0.8,0-1.3,0.3-1.8,1v11.6h-4.1v-22.5h4.1v8.1H488.3z"/>
	<path class="st0" d="M499.1,248.3c0-0.6,0.2-1.2,0.6-1.6s1-0.6,1.6-0.6s1.2,0.2,1.6,0.6s0.6,0.9,0.6,1.6c0,0.6-0.2,1.2-0.6,1.6
		s-1,0.6-1.6,0.6s-1.2-0.2-1.6-0.6S499.1,248.9,499.1,248.3z M503.4,268.2h-4.2v-15.8h4.2V268.2z"/>
	<path class="st0" d="M511.8,262.4l2-10h4.3l-4.4,15.8h-4l-4.4-15.8h4.3L511.8,262.4z"/>
	<path class="st0" d="M526.3,268.5c-2.1,0-3.8-0.6-5-1.9s-1.8-3.1-1.8-5.4v-1.3c0-2.5,0.5-4.4,1.6-5.8s2.7-2,4.7-2s3.5,0.6,4.5,1.9
		s1.5,3.2,1.5,5.7v2h-8.2c0.1,1.2,0.3,2.1,0.8,2.6s1.2,0.8,2.1,0.8c1.4,0,2.5-0.5,3.5-1.5l1.6,2.5c-0.5,0.7-1.2,1.3-2.2,1.7
		C528.5,268.3,527.4,268.5,526.3,268.5z M523.7,258.8h4.1v-0.4c0-1-0.2-1.7-0.5-2.2c-0.3-0.5-0.8-0.7-1.5-0.7s-1.2,0.3-1.6,0.8
		C523.8,256.8,523.8,257.6,523.7,258.8z"/>
	<path class="st0" d="M541.3,264c0-0.4-0.2-0.7-0.5-1s-1.1-0.7-2.2-1.2c-1.7-0.7-2.9-1.4-3.5-2.2s-1-1.7-1-2.8
		c0-1.4,0.5-2.5,1.5-3.4s2.3-1.4,4-1.4s3.1,0.4,4.2,1.3s1.6,2.1,1.6,3.6h-4.1c0-1.3-0.5-1.9-1.6-1.9c-0.4,0-0.8,0.1-1.1,0.4
		s-0.4,0.7-0.4,1.1s0.2,0.7,0.5,0.9s1,0.7,2.2,1.1c1.7,0.6,2.9,1.3,3.6,2.1c0.7,0.8,1,1.8,1,3c0,1.4-0.5,2.6-1.6,3.4
		s-2.5,1.3-4.2,1.3c-1.2,0-2.2-0.2-3.1-0.7c-0.9-0.5-1.6-1.1-2.1-1.9s-0.8-1.7-0.8-2.6h3.9c0,0.7,0.2,1.3,0.5,1.6s0.8,0.5,1.6,0.5
		C540.7,265.5,541.3,265,541.3,264z"/>
	<path class="st0" d="M549.1,273.6l-2.2-1.2l0.6-1c0.6-1.2,0.9-2.3,1-3.5v-3.3h3.6v2.9c0,1-0.3,2.1-0.8,3.2S550,272.8,549.1,273.6z"
		/>
	<path class="st0" d="M568.8,260.4h-2.1v7.8h-4.3v-21.3h6.9c2.2,0,3.8,0.6,5,1.7s1.8,2.7,1.8,4.8c0,2.8-1,4.8-3.1,5.9l3.7,8.7v0.2
		H572L568.8,260.4z M566.7,256.8h2.4c0.9,0,1.5-0.3,1.9-0.9c0.4-0.6,0.6-1.3,0.6-2.3c0-2.1-0.8-3.2-2.5-3.2h-2.5L566.7,256.8
		L566.7,256.8z"/>
	<path class="st0" d="M586.3,268.2c-0.1-0.2-0.2-0.7-0.4-1.2c-0.7,1-1.7,1.5-3,1.5s-2.4-0.4-3.3-1.3s-1.3-2-1.3-3.4
		c0-1.7,0.5-2.9,1.6-3.9s2.6-1.4,4.6-1.4h1.3v-1.3c0-0.7-0.1-1.2-0.4-1.5c-0.3-0.3-0.6-0.4-1.1-0.4c-1,0-1.6,0.6-1.6,1.8h-4.1
		c0-1.5,0.5-2.7,1.6-3.6c1.1-1,2.5-1.4,4.2-1.4s3.1,0.5,4,1.4s1.4,2.2,1.4,3.9v7.5c0,1.4,0.2,2.4,0.6,3.2v0.2h-4.1V268.2z
		 M583.9,265.3c0.5,0,0.8-0.1,1.2-0.3s0.6-0.4,0.7-0.7V261h-1c-0.7,0-1.3,0.2-1.7,0.7s-0.6,1-0.6,1.8
		C582.5,264.7,582.9,265.3,583.9,265.3z"/>
	<path class="st0" d="M600.7,256.4l-1.4-0.1c-1.1,0-1.9,0.5-2.3,1.5v10.5h-4.2v-15.8h3.9l0.1,1.7c0.7-1.3,1.6-2,2.7-2
		c0.5,0,0.8,0.1,1.1,0.2L600.7,256.4z"/>
	<path class="st0" d="M609,268.5c-2.1,0-3.8-0.6-5-1.9s-1.8-3.1-1.8-5.4v-1.3c0-2.5,0.5-4.4,1.6-5.8s2.7-2,4.7-2s3.5,0.6,4.5,1.9
		s1.5,3.2,1.5,5.7v2h-8.2c0.1,1.2,0.3,2.1,0.8,2.6s1.2,0.8,2.1,0.8c1.4,0,2.5-0.5,3.5-1.5l1.6,2.5c-0.5,0.7-1.2,1.3-2.2,1.7
		C611.1,268.3,610.1,268.5,609,268.5z M606.4,258.8h4.1v-0.4c0-1-0.2-1.7-0.5-2.2c-0.3-0.5-0.8-0.7-1.5-0.7s-1.2,0.3-1.6,0.8
		C606.5,256.8,606.4,257.6,606.4,258.8z"/>
	<path class="st0" d="M624,268.2v-21.3h6.6c2.2,0,3.9,0.5,5.1,1.5c1.2,1,1.7,2.4,1.7,4.4c0,1.1-0.2,2-0.7,2.8
		c-0.5,0.8-1.1,1.4-2,1.7c1,0.3,1.7,0.8,2.2,1.6c0.5,0.8,0.8,1.8,0.8,3.1c0,2.1-0.6,3.6-1.7,4.7s-2.8,1.6-4.9,1.6H624V268.2z
		 M628.3,255.8h2.2c1.7,0,2.5-0.9,2.5-2.6c0-1-0.2-1.7-0.6-2.1s-1-0.6-1.9-0.6h-2.3L628.3,255.8L628.3,255.8z M628.3,258.9v5.7h2.8
		c0.8,0,1.4-0.2,1.8-0.7s0.6-1.2,0.6-2c0-1.9-0.7-2.9-2.1-2.9h-3.1V258.9z"/>
	<path class="st0" d="M640.2,259.8c0-2.4,0.6-4.3,1.7-5.7s2.7-2.1,4.7-2.1s3.6,0.7,4.7,2.1s1.7,3.3,1.7,5.7v1c0,2.4-0.6,4.3-1.7,5.7
		s-2.7,2-4.7,2s-3.6-0.7-4.7-2c-1.1-1.4-1.7-3.3-1.7-5.7V259.8z M644.3,260.8c0,2.8,0.8,4.3,2.3,4.3c1.4,0,2.1-1.2,2.3-3.6v-1.8
		c0-1.5-0.2-2.5-0.6-3.2c-0.4-0.7-1-1.1-1.7-1.1s-1.3,0.4-1.6,1.1c-0.4,0.7-0.6,1.8-0.6,3.2v1.1H644.3z"/>
	<path class="st0" d="M655.1,259.8c0-2.4,0.6-4.3,1.7-5.7s2.7-2.1,4.7-2.1s3.6,0.7,4.7,2.1s1.7,3.3,1.7,5.7v1c0,2.4-0.6,4.3-1.7,5.7
		s-2.7,2-4.7,2s-3.6-0.7-4.7-2c-1.1-1.4-1.7-3.3-1.7-5.7V259.8z M659.3,260.8c0,2.8,0.8,4.3,2.3,4.3c1.4,0,2.1-1.2,2.3-3.6v-1.8
		c0-1.5-0.2-2.5-0.6-3.2c-0.4-0.7-1-1.1-1.7-1.1s-1.3,0.4-1.6,1.1c-0.4,0.7-0.6,1.8-0.6,3.2v1.1H659.3z"/>
	<path class="st0" d="M675.8,262.1l-1.1,1.2v4.9h-4.1v-22.5h4.1v12.2l0.5-0.8l2.9-4.7h4.9l-4.6,6.5l5,9.3h-4.7L675.8,262.1z"/>
	<path class="st0" d="M691.9,264c0-0.4-0.2-0.7-0.5-1s-1.1-0.7-2.2-1.2c-1.7-0.7-2.9-1.4-3.5-2.2s-1-1.7-1-2.8
		c0-1.4,0.5-2.5,1.5-3.4s2.3-1.4,4-1.4s3.1,0.4,4.2,1.3s1.6,2.1,1.6,3.6h-4.1c0-1.3-0.5-1.9-1.6-1.9c-0.4,0-0.8,0.1-1.1,0.4
		s-0.4,0.7-0.4,1.1s0.2,0.7,0.5,0.9s1,0.7,2.2,1.1c1.7,0.6,2.9,1.3,3.6,2.1c0.7,0.8,1,1.8,1,3c0,1.4-0.5,2.6-1.6,3.4
		s-2.5,1.3-4.2,1.3c-1.2,0-2.2-0.2-3.1-0.7c-0.9-0.5-1.6-1.1-2.1-1.9s-0.8-1.7-0.8-2.6h3.9c0,0.7,0.2,1.3,0.5,1.6s0.8,0.5,1.6,0.5
		C691.3,265.5,691.9,265,691.9,264z"/>
	<path class="st0" d="M705,262.5c0-1,0.2-1.9,0.7-2.7c0.5-0.8,1.3-1.7,2.6-2.8c-0.5-0.8-1-1.7-1.3-2.4s-0.5-1.5-0.5-2.4
		c0-1.7,0.5-3,1.4-4.1c0.9-1,2.2-1.6,3.7-1.6c1.4,0,2.5,0.5,3.5,1.4c0.9,1,1.4,2.1,1.4,3.5c0,1.9-0.8,3.4-2.3,4.6l-1.2,1l2.7,3.8
		c0.3-1,0.5-2.1,0.5-3.3h3.5c0,2.7-0.5,5-1.6,6.6l2.8,3.9h-4.7l-0.8-1.1c-1.3,0.9-2.7,1.4-4.4,1.4c-1.8,0-3.2-0.6-4.3-1.7
		S705,264.3,705,262.5z M711.1,265.1c0.8,0,1.5-0.3,2.2-0.8l-3.4-4.8l-0.1,0.1c-0.5,0.8-0.7,1.6-0.7,2.6c0,0.8,0.2,1.5,0.6,2
		C710.1,264.8,710.6,265.1,711.1,265.1z M710.1,252.1c0,0.7,0.3,1.6,1,2.6l0.7-0.5c0.4-0.3,0.7-0.6,0.9-1s0.3-0.8,0.3-1.4
		c0-0.5-0.1-0.9-0.4-1.3c-0.3-0.3-0.6-0.5-1-0.5s-0.8,0.2-1,0.6C710.3,251,710.1,251.5,710.1,252.1z"/>
	<path class="st0" d="M734.2,264.6h7.6v3.6h-11.9v-21.3h4.3L734.2,264.6L734.2,264.6z"/>
	<path class="st0" d="M744.1,248.3c0-0.6,0.2-1.2,0.6-1.6s1-0.6,1.6-0.6s1.2,0.2,1.6,0.6s0.6,0.9,0.6,1.6c0,0.6-0.2,1.2-0.6,1.6
		s-1,0.6-1.6,0.6s-1.2-0.2-1.6-0.6C744.3,249.4,744.1,248.9,744.1,248.3z M748.4,268.2h-4.2v-15.8h4.2V268.2z"/>
	<path class="st0" d="M764,260.8c0,2.6-0.4,4.5-1.2,5.8s-2.1,1.9-3.9,1.9c-1.4,0-2.5-0.6-3.3-1.9l-0.1,1.6h-3.8v-22.5h4.1v7.9
		c0.8-1.1,1.8-1.6,3.1-1.6c1.8,0,3,0.6,3.9,1.9c0.8,1.3,1.2,3.1,1.3,5.6L764,260.8L764,260.8z M759.8,259.8c0-1.7-0.2-2.8-0.5-3.4
		c-0.3-0.6-0.9-0.9-1.7-0.9c-0.9,0-1.5,0.4-1.9,1.2v7.2c0.4,0.7,1,1.1,1.9,1.1c0.8,0,1.3-0.3,1.6-0.8s0.5-1.5,0.5-3v-1.4H759.8z"/>
	<path class="st0" d="M774.3,256.4l-1.4-0.1c-1.1,0-1.9,0.5-2.3,1.5v10.5h-4.2v-15.8h3.9l0.1,1.7c0.7-1.3,1.6-2,2.7-2
		c0.5,0,0.8,0.1,1.1,0.2L774.3,256.4z"/>
	<path class="st0" d="M783.5,268.2c-0.1-0.2-0.2-0.7-0.4-1.2c-0.7,1-1.7,1.5-3,1.5s-2.4-0.4-3.3-1.3s-1.3-2-1.3-3.4
		c0-1.7,0.5-2.9,1.6-3.9c1.1-0.9,2.6-1.4,4.6-1.4h1.3v-1.3c0-0.7-0.1-1.2-0.4-1.5c-0.3-0.3-0.6-0.4-1.1-0.4c-1,0-1.6,0.6-1.6,1.8
		h-4.1c0-1.5,0.5-2.7,1.6-3.6c1.1-1,2.5-1.4,4.2-1.4s3.1,0.5,4,1.4c1,0.9,1.4,2.2,1.4,3.9v7.5c0,1.4,0.2,2.4,0.6,3.2v0.2h-4.1V268.2
		z M781.1,265.3c0.5,0,0.8-0.1,1.2-0.3s0.6-0.4,0.7-0.7V261h-1c-0.7,0-1.3,0.2-1.7,0.7s-0.6,1-0.6,1.8
		C779.7,264.7,780.1,265.3,781.1,265.3z"/>
	<path class="st0" d="M797.9,256.4l-1.4-0.1c-1.1,0-1.9,0.5-2.3,1.5v10.5H790v-15.8h3.9l0.1,1.7c0.7-1.3,1.6-2,2.7-2
		c0.5,0,0.8,0.1,1.1,0.2L797.9,256.4z"/>
	<path class="st0" d="M800,248.3c0-0.6,0.2-1.2,0.6-1.6s1-0.6,1.6-0.6s1.2,0.2,1.6,0.6s0.6,0.9,0.6,1.6c0,0.6-0.2,1.2-0.6,1.6
		s-1,0.6-1.6,0.6s-1.2-0.2-1.6-0.6C800.2,249.4,800,248.9,800,248.3z M804.4,268.2h-4.2v-15.8h4.2V268.2z"/>
	<path class="st0" d="M814,268.5c-2.1,0-3.8-0.6-5-1.9s-1.8-3.1-1.8-5.4v-1.3c0-2.5,0.5-4.4,1.6-5.8s2.7-2,4.7-2s3.5,0.6,4.5,1.9
		s1.5,3.2,1.5,5.7v2h-8.2c0.1,1.2,0.3,2.1,0.8,2.6s1.2,0.8,2.1,0.8c1.4,0,2.5-0.5,3.5-1.5l1.6,2.5c-0.5,0.7-1.2,1.3-2.2,1.7
		C816.2,268.3,815.1,268.5,814,268.5z M811.4,258.8h4.1v-0.4c0-1-0.2-1.7-0.5-2.2c-0.3-0.5-0.8-0.7-1.5-0.7s-1.2,0.3-1.6,0.8
		C811.5,256.8,811.5,257.6,811.4,258.8z"/>
	<path class="st0" d="M829,264c0-0.4-0.2-0.7-0.5-1s-1.1-0.7-2.2-1.2c-1.7-0.7-2.9-1.4-3.5-2.2s-1-1.7-1-2.8c0-1.4,0.5-2.5,1.5-3.4
		s2.3-1.4,4-1.4s3.1,0.4,4.2,1.3s1.6,2.1,1.6,3.6H829c0-1.3-0.5-1.9-1.6-1.9c-0.4,0-0.8,0.1-1.1,0.4s-0.4,0.7-0.4,1.1
		s0.2,0.7,0.5,0.9s1,0.7,2.2,1.1c1.7,0.6,2.9,1.3,3.6,2.1c0.7,0.8,1,1.8,1,3c0,1.4-0.5,2.6-1.6,3.4s-2.5,1.3-4.2,1.3
		c-1.2,0-2.2-0.2-3.1-0.7c-0.9-0.5-1.6-1.1-2.1-1.9s-0.8-1.7-0.8-2.6h3.9c0,0.7,0.2,1.3,0.5,1.6s0.8,0.5,1.6,0.5
		C828.4,265.5,829,265,829,264z"/>
	<path class="st0" d="M853.7,259H847v5.7h7.9v3.6h-12.2V247h12.2v3.6H847v5h6.7V259z"/>
	<path class="st0" d="M862.5,257.1l1.8-4.7h4.4l-3.6,7.7l3.8,8.1h-4.4l-1.9-5l-1.9,5h-4.4l3.8-8.1l-3.6-7.7h4.4L862.5,257.1z"/>
	<path class="st0" d="M883.1,260.8c0,2.5-0.4,4.4-1.3,5.7c-0.9,1.3-2.1,2-3.8,2c-1.3,0-2.3-0.5-3.1-1.6v7.4h-4.1v-21.9h3.8l0.1,1.5
		c0.8-1.2,1.9-1.7,3.2-1.7c1.7,0,3,0.6,3.8,1.8c0.9,1.2,1.3,3.1,1.3,5.7L883.1,260.8L883.1,260.8z M879,259.8c0-1.5-0.2-2.6-0.5-3.3
		c-0.3-0.6-0.9-1-1.7-1s-1.5,0.4-1.9,1.1v7.5c0.4,0.7,1,1,1.9,1c0.8,0,1.4-0.3,1.7-1s0.5-1.8,0.5-3.2V259.8z"/>
	<path class="st0" d="M890,268.2h-4.2v-22.5h4.2V268.2z"/>
	<path class="st0" d="M892.7,259.8c0-2.4,0.6-4.3,1.7-5.7s2.7-2.1,4.7-2.1s3.6,0.7,4.7,2.1s1.7,3.3,1.7,5.7v1c0,2.4-0.6,4.3-1.7,5.7
		s-2.7,2-4.7,2s-3.6-0.7-4.7-2c-1.1-1.4-1.7-3.3-1.7-5.7V259.8z M896.9,260.8c0,2.8,0.8,4.3,2.3,4.3c1.4,0,2.1-1.2,2.3-3.6v-1.8
		c0-1.5-0.2-2.5-0.6-3.2c-0.4-0.7-1-1.1-1.7-1.1s-1.3,0.4-1.6,1.1c-0.4,0.7-0.6,1.8-0.6,3.2v1.1H896.9z"/>
	<path class="st0" d="M916,256.4l-1.4-0.1c-1.1,0-1.9,0.5-2.3,1.5v10.5h-4.2v-15.8h3.9l0.1,1.7c0.7-1.3,1.6-2,2.7-2
		c0.5,0,0.8,0.1,1.1,0.2L916,256.4z"/>
	<path class="st0" d="M925.2,268.2c-0.1-0.2-0.2-0.7-0.4-1.2c-0.7,1-1.7,1.5-3,1.5s-2.4-0.4-3.3-1.3s-1.3-2-1.3-3.4
		c0-1.7,0.5-2.9,1.6-3.9c1.1-0.9,2.6-1.4,4.6-1.4h1.3v-1.3c0-0.7-0.1-1.2-0.4-1.5c-0.3-0.3-0.6-0.4-1.1-0.4c-1,0-1.6,0.6-1.6,1.8
		h-4.1c0-1.5,0.5-2.7,1.6-3.6c1.1-1,2.5-1.4,4.2-1.4s3.1,0.5,4,1.4c1,0.9,1.4,2.2,1.4,3.9v7.5c0,1.4,0.2,2.4,0.6,3.2v0.2h-4.1V268.2
		z M922.7,265.3c0.5,0,0.8-0.1,1.2-0.3s0.6-0.4,0.7-0.7V261h-1c-0.7,0-1.3,0.2-1.7,0.7s-0.6,1-0.6,1.8
		C921.3,264.7,921.8,265.3,922.7,265.3z"/>
	<path class="st0" d="M936.6,248.5v3.9h2.1v3.1h-2.1v7.9c0,0.6,0.1,1.1,0.3,1.3c0.2,0.2,0.5,0.4,1,0.4c0.4,0,0.7,0,1-0.1v3.2
		c-0.7,0.3-1.5,0.4-2.3,0.4c-2.7,0-4-1.5-4.1-4.6v-8.4h-1.8v-3.1h1.8v-3.9L936.6,248.5L936.6,248.5z"/>
	<path class="st0" d="M941,248.3c0-0.6,0.2-1.2,0.6-1.6s1-0.6,1.6-0.6s1.2,0.2,1.6,0.6s0.6,0.9,0.6,1.6c0,0.6-0.2,1.2-0.6,1.6
		s-1,0.6-1.6,0.6s-1.2-0.2-1.6-0.6C941.2,249.4,941,248.9,941,248.3z M945.3,268.2h-4.2v-15.8h4.2V268.2z"/>
	<path class="st0" d="M948,259.8c0-2.4,0.6-4.3,1.7-5.7s2.7-2.1,4.7-2.1s3.6,0.7,4.7,2.1s1.7,3.3,1.7,5.7v1c0,2.4-0.6,4.3-1.7,5.7
		s-2.7,2-4.7,2s-3.6-0.7-4.7-2c-1.1-1.4-1.7-3.3-1.7-5.7V259.8z M952.2,260.8c0,2.8,0.8,4.3,2.3,4.3c1.4,0,2.1-1.2,2.3-3.6v-1.8
		c0-1.5-0.2-2.5-0.6-3.2c-0.4-0.7-1-1.1-1.7-1.1s-1.3,0.4-1.6,1.1c-0.4,0.7-0.6,1.8-0.6,3.2v1.1H952.2z"/>
	<path class="st0" d="M967.3,252.4l0.1,1.6c0.9-1.2,2.2-1.9,3.7-1.9c2.7,0,4.1,1.9,4.2,5.7v10.4h-4.2v-10.1c0-0.9-0.1-1.5-0.4-2
		c-0.3-0.4-0.7-0.6-1.4-0.6c-0.8,0-1.3,0.4-1.8,1.2v11.5h-4.2v-15.8L967.3,252.4L967.3,252.4z"/>
</g>
<g>
	<circle class="st1" cx="140.8" cy="148.8" r="140.8"/>
	<g>
		<path class="st2" d="M39.8,52.5c6.6-1.8,13.1-2.9,19.7-3.8c6.6-0.9,13.2-1.3,20-1.3s13.7,0.5,20.9,2c7.2,1.4,14.6,3.7,21.7,7.3
			s14,8.3,19.9,13.7c6,5.4,11,11.4,15.4,17.6c2.2,3.1,4.2,6.2,6,9.3c1,1.6,1.8,3.1,2.7,4.7s1.7,3.1,2.5,4.7c1.6,3.2,3,6.3,4.4,9.5
			c0.7,1.6,1.3,3.2,2,4.7c0.7,1.6,1.3,3.2,1.9,4.7l1.7,4.7c0.5,1.4,1,2.7,1.5,4.1l2.9,8.1l2.9,7.9c0.5,1.3,1,2.6,1.4,3.9
			c0.5,1.3,0.9,2.6,1.4,3.8c3.9,10.1,7.8,19.5,12.6,28.4c2.4,4.5,5.1,8.9,8.1,13.4c3.1,4.5,6.5,8.9,10.2,13.5
			c3.8,4.6,7.8,9.2,12.1,13.9c4.3,4.8,8.7,9.6,13.1,15.1c-7,0.6-13.8,0.2-20.5-0.6c-6.8-0.9-13.5-2.4-20.1-4.5
			c-6.6-2.2-13.2-5.1-19.6-8.7c-6.3-3.7-12.4-8.1-17.9-13.1s-10.6-10.6-15-16.4c-4.4-5.9-8.2-11.9-11.6-18.1
			c-1.7-3.1-3.3-6.2-4.7-9.3c-1.5-3.1-2.8-6.2-4.1-9.3s-2.4-6.2-3.6-9.3l-3-8.7c-3.6-10.7-7.4-20.8-11.5-29.8
			c-2.1-4.5-4.2-8.5-6.6-12.3s-5-7.3-8.1-10.6c-3.1-3.3-6.9-6.6-11.2-9.8c-4.3-3.2-9.2-6.3-14.5-9.3c-5.2-3.1-10.7-6.2-16.3-9.5
			C51,59.9,45.3,56.5,39.8,52.5z"/>
	</g>
	<g>
		<path class="st3" d="M39.8,52.5c6.9-1,13.8-0.8,20.8,0.4c7,1.3,13.9,3.7,20.5,7c6.6,3.4,12.7,7.6,18.2,12.3
			c5.6,4.7,10.5,9.9,15.1,15.2c9.1,10.7,16.3,22.1,22.7,33.5c3.2,5.7,6.1,11.5,8.8,17.3c1.4,2.9,2.7,5.8,4,8.7l3.6,8.3
			c4.3,10,8.8,19.4,13.8,27.8c5,8.4,10.4,15.7,17,22.1c3.4,3.2,7.1,6.2,11.5,9.1c4.3,2.9,9.3,5.5,14.7,8.2s11.3,5.3,17.3,8.4
			c3,1.5,6,3.3,8.9,5.1c2.9,1.9,5.7,4,8.2,6.5c-6.9,0.9-13,2.4-19.3,3.7s-12.8,2.6-19.6,3.2c-6.8,0.6-14.1,0.6-21.6-0.4
			s-15.1-3-22.5-6.2c-7.3-3.1-14.3-7.4-20.5-12.2c-6.3-4.9-11.8-10.4-16.7-16.2c-9.7-11.7-16.9-24.4-22.3-37.2l-1.9-4.7
			c-0.6-1.4-1.2-2.8-1.7-4.2l-3.3-8.5c-2.1-5.7-4.2-11.2-6.2-16.8c-4.1-11.2-7.9-22.1-11.9-32.6c-2-5.2-4.1-10.3-6.3-15.3
			c-2.3-5-4.7-9.8-7.6-14.5s-6.2-9.4-10.2-14C49.3,61.9,44.7,57.4,39.8,52.5z"/>
	</g>
	<g>
		<path class="st4" d="M39.8,52.5c7.1-0.2,14.4,1.8,21,5.5c3.3,1.8,6.4,4.1,9.3,6.5s5.5,5.1,7.9,7.8c4.9,5.4,9,11.1,12.7,16.9
			c3.7,5.7,7.1,11.5,10.2,17.3c6.2,11.6,11.4,23.3,16.2,35.2l1.8,4.4l1.7,4.3c1,2.6,2.1,5.3,3.2,7.8c0.6,1.3,1.1,2.6,1.7,3.8
			s1.1,2.5,1.7,3.7s1.2,2.5,1.8,3.7l0.9,1.8l1,1.8c5.1,9.4,11,17.8,18.1,25s15.4,13.2,25.3,18c9.9,4.9,21.3,8.5,33.6,12
			c6.1,1.7,12.5,3.5,18.9,5.6c1.6,0.5,3.2,1.1,4.8,1.7c1.6,0.6,3.2,1.2,4.7,2c3.1,1.4,6.2,3.1,8.9,5.1c-3.4,0-6.6,0.3-9.8,0.8
			l-4.8,0.7l-4.8,0.8c-6.3,1.1-12.8,2.3-19.4,3.1c-13.2,1.7-27.3,2.2-41.8-0.5c-14.5-2.6-29.2-8.7-41.8-17.9s-22.9-21-30.6-33.6
			c-1-1.6-2-3.1-2.8-4.8c-0.9-1.6-1.8-3.2-2.6-4.8c-1.7-3.2-3.3-6.5-4.7-9.8c-1.5-3.3-2.8-6.6-4-9.9l-0.5-1.2l-0.4-1.1l-0.8-2.3
			l-1.6-4.5c-4.1-12.1-7.6-24.4-10.6-36.6c-3.1-12.2-5.5-24.3-8.3-35.7c-1.5-5.7-3-11.2-5.4-16.5c-1.2-2.7-2.6-5.3-4.3-8
			C44.1,57.9,42,55.3,39.8,52.5z"/>
	</g>
	<path class="st0" d="M252.4,107.6c1.2-25.5-17.3-45.9-35.7-57.2c-26.7-16.9-25.1,1.6-22.3,7.4c2.7,7.1,11.8,19.2,25.1,32.2
		C239.5,109.2,252.1,116.3,252.4,107.6z"/>
	<path class="st0" d="M46.9,225.9c-13.7,5.5,20.8,31,25.5,27.1C77.1,249,57.5,222,46.9,225.9z"/>
</g>
</svg>
