<?xml version="1.0" encoding="utf-8"?>
<!-- Generator: Adobe Illustrator 24.0.3, SVG Export Plug-In . SVG Version: 6.00 Build 0)  -->
<svg version="1.1" id="Layer_1" xmlns="http://www.w3.org/2000/svg" xmlns:xlink="http://www.w3.org/1999/xlink" x="0px" y="0px"
	 viewBox="0 0 433.4 40.6" style="enable-background:new 0 0 433.4 40.6;" xml:space="preserve">
<style type="text/css">
	.st0{fill:#FFFFFF;}
</style>
<g>
	<path class="st0" d="M8.7,31.7c-3.4,0-6.3-0.8-8.7-2l0.8-5.1c2.3,1.4,5.2,2.6,8,2.6c2.4,0,4.1-1.2,4.1-3.5c0-2.2-1-3-5-4.9
		c-5.4-2.3-7.5-4.2-7.5-8.7c0-5.2,3.8-8.2,8.9-8.2c3.1,0,5.3,0.7,7.3,1.8l-0.8,5.1c-2-1.4-4.4-2.3-6.5-2.3c-2.7,0-3.8,1.3-3.8,3.1
		c0,1.9,0.9,2.8,4.7,4.4c5.7,2.5,7.8,4.5,7.8,9.1C18,28.7,14,31.7,8.7,31.7"/>
</g>
<polygon class="st0" points="42.1,31.4 29.1,11.3 29.1,31.4 24.1,31.4 24.1,2.2 29.2,2.2 41.6,21.3 41.6,2.2 46.5,2.2 46.5,31.4 "/>
<rect x="54.2" y="2.2" class="st0" width="5.3" height="29.2"/>
<polygon class="st0" points="78.9,7 78.9,31.4 73.6,31.4 73.6,7 65.4,7 65.4,2.2 86.9,2.2 87.7,7 "/>
<polygon class="st0" points="93,31.4 93,2.2 109.1,2.2 109.1,6.9 98.3,6.9 98.3,13.8 106.6,13.8 107.4,18.6 98.3,18.6 98.3,26.6 
	109.5,26.6 109.5,31.4 "/>
<polygon class="st0" points="151.2,31.4 149.7,10 142.7,31.5 138,31.5 131,10 129.6,31.4 124.8,31.4 127,2.2 133.7,2.2 140.7,24.2 
	147.7,2.2 154.3,2.2 156.5,31.4 "/>
<g>
	<path class="st0" d="M173.9,31.9c-6.7,0-11.1-4.2-11.1-11.8V2.2h5.3v17.6c0,4.5,1.9,7.2,5.8,7.2c3.9,0,5.9-2.6,5.9-7.1V2.2h5.3
		v17.8C185.2,27.7,180.6,31.9,173.9,31.9"/>
	<path class="st0" d="M199.9,31.7c-3.4,0-6.3-0.8-8.7-2l0.8-5.1c2.3,1.4,5.2,2.6,8,2.6c2.4,0,4.1-1.2,4.1-3.5c0-2.2-1-3-5-4.9
		c-5.4-2.3-7.5-4.2-7.5-8.7c0-5.2,3.8-8.2,8.9-8.2c3.1,0,5.3,0.7,7.3,1.8L207,8.7c-2-1.4-4.4-2.3-6.5-2.3c-2.6,0-3.8,1.3-3.8,3.1
		c0,1.9,0.9,2.8,4.7,4.4c5.7,2.4,7.8,4.5,7.8,9.1C209.2,28.7,205.2,31.7,199.9,31.7"/>
</g>
<polygon class="st0" points="215.3,31.4 215.3,2.2 231.4,2.2 231.4,6.9 220.6,6.9 220.6,13.8 228.9,13.8 229.6,18.6 220.6,18.6 
	220.6,26.6 231.8,26.6 231.8,31.4 "/>
<g>
	<path class="st0" d="M248.5,31.9c-6.7,0-11.1-4.2-11.1-11.8V2.2h5.3v17.6c0,4.5,1.9,7.2,5.8,7.2c3.9,0,5.9-2.6,5.9-7.1V2.2h5.3
		v17.8C259.8,27.7,255.2,31.9,248.5,31.9"/>
</g>
<polygon class="st0" points="292.5,31.4 291,10 284,31.5 279.3,31.5 272.3,10 270.9,31.4 266.1,31.4 268.3,2.2 275,2.2 282,24.2 
	289,2.2 295.6,2.2 297.8,31.4 "/>
<g>
	<path class="st0" d="M324.9,19.7c0-3.7-1.6-6.1-4-6.1c-3.7,0-6,5.6-6,10.2c0,3.7,1.6,6,4,6C322.6,29.9,324.9,24.3,324.9,19.7
		 M311.3,24.7c0-6.1,4.6-13,10.9-13c3.4,0,6.2,2.5,6.2,7.1c0,6.1-4.6,13-10.9,13C314.1,31.8,311.3,29.4,311.3,24.7"/>
	<path class="st0" d="M326.7,38.3c0-1.1,0.9-2,2.2-2c1.3,0,2.2,0.8,3,2.1c1-1.2,1.7-3.3,2.2-6.4l2.9-17.3h-4.2l0.2-1.2l4.4-1.2
		l0.2-1.3c0.8-4.6,2-7.2,4.7-9.3c1.5-1.2,3.1-1.8,4.9-1.8c2.7,0,4,1.6,4,3c0,1.1-0.8,2.1-2.1,2.1c-1.4,0-2.5-1.1-3-3.3
		c-2.5,0.1-4.2,3.2-5.2,8.8l-0.4,2.1h4.5l-0.4,2.2h-4.5l-2.1,12.9c-1,6.2-1.8,8.4-4.3,10.9c-1.3,1.3-2.8,2-4.3,2
		C327.6,40.6,326.7,39.5,326.7,38.3"/>
</g>
<path class="st0" d="M369.7,8.1l-3.8,11.3h7.5L369.7,8.1z M377.6,31.7l-2.6-7.7h-10.5l-2.5,7.4h-5.3L367.1,2h5.7l10.1,28.6
	L377.6,31.7z"/>
<g>
	<path class="st0" d="M396.4,6.7h-2.9v9.3h2.7c3.3,0,5.3-1.6,5.3-4.7C401.5,8.3,399.8,6.7,396.4,6.7 M408.6,30.6l-5.4,1.1l-7.2-11.5
		h-2.4v11.2h-5.3V2.2h8.6c6.2,0,9.9,3.1,9.9,8.8c0,4.2-2.1,6.9-5.5,8.2L408.6,30.6z"/>
</g>
<polygon class="st0" points="424.7,7 424.7,31.4 419.4,31.4 419.4,7 411.1,7 411.1,2.2 432.7,2.2 433.4,7 "/>
</svg>
